<?xml version="1.0" encoding="utf-8"?>
<!-- Generator: Adobe Illustrator 27.5.0, SVG Export Plug-In . SVG Version: 6.00 Build 0)  -->
<svg version="1.1" xmlns="http://www.w3.org/2000/svg" xmlns:xlink="http://www.w3.org/1999/xlink" x="0px" y="0px"
	 viewBox="0 0 500 500" style="enable-background:new 0 0 500 500;" xml:space="preserve">
<g id="Background_Complete">
	<g>
		<rect y="382.398" style="fill:#EBEBEB;" width="500" height="0.25"/>
		<rect x="416.779" y="398.494" style="fill:#EBEBEB;" width="33.122" height="0.25"/>
		<rect x="322.527" y="401.208" style="fill:#EBEBEB;" width="8.693" height="0.25"/>
		<rect x="396.586" y="389.208" style="fill:#EBEBEB;" width="19.192" height="0.25"/>
		<rect x="52.459" y="390.888" style="fill:#EBEBEB;" width="43.193" height="0.25"/>
		<rect x="104.556" y="390.888" style="fill:#EBEBEB;" width="6.333" height="0.25"/>
		<rect x="131.471" y="395.111" style="fill:#EBEBEB;" width="93.676" height="0.25"/>
		<path style="fill:#EBEBEB;" d="M237.014,337.8H43.915c-3.147,0-5.708-2.561-5.708-5.708V60.66c0-3.147,2.561-5.708,5.708-5.708
			h193.099c3.146,0,5.707,2.561,5.707,5.708v271.432C242.721,335.239,240.16,337.8,237.014,337.8z M43.915,55.203
			c-3.01,0-5.458,2.448-5.458,5.458v271.432c0,3.01,2.448,5.458,5.458,5.458h193.099c3.009,0,5.457-2.448,5.457-5.458V60.66
			c0-3.009-2.448-5.458-5.457-5.458H43.915z"/>
		<path style="fill:#EBEBEB;" d="M453.31,337.8H260.212c-3.147,0-5.707-2.561-5.707-5.708V60.66c0-3.147,2.561-5.708,5.707-5.708
			H453.31c3.148,0,5.708,2.561,5.708,5.708v271.432C459.019,335.239,456.458,337.8,453.31,337.8z M260.212,55.203
			c-3.009,0-5.457,2.448-5.457,5.458v271.432c0,3.01,2.448,5.458,5.457,5.458H453.31c3.01,0,5.458-2.448,5.458-5.458V60.66
			c0-3.009-2.448-5.458-5.458-5.458H260.212z"/>
	</g>
	<g>
		<g>
			<rect x="66.963" y="111.234" style="fill:#E6E6E6;" width="59.655" height="88.919"/>
			
				<rect x="126.618" y="111.234" transform="matrix(-1 -1.224647e-16 1.224647e-16 -1 254.1737 311.388)" style="fill:#E0E0E0;" width="0.938" height="88.919"/>
			
				<rect x="55.708" y="129.243" transform="matrix(-1.836970e-16 1 -1 -1.836970e-16 252.4846 58.9035)" style="fill:#FAFAFA;" width="82.166" height="52.901"/>
			<g>
				
					<ellipse transform="matrix(0.7071 -0.7071 0.7071 0.7071 -69.9042 109.1392)" style="fill:#F0F0F0;" cx="96.791" cy="138.951" rx="14.14" ry="14.14"/>
				<rect x="79.344" y="161.275" style="fill:#EBEBEB;" width="34.892" height="3.572"/>
				<rect x="79.344" y="170.768" style="fill:#EBEBEB;" width="34.892" height="3.572"/>
				<rect x="79.344" y="180.261" style="fill:#EBEBEB;" width="34.892" height="3.572"/>
			</g>
		</g>
		<g>
			<rect x="141.923" y="124.038" style="fill:#E6E6E6;" width="59.655" height="88.919"/>
			
				<rect x="201.577" y="124.038" transform="matrix(-1 -1.224647e-16 1.224647e-16 -1 404.0929 336.9945)" style="fill:#E0E0E0;" width="0.938" height="88.919"/>
			
				<rect x="130.667" y="142.047" transform="matrix(-1.836970e-16 1 -1 -1.836970e-16 340.2474 -3.2529)" style="fill:#FAFAFA;" width="82.166" height="52.901"/>
			<g>
				
					<ellipse transform="matrix(0.2298 -0.9732 0.9732 0.2298 -15.405 284.0441)" style="fill:#F0F0F0;" cx="171.75" cy="151.755" rx="14.14" ry="14.14"/>
				<rect x="154.304" y="174.078" style="fill:#EBEBEB;" width="34.892" height="3.572"/>
				<rect x="154.304" y="183.571" style="fill:#EBEBEB;" width="34.892" height="3.572"/>
				<rect x="154.304" y="193.064" style="fill:#EBEBEB;" width="34.892" height="3.572"/>
			</g>
		</g>
		<g>
			<rect x="151.237" y="250" style="fill:#EBEBEB;" width="260.689" height="2.778"/>
			
				<rect x="411.926" y="250" transform="matrix(-1 -1.224647e-16 1.224647e-16 -1 844.9623 502.7778)" style="fill:#E0E0E0;" width="21.111" height="2.778"/>
			<rect x="154.814" y="252.778" style="fill:#F5F5F5;" width="257.111" height="129.621"/>
			<rect x="211.037" y="252.778" style="fill:#E6E6E6;" width="1.444" height="129.621"/>
			<rect x="279.037" y="279.135" style="fill:#E6E6E6;" width="1.444" height="103.263"/>
			
				<rect x="182.564" y="327.57" transform="matrix(-1.836970e-16 1 -1 -1.836970e-16 539.3285 172.7553)" style="fill:#E6E6E6;" width="1.444" height="56.945"/>
			
				<rect x="182.564" y="301.934" transform="matrix(-1.836970e-16 1 -1 -1.836970e-16 513.6932 147.1201)" style="fill:#E6E6E6;" width="1.444" height="56.945"/>
			
				<rect x="182.564" y="276.299" transform="matrix(-1.836970e-16 1 -1 -1.836970e-16 488.058 121.4848)" style="fill:#E6E6E6;" width="1.444" height="56.945"/>
			
				<rect x="282.648" y="150.58" transform="matrix(-1.836970e-16 1 -1 -1.836970e-16 562.5053 -4.2348)" style="fill:#E6E6E6;" width="1.444" height="257.111"/>
			
				<rect x="411.926" y="252.778" transform="matrix(-1 -1.224647e-16 1.224647e-16 -1 842.3259 635.1762)" style="fill:#EBEBEB;" width="18.475" height="129.621"/>
		</g>
		<g>
			<rect x="325.274" y="76.714" style="fill:#FAFAFA;" width="91" height="129.58"/>
			<path style="fill:#EBEBEB;" d="M417.274,78.269h-93c-0.859,0-1.556-0.696-1.556-1.555l0,0c0-0.859,0.697-1.556,1.556-1.556h93
				c0.859,0,1.556,0.696,1.556,1.556l0,0C418.829,77.573,418.133,78.269,417.274,78.269z"/>
			<path style="fill:#EBEBEB;" d="M417.274,207.849h-93c-0.859,0-1.556-0.697-1.556-1.556l0,0c0-0.859,0.697-1.555,1.556-1.555h93
				c0.859,0,1.556,0.696,1.556,1.555l0,0C418.829,207.153,418.133,207.849,417.274,207.849z"/>
			<g>
				<path style="fill:#F0F0F0;" d="M374.187,151.214h-6.826c-5.823,0-10.587-4.764-10.587-10.587V119.3
					c0-5.823,4.764-10.587,10.587-10.587h6.826c5.823,0,10.587,4.764,10.587,10.587v21.326
					C384.774,146.449,380.01,151.214,374.187,151.214z"/>
				<path style="fill:#F0F0F0;" d="M362.774,194.38L362.774,194.38c-3.3,0-6-2.7-6-6v-45.333c0-3.3,2.7-6,6-6l0,0c3.3,0,6,2.7,6,6
					v45.333C368.774,191.68,366.074,194.38,362.774,194.38z"/>
				<path style="fill:#F0F0F0;" d="M351.065,148.105L351.065,148.105c-1.971,0-3.583-1.612-3.583-3.583v-27.074
					c0-1.971,1.612-3.583,3.583-3.583h0c1.971,0,3.583,1.613,3.583,3.583v27.074C354.648,146.493,353.035,148.105,351.065,148.105z"
					/>
				<path style="fill:#F0F0F0;" d="M390.483,148.105L390.483,148.105c-1.971,0-3.583-1.612-3.583-3.583v-27.074
					c0-1.971,1.612-3.583,3.583-3.583l0,0c1.971,0,3.583,1.613,3.583,3.583v27.074C394.066,146.493,392.454,148.105,390.483,148.105
					z"/>
				<path style="fill:#F0F0F0;" d="M378.774,194.38L378.774,194.38c-3.3,0-6-2.7-6-6v-45.333c0-3.3,2.7-6,6-6l0,0c3.3,0,6,2.7,6,6
					v45.333C384.774,191.68,382.074,194.38,378.774,194.38z"/>
				
					<ellipse transform="matrix(0.7071 -0.7071 0.7071 0.7071 40.7996 290.2593)" style="fill:#F0F0F0;" cx="370.774" cy="95.88" rx="8.833" ry="8.833"/>
			</g>
		</g>
		<g>
			<rect x="339.272" y="224.667" style="fill:#F5F5F5;" width="41.889" height="25.333"/>
			
				<rect x="381.161" y="224.667" transform="matrix(-1 -1.224647e-16 1.224647e-16 -1 772.6418 474.6667)" style="fill:#EBEBEB;" width="10.32" height="25.333"/>
			<polygon style="fill:#FFFFFF;" points="368.216,234.915 362.635,234.915 362.635,229.333 357.798,229.333 357.798,234.915 
				352.216,234.915 352.216,239.752 357.798,239.752 357.798,245.333 362.635,245.333 362.635,239.752 368.216,239.752 			"/>
		</g>
		<g>
			<path style="fill:#EBEBEB;" d="M302.592,250h-4v-44.808c0-8.332-6.779-15.111-15.111-15.111s-15.11,6.779-15.11,15.111h-4
				c0-10.538,8.573-19.111,19.11-19.111c10.538,0,19.111,8.573,19.111,19.111V250z"/>
			<rect x="306.037" y="243.444" style="fill:#EBEBEB;" width="4" height="6.556"/>
			<rect x="178.831" y="247.667" style="fill:#EBEBEB;" width="4" height="2.333"/>
			<rect x="171.744" y="247.667" style="fill:#EBEBEB;" width="4" height="2.333"/>
		</g>
		<g>
			<rect x="85.736" y="309.273" style="fill:#F5F5F5;" width="52.07" height="73.125"/>
			<rect x="87.763" y="307.437" style="fill:#E6E6E6;" width="48.017" height="1.837"/>
			<path style="fill:#F5F5F5;" d="M102.235,290.938h19.073c9.112,0,16.498,7.387,16.498,16.499l0,0h-52.07l0,0
				C85.736,298.325,93.123,290.938,102.235,290.938z"/>
			<path style="fill:#E6E6E6;" d="M92.655,374.377h-5.509c-4.43,0-8.022,3.591-8.022,8.022l0,0h21.553l0,0
				C100.677,377.968,97.086,374.377,92.655,374.377z"/>
		</g>
	</g>
</g>
<g id="Background_Simple" style="display:none;">
	<g style="display:inline;">
		<g>
			<path style="fill:#407BFF;" d="M280.556,271.119c-44.001-10.79-61.908-70.32-56.57-108.352
				c5.246-37.376,30.697-74.943-21.966-97.216c-39.413-16.669-86.452,11.092-97.622,48.196
				c-13.542,44.983,42.982,48.126,48.455,87.175c3.868,27.599-28.419,39.073-29.575,64.55c-2.57,56.623,68.645,32.275,92.327,55.563
				c16.122,15.854,16.555,37.492,40.805,48.499c21.64,9.821,45.124,4.351,62.59-8.393
				C367.236,325.946,328.671,282.885,280.556,271.119z"/>
		</g>
		<g style="opacity:0.9;">
			<path style="fill:#FFFFFF;" d="M280.556,271.119c-44.001-10.79-61.908-70.32-56.57-108.352
				c5.246-37.376,30.697-74.943-21.966-97.216c-39.413-16.669-86.452,11.092-97.622,48.196
				c-13.542,44.983,42.982,48.126,48.455,87.175c3.868,27.599-28.419,39.073-29.575,64.55c-2.57,56.623,68.645,32.275,92.327,55.563
				c16.122,15.854,16.555,37.492,40.805,48.499c21.64,9.821,45.124,4.351,62.59-8.393
				C367.236,325.946,328.671,282.885,280.556,271.119z"/>
		</g>
	</g>
</g>
<g id="Shadow_1_">
	<ellipse id="_x3C_Path_x3E__359_" style="fill:#F5F5F5;" cx="250" cy="416.238" rx="193.889" ry="11.323"/>
</g>
<g id="Character_1_">
	<g>
		<path style="fill:#B55B52;" d="M191.705,146.134l-4.533-5.565l-6.342,3.983c0,0,2.902,3.093,6.416,7.43L191.705,146.134z"/>
		<g>
			<path style="fill:#407BFF;" d="M248.322,146.578c-0.265,0.564-0.441,0.901-0.661,1.334l-0.631,1.201
				c-0.425,0.787-0.855,1.565-1.298,2.332c-0.883,1.535-1.804,3.042-2.774,4.527c-1.938,2.972-4.02,5.883-6.422,8.672
				c-2.394,2.784-5.076,5.48-8.301,7.891c-1.628,1.195-3.398,2.311-5.36,3.261l-1.507,0.677l-1.589,0.588
				c-0.534,0.188-1.106,0.332-1.659,0.49l-0.419,0.114c-0.12,0.035-0.407,0.092-0.604,0.133c-0.441,0.094-0.868,0.154-1.291,0.197
				c-1.699,0.176-3.239,0.034-4.577-0.232c-1.345-0.269-2.527-0.648-3.607-1.075c-2.151-0.86-3.919-1.886-5.564-2.949
				c-3.251-2.14-5.957-4.477-8.531-6.865c-2.565-2.387-4.944-4.855-7.227-7.381c-1.144-1.261-2.27-2.53-3.371-3.822
				c-1.117-1.311-2.153-2.555-3.296-4.011l11.064-8.581c0.859,1.091,1.893,2.339,2.879,3.491c1.004,1.17,2.022,2.329,3.066,3.457
				c2.092,2.25,4.249,4.416,6.457,6.41c2.206,1.979,4.504,3.796,6.707,5.159c1.09,0.668,2.169,1.221,3.041,1.532
				c0.86,0.332,1.507,0.316,1.309,0.27c-0.02,0-0.046,0.004-0.093,0.004c0-0.005-0.085,0.025-0.012-0.001l0.164-0.059
				c0.219-0.083,0.436-0.132,0.661-0.227l0.678-0.284l0.693-0.353c0.932-0.506,1.892-1.154,2.846-1.914
				c1.909-1.546,3.776-3.522,5.483-5.747c1.72-2.211,3.316-4.652,4.777-7.192c0.725-1.274,1.418-2.578,2.072-3.894
				c0.329-0.657,0.642-1.319,0.948-1.977l0.44-0.979c0.13-0.298,0.301-0.692,0.366-0.868L248.322,146.578z"/>
			<path style="opacity:0.8;fill:#FFFFFF;" d="M248.322,146.578c-0.265,0.564-0.441,0.901-0.661,1.334l-0.631,1.201
				c-0.425,0.787-0.855,1.565-1.298,2.332c-0.883,1.535-1.804,3.042-2.774,4.527c-1.938,2.972-4.02,5.883-6.422,8.672
				c-2.394,2.784-5.076,5.48-8.301,7.891c-1.628,1.195-3.398,2.311-5.36,3.261l-1.507,0.677l-1.589,0.588
				c-0.534,0.188-1.106,0.332-1.659,0.49l-0.419,0.114c-0.12,0.035-0.407,0.092-0.604,0.133c-0.441,0.094-0.868,0.154-1.291,0.197
				c-1.699,0.176-3.239,0.034-4.577-0.232c-1.345-0.269-2.527-0.648-3.607-1.075c-2.151-0.86-3.919-1.886-5.564-2.949
				c-3.251-2.14-5.957-4.477-8.531-6.865c-2.565-2.387-4.944-4.855-7.227-7.381c-1.144-1.261-2.27-2.53-3.371-3.822
				c-1.117-1.311-2.153-2.555-3.296-4.011l11.064-8.581c0.859,1.091,1.893,2.339,2.879,3.491c1.004,1.17,2.022,2.329,3.066,3.457
				c2.092,2.25,4.249,4.416,6.457,6.41c2.206,1.979,4.504,3.796,6.707,5.159c1.09,0.668,2.169,1.221,3.041,1.532
				c0.86,0.332,1.507,0.316,1.309,0.27c-0.02,0-0.046,0.004-0.093,0.004c0-0.005-0.085,0.025-0.012-0.001l0.164-0.059
				c0.219-0.083,0.436-0.132,0.661-0.227l0.678-0.284l0.693-0.353c0.932-0.506,1.892-1.154,2.846-1.914
				c1.909-1.546,3.776-3.522,5.483-5.747c1.72-2.211,3.316-4.652,4.777-7.192c0.725-1.274,1.418-2.578,2.072-3.894
				c0.329-0.657,0.642-1.319,0.948-1.977l0.44-0.979c0.13-0.298,0.301-0.692,0.366-0.868L248.322,146.578z"/>
		</g>
		<g>
			<polygon style="fill:#407BFF;" points="246.104,306.402 278.38,306.402 266.143,245.218 250.333,245.218 			"/>
			<polygon style="opacity:0.6;fill:#FFFFFF;" points="246.104,306.402 278.38,306.402 266.143,245.218 250.333,245.218 			"/>
		</g>
		<polygon style="fill:#B55B52;" points="253.021,407.101 244.795,407.101 244.443,388.052 252.668,388.052 		"/>
		<polygon style="fill:#B55B52;" points="298.587,407.101 290.361,407.101 286.694,388.052 294.919,388.052 		"/>
		<path style="fill:#263238;" d="M289.8,406.148h9.241c0.336,0,0.622,0.233,0.687,0.562l1.445,7.312
			c0.15,0.758-0.464,1.476-1.24,1.463c-3.225-0.055-4.788-0.245-8.852-0.245c-2.5,0-7.658,0.26-11.11,0.26
			c-3.377,0-3.82-3.414-2.399-3.723c6.372-1.386,8.806-3.298,10.88-5.122C288.826,406.325,289.308,406.148,289.8,406.148z"/>
		<path style="fill:#263238;" d="M244.872,406.148h8.983c0.336,0,0.622,0.233,0.687,0.562l1.446,7.311
			c0.15,0.758-0.443,1.476-1.219,1.463c-3.239-0.055-7.917-0.245-11.99-0.245c-4.762,0-5.146,0.26-10.73,0.26
			c-3.377,0-4.23-3.414-2.809-3.723c6.469-1.408,7.992-1.559,13.636-4.987C243.489,406.417,244.163,406.148,244.872,406.148z"/>
		<path style="fill:#B55B52;" d="M184.102,138.669l-5.32-0.074l-1.027,6.855c0,0,5.222,1.121,10.089-1.02l-0.098-2.225
			C187.659,140.247,186.061,138.696,184.102,138.669z"/>
		<polygon style="fill:#B55B52;" points="170.464,138.908 171.491,143.245 177.755,145.449 178.783,138.594 		"/>
		<g>
			<polygon style="opacity:0.2;" points="244.444,388.057 244.624,397.876 252.854,397.876 252.673,388.057 			"/>
			<polygon style="opacity:0.2;" points="294.922,388.057 286.693,388.057 288.588,397.876 296.817,397.876 			"/>
		</g>
		<path style="fill:#FFFFFF;" d="M234.728,141.472c-2.281,8.715-6.363,30.721-1.893,65.709h43.996
			c0.426-6.132-2.368-33.86,2.575-62.733c0.852-4.975-2.602-9.655-7.618-10.213c-1.71-0.19-3.521-0.349-5.312-0.436
			c-5.615-0.271-13.476,0.146-18.429,0.597c-2.914,0.265-5.622,0.852-7.726,1.419C237.578,136.557,235.447,138.724,234.728,141.472z
			"/>
		<path style="fill:#B55B52;" d="M264.46,116.308c-1.327,6.018-2.096,13.476,2.016,17.491c0,0-2.568,6.104-13.75,6.104
			c-10.218,0-4.953-6.104-4.953-6.104c6.75-1.603,6.603-9.901,5.549-14.577L264.46,116.308z"/>
		<path style="fill:#407BFF;" d="M252.198,139.066l-2.421,2.677c-0.173,0.192-0.231,0.459-0.152,0.7l0.775,2.36
			c0.089,0.27,0.333,0.455,0.619,0.469l2.608,0.126c0.249,0.012,0.489-0.109,0.631-0.317l1.559-2.292
			c0.182-0.268,0.164-0.62-0.045-0.858l-2.522-2.872C252.976,138.747,252.484,138.75,252.198,139.066z"/>
		<path style="fill:#407BFF;" d="M251.588,145.249c0,0-4,29.446-4.092,34.569c-0.126,7.044,2.262,14.283,2.262,14.283
			s2.749-5.206,3.226-14.501c0.47-9.161-0.102-29.133,0.102-34.352H251.588z"/>
		<path style="opacity:0.2;" d="M253.316,119.229c0.629,2.739,0.935,6.725-0.287,9.88c0.806,0.348,4.103-0.919,5.473-1.792
			c3.045-1.939,4.223-3.835,5.351-7.885c0.172-1.067,0.377-2.111,0.604-3.121L253.316,119.229z"/>
		<g>
			<path style="fill:#B55B52;" d="M242.882,113.376c0.782,2.047,2.436,3.518,4.092,4.195c2.491,1.018,4.092-1.178,3.697-3.728
				c-0.355-2.295-2.078-5.59-4.722-5.522C243.345,108.388,241.988,111.035,242.882,113.376z"/>
			<path style="opacity:0.2;" d="M242.882,113.376c0.782,2.047,2.436,3.518,4.092,4.195c2.491,1.018,4.092-1.178,3.697-3.728
				c-0.355-2.295-2.078-5.59-4.722-5.522C243.345,108.388,241.988,111.035,242.882,113.376z"/>
		</g>
		<path style="fill:#263238;" d="M253.025,104.366c-0.474,3.528-2.673,6.145-4.911,5.844c-2.238-0.301-3.669-3.405-3.195-6.934
			c0.474-3.529,2.673-6.145,4.911-5.845C252.068,97.733,253.499,100.838,253.025,104.366z"/>
		<path style="fill:#B55B52;" d="M268.401,108.508c-2.008,7.991-2.783,12.761-7.588,16.225c-7.228,5.21-16.37-0.151-16.756-8.531
			c-0.347-7.543,2.995-19.344,11.401-21.238C263.74,93.098,270.409,100.517,268.401,108.508z"/>
		<path style="fill:#263238;" d="M255.12,92.171c-4.786,1.034-10.089,4.912-5.522,7.756c4.567,2.844,14.86,3.296,14.86,3.296
			s-3.398,7.993,1.255,12.129c1.551-0.776-1.762,6.211-1.762,6.211s2.365-0.61,4.002-3.367c2.773-0.707,11.03-13.96,5.515-17.752
			C272.434,92.688,261.548,90.783,255.12,92.171z"/>
		<path style="fill:#FFFFFF;" d="M266.682,113.331c-0.036,0-0.072-0.008-0.108-0.024l-7.209-3.297
			c-0.13-0.059-0.188-0.212-0.128-0.342c0.061-0.13,0.214-0.186,0.343-0.128l7.209,3.297c0.13,0.059,0.188,0.212,0.128,0.342
			C266.874,113.275,266.78,113.331,266.682,113.331z"/>
		<path style="fill:#B55B52;" d="M270.328,118.016c-1.48,1.665-3.568,2.503-5.369,2.595c-2.708,0.139-3.41-2.447-2.11-4.71
			c1.17-2.037,3.988-4.564,6.444-3.634C271.711,113.184,272.02,116.112,270.328,118.016z"/>
		<path style="fill:#407BFF;" d="M232.835,207.181c0,0-2.64,61.501-2.361,86.586c0.291,26.091,11.132,102.207,11.132,102.207h13.935
			c0,0-1.253-74.591-0.005-100.216c1.361-27.935,6.22-88.577,6.22-88.577H232.835z"/>
		<path style="fill:#263238;" d="M256.194,389.822c0.065,0,0.259,6.437,0.259,6.437h-16.062l-0.92-6.998L256.194,389.822z"/>
		<path style="opacity:0.2;" d="M251.679,223.46c-0.482,30.521,0.903,49.058,4.31,63.958c0.84-14.557,2.216-33.805,3.418-49.796
			L251.679,223.46z"/>
		<path style="fill:#407BFF;" d="M248.442,207.181c0,0,7.794,62.862,12.341,86.413c4.98,25.79,24.017,102.38,24.017,102.38h15.066
			c0,0-11.887-74.509-14.463-100.043c-2.796-27.713-8.572-88.751-8.572-88.751H248.442z"/>
		<path style="fill:#263238;" d="M299.493,390.165c0.064,0,1.117,6.094,1.117,6.094h-16.56l-1.816-6.718L299.493,390.165z"/>
		<path style="fill:#263238;" d="M255.888,108.721c-0.124,0.657-0.568,1.132-0.992,1.06c-0.424-0.072-0.668-0.663-0.544-1.32
			c0.124-0.657,0.568-1.132,0.992-1.06S256.011,108.064,255.888,108.721z"/>
		<path style="fill:#263238;" d="M247.82,106.821c-0.124,0.657-0.568,1.132-0.992,1.06c-0.424-0.072-0.668-0.663-0.544-1.32
			c0.124-0.657,0.568-1.132,0.992-1.06C247.7,105.572,247.944,106.163,247.82,106.821z"/>
		<path style="fill:#A02724;" d="M251.178,108.471c0,0-2.595,3.258-4.734,4.568c0.785,1.383,2.836,1.461,2.836,1.461
			L251.178,108.471z"/>
		<path style="fill:#263238;" d="M251.204,116.549c-0.105-0.018-0.174-0.119-0.154-0.225s0.122-0.179,0.227-0.161
			c2.849,0.482,4.557-1.309,4.575-1.327c0.076-0.079,0.199-0.085,0.274-0.011c0.077,0.073,0.08,0.196,0.005,0.276
			C256.055,115.18,254.258,117.065,251.204,116.549z"/>
		<path style="fill:#263238;" d="M259.796,106.576c-0.113-0.03-0.21-0.111-0.255-0.228c-0.626-1.609-2.023-1.891-2.038-1.892
			c-0.199-0.029-0.345-0.243-0.3-0.456c0.044-0.212,0.251-0.352,0.461-0.313c0.075,0.013,1.825,0.363,2.601,2.361
			c0.078,0.2-0.022,0.428-0.222,0.51C259.962,106.592,259.875,106.597,259.796,106.576z"/>
		<path style="fill:#263238;" d="M245.753,103.67c-0.055-0.013-0.109-0.038-0.155-0.077c-0.163-0.136-0.183-0.382-0.044-0.55
			c1.389-1.682,3.168-1.516,3.243-1.509c0.208,0.014,0.363,0.213,0.336,0.43c-0.027,0.215-0.22,0.37-0.431,0.35l0,0
			c-0.059-0.006-1.448-0.12-2.557,1.222C246.046,103.656,245.892,103.703,245.753,103.67z"/>
		<path style="fill:#FFFFFF;" d="M255.744,113.399c-0.198,0-0.398-0.017-0.598-0.053c-0.927-0.164-1.749-0.706-2.317-1.524
			c-0.676-0.974-0.932-2.252-0.701-3.506c0.439-2.399,2.522-4.044,4.611-3.672c0.926,0.164,1.748,0.705,2.316,1.523
			c0.676,0.974,0.933,2.251,0.702,3.506c0,0,0,0,0,0.001C259.36,111.844,257.627,113.399,255.744,113.399z M256.139,105.108
			c-1.639,0-3.151,1.38-3.504,3.302c-0.205,1.12,0.021,2.256,0.618,3.118c0.489,0.704,1.193,1.17,1.982,1.31
			c1.832,0.318,3.625-1.137,4.014-3.257c0.205-1.12-0.021-2.257-0.619-3.118c-0.489-0.704-1.192-1.169-1.981-1.309
			C256.478,105.123,256.308,105.108,256.139,105.108z M259.503,109.627h0.007H259.503z"/>
		<path style="fill:#FFFFFF;" d="M252.381,108.623c-0.083,0-0.165-0.041-0.215-0.115c-0.791-1.183-1.792-0.77-1.837-0.751
			c-0.129,0.055-0.282-0.003-0.34-0.133c-0.057-0.13,0.001-0.282,0.131-0.339c0.013-0.007,1.437-0.618,2.476,0.937
			c0.079,0.119,0.048,0.279-0.071,0.358C252.481,108.608,252.431,108.623,252.381,108.623z"/>
		<path style="fill:#FFFFFF;" d="M246.467,111.29c-0.199,0-0.398-0.017-0.599-0.053c-0.926-0.164-1.749-0.705-2.317-1.523
			c-0.676-0.974-0.932-2.252-0.701-3.507c0.44-2.399,2.518-4.042,4.611-3.672c0.927,0.164,1.749,0.705,2.317,1.523
			c0.676,0.974,0.932,2.252,0.701,3.507l0,0C250.083,109.735,248.35,111.29,246.467,111.29z M246.862,103
			c-1.639,0-3.151,1.38-3.504,3.302c-0.205,1.12,0.021,2.256,0.618,3.118c0.489,0.704,1.193,1.169,1.982,1.309
			c1.831,0.327,3.625-1.137,4.014-3.257c0.205-1.12-0.021-2.257-0.618-3.118c-0.489-0.704-1.193-1.169-1.982-1.309
			C247.201,103.015,247.031,103,246.862,103z M250.226,107.519h0.007H250.226z"/>
		<path style="fill:#407BFF;" d="M287.045,407.585c-0.626,0-1.209-0.107-1.573-0.419c-0.289-0.248-0.416-0.595-0.377-1.03
			c0.028-0.324,0.203-0.478,0.347-0.551c0.912-0.466,3.534,1.163,3.83,1.35c0.065,0.043,0.098,0.12,0.084,0.198
			c-0.015,0.076-0.074,0.138-0.151,0.157C288.629,407.428,287.805,407.585,287.045,407.585z M285.864,405.883
			c-0.102,0-0.188,0.015-0.254,0.049c-0.053,0.027-0.115,0.078-0.128,0.228c-0.027,0.31,0.053,0.542,0.247,0.708
			c0.44,0.379,1.513,0.429,2.916,0.148C287.73,406.478,286.494,405.883,285.864,405.883z"/>
		<path style="fill:#407BFF;" d="M289.158,407.295c-0.032,0-0.064-0.008-0.092-0.023c-0.84-0.463-2.441-2.265-2.245-3.183
			c0.035-0.166,0.165-0.453,0.633-0.51c0.306-0.038,0.58,0.047,0.823,0.25c0.937,0.781,1.075,3.155,1.08,3.256
			c0.004,0.072-0.032,0.14-0.093,0.178C289.232,407.285,289.195,407.295,289.158,407.295z M287.58,403.961
			c-0.029,0-0.058,0.003-0.088,0.006c-0.254,0.03-0.279,0.148-0.289,0.196c-0.117,0.542,0.898,1.904,1.729,2.546
			c-0.079-0.694-0.307-2.078-0.908-2.578C287.886,404.017,287.741,403.961,287.58,403.961z"/>
		<path style="fill:#407BFF;" d="M241.416,407.586c-0.817,0-1.568-0.126-1.986-0.505c-0.266-0.241-0.38-0.56-0.341-0.948
			c0.023-0.231,0.139-0.411,0.334-0.517c1.012-0.562,4.278,1.119,4.647,1.312c0.072,0.038,0.112,0.119,0.098,0.201
			c-0.013,0.082-0.077,0.148-0.159,0.164C243.309,407.431,242.322,407.586,241.416,407.586z M239.969,405.883
			c-0.151,0-0.276,0.023-0.365,0.072c-0.079,0.044-0.117,0.107-0.128,0.208c-0.026,0.263,0.046,0.469,0.22,0.627
			c0.495,0.449,1.847,0.525,3.67,0.224C242.242,406.472,240.748,405.883,239.969,405.883z"/>
		<path style="fill:#407BFF;" d="M243.971,407.295c-0.027,0-0.054-0.006-0.079-0.017c-0.981-0.446-2.905-2.224-2.732-3.155
			c0.04-0.218,0.202-0.49,0.739-0.543c0.392-0.049,0.759,0.072,1.072,0.333c1.025,0.86,1.192,3.074,1.199,3.169
			c0.004,0.068-0.028,0.135-0.085,0.177C244.051,407.283,244.011,407.295,243.971,407.295z M242.046,403.961
			c-0.038,0-0.078,0.003-0.117,0.006c-0.352,0.037-0.377,0.174-0.386,0.219c-0.104,0.559,1.199,1.956,2.197,2.565
			c-0.089-0.647-0.35-1.972-1.023-2.536C242.513,404.044,242.293,403.961,242.046,403.961z"/>
		<g>
			<path style="fill:#407BFF;" d="M266.948,133.248l9.5,1.143c3.268,0.393,5.692,3.212,5.585,6.502
				c-0.485,14.805-2.445,35.16-0.874,66.289c0.792,15.698,11.757,100.945,11.757,100.945l-21.607,3.792
				c0,0-15.366-45.957-21.55-100.514c-2.652-23.397-0.16-44.605-0.16-44.605L266.948,133.248z"/>
			<path style="opacity:0.8;fill:#FFFFFF;" d="M266.948,133.248l9.5,1.143c3.268,0.393,5.692,3.212,5.585,6.502
				c-0.485,14.805-2.445,35.16-0.874,66.289c0.792,15.698,11.757,100.945,11.757,100.945l-21.607,3.792
				c0,0-15.366-45.957-21.55-100.514c-2.652-23.397-0.16-44.605-0.16-44.605L266.948,133.248z"/>
		</g>
		<path style="opacity:0.2;fill:#407BFF;" d="M274.758,152.146c0,2.223,1.706,13.526,5.915,21.323
			c0.114-5.315,0.311-10.176,0.528-14.643L274.758,152.146z"/>
		<path style="opacity:0.2;fill:#407BFF;" d="M233.869,150.171c-1.22,2.327-4.736,12.213-6.525,22.998
			c0.817-0.569,1.592-1.158,2.347-1.758c2.895-2.378,5.357-4.964,7.58-7.632c0.145-0.176,0.289-0.362,0.434-0.538L233.869,150.171z"
			/>
		<g>
			<path style="fill:#407BFF;" d="M246.926,134.225l-5.605,0.674c-5.572,0.67-9.83,5.281-10.044,10.889
				c-0.636,16.621-1.942,49.82-2.647,61.394c-0.957,15.689-0.285,100.945-0.285,100.945l13.467,2.363c0,0,3.416-46.942,7.946-99.086
				c1.938-22.304,0.833-46.526,0.833-46.526L246.926,134.225z"/>
			<path style="opacity:0.8;fill:#FFFFFF;" d="M246.926,134.225l-5.605,0.674c-5.572,0.67-9.83,5.281-10.044,10.889
				c-0.636,16.621-1.942,49.82-2.647,61.394c-0.957,15.689-0.285,100.945-0.285,100.945l13.467,2.363c0,0,3.416-46.942,7.946-99.086
				c1.938-22.304,0.833-46.526,0.833-46.526L246.926,134.225z"/>
		</g>
		<path style="fill:#F5F5F5;" d="M252.734,138.828c1.934,3.011,2.983,6.421,2.983,6.421s13.139-4.505,12.662-11.743
			c0,0-1.958-1.18-3.198-2.139C265.181,131.366,264.593,135.928,252.734,138.828z"/>
		<path style="fill:#F5F5F5;" d="M252.734,138.828c-2.576,3.024-3.736,5.725-3.736,5.725s-5.391-3.596-3.311-10.752
			c0,0,1.809-0.75,3.613-1.14C249.3,132.661,248.354,137.279,252.734,138.828z"/>
		<polygon style="opacity:0.2;fill:#407BFF;" points="266.37,211.554 281.421,224.478 271.142,219.452 		"/>
		<g>
			<path style="fill:#407BFF;" d="M281.477,138.183c0.646,0.885,1.125,1.589,1.663,2.379l1.53,2.312
				c1.001,1.546,1.969,3.108,2.909,4.691c1.888,3.162,3.675,6.406,5.309,9.792c1.62,3.397,3.125,6.914,4.316,10.729
				c0.599,1.902,1.106,3.893,1.471,6.001c0.37,2.091,0.568,4.385,0.512,6.661c-0.158,4.493-1.115,8.575-2.404,12.345
				c-1.294,3.774-2.937,7.256-4.72,10.587c-1.792,3.324-3.752,6.487-5.849,9.529c-1.043,1.526-2.112,3.027-3.223,4.504
				c-0.553,0.74-1.121,1.471-1.698,2.203c-0.596,0.75-1.132,1.416-1.851,2.256l-10.575-9.177c0.408-0.479,0.965-1.161,1.447-1.772
				l1.478-1.922c0.973-1.299,1.921-2.622,2.828-3.968c1.807-2.697,3.467-5.468,4.932-8.274c1.452-2.808,2.679-5.672,3.572-8.489
				c0.887-2.812,1.422-5.588,1.405-8.046c-0.024-2.313-0.616-4.948-1.611-7.749c-0.979-2.781-2.299-5.626-3.812-8.421
				c-1.518-2.798-3.202-5.574-5.016-8.284c-0.912-1.351-1.851-2.69-2.815-4.005l-1.459-1.95c-0.475-0.619-1.018-1.318-1.427-1.811
				L281.477,138.183z"/>
			<path style="opacity:0.8;fill:#FFFFFF;" d="M281.477,138.183c0.646,0.885,1.125,1.589,1.663,2.379l1.53,2.312
				c1.001,1.546,1.969,3.108,2.909,4.691c1.888,3.162,3.675,6.406,5.309,9.792c1.62,3.397,3.125,6.914,4.316,10.729
				c0.599,1.902,1.106,3.893,1.471,6.001c0.37,2.091,0.568,4.385,0.512,6.661c-0.158,4.493-1.115,8.575-2.404,12.345
				c-1.294,3.774-2.937,7.256-4.72,10.587c-1.792,3.324-3.752,6.487-5.849,9.529c-1.043,1.526-2.112,3.027-3.223,4.504
				c-0.553,0.74-1.121,1.471-1.698,2.203c-0.596,0.75-1.132,1.416-1.851,2.256l-10.575-9.177c0.408-0.479,0.965-1.161,1.447-1.772
				l1.478-1.922c0.973-1.299,1.921-2.622,2.828-3.968c1.807-2.697,3.467-5.468,4.932-8.274c1.452-2.808,2.679-5.672,3.572-8.489
				c0.887-2.812,1.422-5.588,1.405-8.046c-0.024-2.313-0.616-4.948-1.611-7.749c-0.979-2.781-2.299-5.626-3.812-8.421
				c-1.518-2.798-3.202-5.574-5.016-8.284c-0.912-1.351-1.851-2.69-2.815-4.005l-1.459-1.95c-0.475-0.619-1.018-1.318-1.427-1.811
				L281.477,138.183z"/>
		</g>
		<g>
			<g>
				<path style="fill:#263238;" d="M267.99,155.523c-0.621,1.531-2.412,2.452-4,2.057c-1.587-0.395-2.371-1.957-1.749-3.488
					c0.622-1.531,2.412-2.452,4-2.057C267.828,152.431,268.611,153.992,267.99,155.523z"/>
				<path style="opacity:0.2;fill:#FFFFFF;" d="M267.99,155.523c-0.621,1.531-2.412,2.452-4,2.057
					c-1.587-0.395-2.371-1.957-1.749-3.488c0.622-1.531,2.412-2.452,4-2.057C267.828,152.431,268.611,153.992,267.99,155.523z"/>
			</g>
			<path style="fill:#263238;" d="M264.707,153.973c-0.079,0-0.158-0.023-0.227-0.073c-0.174-0.125-0.213-0.367-0.088-0.542
				c7.438-10.346,5.354-19.549,5.333-19.641c-0.05-0.208,0.078-0.418,0.286-0.467c0.221-0.053,0.418,0.079,0.468,0.286
				c0.023,0.095,2.198,9.625-5.458,20.275C264.947,153.917,264.828,153.973,264.707,153.973z"/>
			<path style="fill:#263238;" d="M238.769,148.745c-0.2,0-0.37-0.154-0.387-0.357c-0.813-10.159,4.567-13.906,4.797-14.061
				c0.177-0.12,0.418-0.072,0.537,0.104c0.12,0.177,0.074,0.418-0.103,0.539c-0.053,0.036-5.233,3.677-4.458,13.356
				c0.017,0.213-0.143,0.4-0.355,0.417C238.79,148.745,238.779,148.745,238.769,148.745z"/>
			<g>
				<path style="fill:#263238;" d="M266.905,155.253c-0.621,1.531-2.412,2.452-4,2.057c-1.587-0.395-2.371-1.956-1.749-3.488
					c0.622-1.531,2.412-2.452,4-2.057S267.527,153.722,266.905,155.253z"/>
				<path style="opacity:0.4;fill:#FFFFFF;" d="M266.905,155.253c-0.621,1.531-2.412,2.452-4,2.057
					c-1.587-0.395-2.371-1.956-1.749-3.488c0.622-1.531,2.412-2.452,4-2.057S267.527,153.722,266.905,155.253z"/>
				<path style="opacity:0.4;fill:#FFFFFF;" d="M265.226,154.713c-0.327,0.805-1.268,1.289-2.103,1.081
					c-0.835-0.208-1.246-1.029-0.919-1.833c0.327-0.805,1.268-1.289,2.103-1.081C265.141,153.087,265.553,153.908,265.226,154.713z"
					/>
			</g>
			<g>
				<path style="fill:#263238;" d="M241.815,172.386c-0.214,0-0.388-0.173-0.388-0.388c0-0.214,0.174-0.388,0.388-0.388
					c1.508,0,2.805-1.227,2.891-2.734l0.745-13.043c0.107-1.89-0.531-3.669-1.8-5.012c-1.265-1.339-2.998-2.076-4.882-2.076
					c-3.933,0-7.314,3.199-7.539,7.132l-0.746,13.043c-0.041,0.722,0.2,1.398,0.68,1.906c0.479,0.506,1.138,0.785,1.857,0.785
					c0.214,0,0.388,0.173,0.388,0.388c0,0.214-0.174,0.388-0.388,0.388c-0.936,0-1.795-0.365-2.421-1.028
					c-0.628-0.664-0.943-1.545-0.89-2.482l0.746-13.043c0.247-4.336,3.977-7.863,8.313-7.863c2.1,0,4.033,0.824,5.446,2.319
					c1.416,1.499,2.129,3.484,2.009,5.588l-0.745,13.043C245.37,170.831,243.727,172.386,241.815,172.386z"/>
				<path style="fill:#263238;" d="M233.665,171.998c-0.036,0.627-0.353,1.135-0.709,1.135c-0.356,0-0.615-0.508-0.579-1.135
					c0.036-0.627,0.353-1.135,0.709-1.135C233.441,170.864,233.701,171.372,233.665,171.998z"/>
				<path style="fill:#263238;" d="M242.459,171.998c-0.036,0.627-0.353,1.135-0.709,1.135c-0.356,0-0.615-0.508-0.579-1.135
					c0.036-0.627,0.353-1.135,0.709-1.135C242.235,170.864,242.495,171.372,242.459,171.998z"/>
			</g>
		</g>
	</g>
</g>
<g id="Heart">
	<g>
		<path style="fill:#407BFF;" d="M161.944,93.044l-0.713-0.515c1.56-2.159,3.566-3.877,5.967-5.107
			c4.002-2.052,8.565-2.421,12.843-1.041l-0.27,0.837c-4.058-1.307-8.379-0.956-12.173,0.987
			C165.324,89.37,163.421,90.998,161.944,93.044z"/>
		<path style="fill:#407BFF;" d="M158.917,101.962l-0.879-0.025c0.046-1.584,0.319-3.164,0.813-4.696l0.838,0.27
			C159.221,98.963,158.961,100.461,158.917,101.962z"/>
		<path style="fill:#407BFF;" d="M205.929,102.697c-3.273-7.201-11.85-10.134-18.809-6.568c-3.505-6.839-11.945-9.494-18.748-5.849
			c-6.677,3.578-8.988,12.064-5.532,18.806l9.009,17.577c1.841,3.593,6.247,5.013,9.84,3.171l17.637-9.039
			C205.918,117.416,208.995,109.442,205.929,102.697z"/>
	</g>
</g>
</svg>
