<?xml version="1.0" encoding="utf-8"?>
<!-- Generator: Adobe Illustrator 27.5.0, SVG Export Plug-In . SVG Version: 6.00 Build 0)  -->
<svg version="1.1" xmlns="http://www.w3.org/2000/svg" xmlns:xlink="http://www.w3.org/1999/xlink" x="0px" y="0px"
	 viewBox="0 0 500 500" style="enable-background:new 0 0 500 500;" xml:space="preserve">
<g id="Background_2">
	<g>
		<g>
			<g>
				<g>
					<rect y="382.398" style="fill:#D1E3FF;" width="500" height="0.25"/>
					<rect x="398.387" y="393.278" style="fill:#D1E3FF;" width="24.834" height="0.25"/>
					<rect x="430.556" y="393.153" style="fill:#D1E3FF;" width="8.39" height="0.25"/>
					<rect x="280.036" y="394.833" style="fill:#D1E3FF;" width="51.989" height="0.25"/>
					<rect x="260.025" y="397.542" style="fill:#D1E3FF;" width="7.753" height="0.25"/>
					<rect x="98.591" y="389.625" style="fill:#D1E3FF;" width="13.356" height="0.25"/>
					<rect x="117.5" y="389.625" style="fill:#D1E3FF;" width="67.76" height="0.25"/>
					<rect x="80.358" y="395.667" style="fill:#D1E3FF;" width="47.142" height="0.25"/>
					<path style="fill:#D1E3FF;" d="M237.014,337.8H43.915c-3.147,0-5.708-2.561-5.708-5.708V60.66c0-3.147,2.561-5.708,5.708-5.708
						h193.099c3.146,0,5.707,2.561,5.707,5.708v271.432C242.721,335.239,240.16,337.8,237.014,337.8z M43.915,55.203
						c-3.01,0-5.458,2.448-5.458,5.458v271.432c0,3.01,2.448,5.458,5.458,5.458h193.099c3.009,0,5.457-2.448,5.457-5.458V60.66
						c0-3.009-2.448-5.458-5.457-5.458H43.915z"/>
					<path style="fill:#D1E3FF;" d="M453.31,337.8H260.212c-3.146,0-5.707-2.561-5.707-5.708V60.66c0-3.147,2.561-5.708,5.707-5.708
						H453.31c3.148,0,5.708,2.561,5.708,5.708v271.432C459.019,335.239,456.458,337.8,453.31,337.8z M260.212,55.203
						c-3.009,0-5.457,2.448-5.457,5.458v271.432c0,3.01,2.448,5.458,5.457,5.458H453.31c3.01,0,5.458-2.448,5.458-5.458V60.66
						c0-3.009-2.448-5.458-5.458-5.458H260.212z"/>
				</g>
			</g>
		</g>
		<g>
			<g>
				<g>
					
						<rect x="341.751" y="318.281" transform="matrix(-1 -1.224647e-16 1.224647e-16 -1 718.8332 700.6794)" style="fill:#D1E3FF;" width="35.33" height="64.117"/>
					<rect x="377.082" y="318.281" style="fill:#E3EEFF;" width="42.153" height="64.117"/>
					
						<rect x="341.751" y="323.701" transform="matrix(-1 -1.224647e-16 1.224647e-16 -1 761.3547 650.3069)" style="opacity:0.7;fill:#D1E3FF;" width="77.852" height="2.904"/>
				</g>
				<g>
					
						<rect x="339.802" y="311.565" transform="matrix(-1 -1.224647e-16 1.224647e-16 -1 716.8834 636.4895)" style="fill:#D1E3FF;" width="37.28" height="13.359"/>
					<rect x="377.082" y="311.565" style="fill:#E3EEFF;" width="44.102" height="13.359"/>
				</g>
			</g>
			<g>
				<rect x="75.135" y="73.99" style="fill:#D1E3FF;" width="118.927" height="141.897"/>
				<rect x="77.677" y="73.99" style="fill:#E3EEFF;" width="121.826" height="141.897"/>
				<rect x="75.135" y="215.887" style="fill:#D1E3FF;" width="118.927" height="10.111"/>
				<rect x="86.742" y="215.887" style="fill:#E3EEFF;" width="121.826" height="10.111"/>
				
					<rect x="75.259" y="91.643" transform="matrix(-1.836970e-16 1 -1 -1.836970e-16 283.5287 6.3488)" style="fill:#F5FCFF;" width="126.662" height="106.591"/>
				<polygon style="fill:#FFFFFF;" points="98.381,208.27 143.09,81.608 164.195,81.608 119.486,208.27 				"/>
				<path style="fill:#E2EEFF;" d="M88.821,165.296c-0.3,0-0.544-0.244-0.544-0.544V86.564c0-0.3,0.244-0.544,0.544-0.544
					c0.3,0,0.544,0.244,0.544,0.544v78.188C89.365,165.053,89.122,165.296,88.821,165.296z"/>
				<polygon style="fill:#FFFFFF;" points="124.02,208.27 168.729,81.608 176.957,81.608 132.248,208.27 				"/>
				
					<rect x="128.071" y="144.455" transform="matrix(-1.836970e-16 1 -1 -1.836970e-16 336.3406 -46.4631)" style="fill:#D1E3FF;" width="126.662" height="0.967"/>
				<polygon style="fill:#D1E3FF;" points="201.304,91.353 82.377,91.353 81.676,84.569 200.603,84.569 				"/>
				<polygon style="fill:#D1E3FF;" points="201.304,96.319 82.377,96.319 81.676,89.535 200.603,89.535 				"/>
				<polygon style="fill:#D1E3FF;" points="201.304,102.279 82.377,102.279 81.676,95.494 200.603,95.494 				"/>
				<polygon style="fill:#D1E3FF;" points="201.304,108.91 82.377,108.91 81.676,102.125 200.603,102.125 				"/>
				<polygon style="fill:#D1E3FF;" points="201.304,116.855 82.377,116.855 81.676,110.071 200.603,110.071 				"/>
				<polygon style="fill:#D1E3FF;" points="201.304,125.794 82.377,125.794 81.676,119.009 200.603,119.009 				"/>
			</g>
			<g>
				<rect x="291.432" y="73.99" style="fill:#D1E3FF;" width="118.927" height="141.897"/>
				<rect x="293.975" y="73.99" style="fill:#E3EEFF;" width="121.826" height="141.897"/>
				<rect x="291.432" y="215.887" style="fill:#D1E3FF;" width="118.927" height="10.111"/>
				<rect x="303.039" y="215.887" style="fill:#E3EEFF;" width="121.826" height="10.111"/>
				
					<rect x="291.557" y="91.643" transform="matrix(-1.836970e-16 1 -1 -1.836970e-16 499.8266 -209.9491)" style="fill:#F5FCFF;" width="126.662" height="106.591"/>
				<polygon style="fill:#FFFFFF;" points="314.679,208.27 359.388,81.608 380.493,81.608 335.784,208.27 				"/>
				<path style="fill:#E2EEFF;" d="M305.119,165.296c-0.301,0-0.544-0.244-0.544-0.544V86.564c0-0.3,0.243-0.544,0.544-0.544
					c0.301,0,0.544,0.244,0.544,0.544v78.188C305.663,165.053,305.42,165.296,305.119,165.296z"/>
				<polygon style="fill:#FFFFFF;" points="340.318,208.27 385.027,81.608 393.255,81.608 348.546,208.27 				"/>
				
					<rect x="344.369" y="144.455" transform="matrix(-1.836970e-16 1 -1 -1.836970e-16 552.6385 -262.761)" style="fill:#D1E3FF;" width="126.662" height="0.967"/>
				<polygon style="fill:#D1E3FF;" points="417.602,91.353 298.675,91.353 297.974,84.569 416.901,84.569 				"/>
				<polygon style="fill:#D1E3FF;" points="417.602,96.319 298.675,96.319 297.974,89.535 416.901,89.535 				"/>
				<polygon style="fill:#D1E3FF;" points="417.602,102.279 298.675,102.279 297.974,95.494 416.901,95.494 				"/>
				<polygon style="fill:#D1E3FF;" points="417.602,108.91 298.675,108.91 297.974,102.125 416.901,102.125 				"/>
				<polygon style="fill:#D1E3FF;" points="417.602,116.855 298.675,116.855 297.974,110.071 416.901,110.071 				"/>
				<polygon style="fill:#D1E3FF;" points="417.602,125.794 298.675,125.794 297.974,119.009 416.901,119.009 				"/>
			</g>
			<g>
				<g>
					<rect x="294.285" y="292.456" style="fill:#D1E3FF;" width="23.746" height="89.943"/>
					<polygon style="fill:#EEF9FF;" points="313.521,382.398 318.031,382.398 318.031,371.383 308.792,371.383 					"/>
					<rect x="63.805" y="292.456" style="fill:#D1E3FF;" width="23.746" height="89.943"/>
					<rect x="83.615" y="292.456" style="fill:#EEF9FF;" width="234.416" height="83.884"/>
					
						<rect x="228.484" y="270.508" transform="matrix(6.123234e-17 -1 1 6.123234e-17 -68.1712 585.04)" style="fill:#D1E3FF;" width="59.9" height="112.195"/>
					
						<rect x="113.262" y="270.508" transform="matrix(6.123234e-17 -1 1 6.123234e-17 -183.394 469.8172)" style="fill:#D1E3FF;" width="59.9" height="112.195"/>
					
						<rect x="255.101" y="309.791" transform="matrix(-1.836970e-16 1 -1 -1.836970e-16 624.3234 107.4545)" style="fill:#D1E3FF;" width="6.667" height="112.195"/>
					
						<rect x="139.878" y="309.791" transform="matrix(-1.836970e-16 1 -1 -1.836970e-16 509.1006 222.6772)" style="fill:#D1E3FF;" width="6.667" height="112.195"/>
					<path style="fill:#EEF9FF;" d="M182.733,300.244H103.69c-3.552,0-6.947-1.46-9.39-4.039l0,0h97.822l0,0
						C189.68,298.784,186.285,300.244,182.733,300.244z"/>
					<path style="fill:#EEF9FF;" d="M298.373,300.244h-79.043c-3.552,0-6.947-1.46-9.39-4.039l0,0h97.822h0
						C305.32,298.784,301.925,300.244,298.373,300.244z"/>
					<polygon style="fill:#EEF9FF;" points="88.125,382.398 83.615,382.398 83.615,371.383 92.854,371.383 					"/>
				</g>
				<g>
					<rect x="229.12" y="237.237" style="opacity:0.4;fill:#D1E3FF;" width="26.435" height="55.218"/>
					<polygon style="fill:#D1E3FF;" points="277.768,292.456 233.024,292.456 228.809,232.833 273.553,232.833 					"/>
					<polygon style="fill:#F3F8FF;" points="282.861,292.456 234.295,292.456 230.079,232.833 278.645,232.833 					"/>
					<polygon style="fill:#FFFFFF;" points="236.538,290.177 232.645,235.111 276.402,235.111 280.295,290.177 					"/>
					<polygon style="fill:#F3F8FF;" points="247.13,277.845 244.98,247.443 265.81,247.443 267.96,277.845 					"/>
				</g>
				<g>
					<circle style="fill:#E3EEFF;" cx="159.354" cy="271.052" r="11.624"/>
					<circle style="fill:#E3EEFF;" cx="179.251" cy="276.592" r="11.624"/>
					
						<ellipse transform="matrix(0.9246 -0.3809 0.3809 0.9246 -88.7259 95.1633)" style="fill:#E3EEFF;" cx="196.071" cy="271.751" rx="7.75" ry="7.751"/>
					
						<ellipse transform="matrix(0.1598 -0.9872 0.9872 0.1598 -116.9515 390.5955)" style="fill:#E3EEFF;" cx="170.978" cy="264.001" rx="7.751" ry="7.75"/>
					<path style="fill:#D1E3FF;" d="M140.772,274.513c0,0,0.91,17.943,35.779,17.943s35.779-17.943,35.779-17.943H140.772z"/>
				</g>
				<g>
					<path style="fill:#D1E3FF;" d="M108.565,286.311c0,0-11.359-19.581,4.4-35.168c0,0,4.113,2.681,4.05,6.284
						c-0.063,3.604-4.405,4.516-3.472,7.523c0.933,3.008,5.032,5.958,2.342,8.445c-2.69,2.486,0.434,4.699,0.251,7.746
						C115.954,284.187,108.565,286.311,108.565,286.311z"/>
					<path style="fill:#D1E3FF;" d="M109.427,288.101c0,0,4.605-22.163-15.265-31.986c0,0-3.058,3.841-1.862,7.241
						c1.196,3.4,5.604,2.896,5.667,6.045c0.063,3.148-2.896,7.241,0.441,8.752c3.337,1.511,1.07,4.596,2.204,7.43
						C101.745,288.416,109.427,288.101,109.427,288.101z"/>
					<path style="fill:#E3EEFF;" d="M92.023,277.848c0,0,0.378,14.608,14.86,14.608c14.482,0,14.86-14.608,14.86-14.608H92.023z"/>
				</g>
			</g>
		</g>
	</g>
</g>
<g id="Background_1" style="display:none;">
	<path style="display:inline;opacity:0.4;fill:#D4E8FF;" d="M138.091,278.898C61.85,236.443,56.685,79.722,167.905,93.495
		c38.904,4.818,67.191,40.09,103.412,51.948c41.858,13.703,72.217-8.74,112.034-6.348c94.577,5.681,97.837,123.493,17.047,154.091
		c-43.543,16.491-85.565,13.402-129.295,7.142C232.976,294.869,173.974,298.879,138.091,278.898z"/>
</g>
<g id="Objects">
	<g>
		<ellipse style="fill:#F0F6FF;" cx="250" cy="416.238" rx="193.889" ry="11.323"/>
		<g>
			<g>
				<g>
					<g>
						<path style="fill:#0053CC;" d="M180.455,272.435c-1.288,0-2.333-1.044-2.333-2.332c0-1.288,1.044-2.332,2.333-2.332
							c5.713,0,10.54-8.192,10.54-17.889c0-1.288,1.044-2.333,2.332-2.333c1.288,0,2.333,1.044,2.333,2.333
							C195.66,262.529,188.981,272.435,180.455,272.435z"/>
						<path style="fill:#0053CC;" d="M215.742,272.435c-1.288,0-2.333-1.044-2.333-2.332c0-1.288,1.044-2.332,2.333-2.332
							c5.713,0,10.54-8.192,10.54-17.889c0-1.288,1.044-2.333,2.332-2.333c1.288,0,2.333,1.044,2.333,2.333
							C230.947,262.529,224.269,272.435,215.742,272.435z"/>
						<path style="fill:#0053CC;" d="M251.029,272.435c-1.288,0-2.333-1.044-2.333-2.332c0-1.288,1.044-2.332,2.333-2.332
							c5.714,0,10.541-8.192,10.541-17.889c0-1.288,1.044-2.333,2.332-2.333c1.288,0,2.332,1.044,2.332,2.333
							C266.234,262.529,259.556,272.435,251.029,272.435z"/>
						<path style="fill:#0053CC;" d="M286.316,272.435c-1.288,0-2.332-1.044-2.332-2.332c0-1.288,1.044-2.332,2.332-2.332
							c5.714,0,10.541-8.192,10.541-17.889c0-1.288,1.044-2.333,2.332-2.333c1.288,0,2.332,1.044,2.332,2.333
							C301.521,262.529,294.843,272.435,286.316,272.435z"/>
						<path style="fill:#0053CC;" d="M321.604,272.435c-1.288,0-2.332-1.044-2.332-2.332c0-1.288,1.044-2.332,2.332-2.332
							c5.713,0,10.54-8.192,10.54-17.889c0-1.288,1.044-2.333,2.332-2.333c1.288,0,2.332,1.044,2.332,2.333
							C336.809,262.529,330.131,272.435,321.604,272.435z"/>
						<path style="fill:#0053CC;" d="M356.892,272.435c-1.288,0-2.332-1.044-2.332-2.332c0-1.288,1.044-2.332,2.332-2.332
							c5.713,0,10.54-8.192,10.54-17.889c0-1.288,1.044-2.333,2.332-2.333c1.288,0,2.332,1.044,2.332,2.333
							C372.096,262.529,365.418,272.435,356.892,272.435z"/>
					</g>
					<g>
						<path style="opacity:0.7;fill:#318FFF;" d="M158.338,252.266h227.185c6.158,0,11.643,5.038,12.189,11.196l12.577,141.825
							c0.546,6.158-4.045,11.196-10.203,11.196H172.901c-6.158,0-11.643-5.038-12.189-11.196l-12.578-141.825
							C147.589,257.304,152.18,252.266,158.338,252.266z"/>
						<path style="fill:#318FFF;" d="M383.626,252.266H156.441c-6.158,0-11.423,5.038-11.701,11.196l-6.404,141.825
							c-0.278,6.158,4.533,11.196,10.69,11.196h227.185c6.158,0,11.423-5.038,11.701-11.196l6.404-141.825
							C394.594,257.304,389.784,252.266,383.626,252.266z"/>
						<path style="fill:#DCE9FF;" d="M160.614,379.009l5.288-117.127c0.107-2.364,2.109-4.28,4.473-4.28h198.833
							c2.364,0,4.193,1.916,4.087,4.28l-5.288,117.127c-0.107,2.364-2.109,4.28-4.473,4.28H164.701
							C162.337,383.289,160.508,381.372,160.614,379.009z"/>
						<path style="fill:#DCE9FF;" d="M154.975,388.561l5.554-123.009c0.112-2.483,2.215-4.495,4.698-4.495h208.819
							c2.482,0,4.404,2.013,4.292,4.495l-5.554,123.009c-0.112,2.483-2.215,4.495-4.698,4.495H159.267
							C156.785,393.056,154.863,391.044,154.975,388.561z"/>
						<path style="fill:#FFFFFF;" d="M149.839,398.482l5.793-128.305c0.117-2.589,2.311-4.689,4.9-4.689h217.808
							c2.589,0,4.594,2.099,4.477,4.689l-5.793,128.305c-0.117,2.589-2.311,4.688-4.9,4.688H154.316
							C151.727,403.171,149.722,401.072,149.839,398.482z"/>
						<g style="opacity:0.8;">
							<path style="fill:#DCE9FF;" d="M190.218,322.129h-23.114c-2.157,0-3.841-1.765-3.744-3.921l1.044-23.114
								c0.097-2.157,1.941-3.921,4.098-3.921h23.114c2.157,0,3.841,1.764,3.744,3.921l-1.044,23.114
								C194.218,320.364,192.374,322.129,190.218,322.129z"/>
							<path style="fill:#DCE9FF;" d="M225.505,322.129h-23.114c-2.157,0-3.841-1.765-3.744-3.921l1.044-23.114
								c0.097-2.157,1.941-3.921,4.098-3.921h23.114c2.157,0,3.841,1.764,3.744,3.921l-1.044,23.114
								C229.506,320.364,227.662,322.129,225.505,322.129z"/>
							<path style="fill:#DCE9FF;" d="M260.792,322.129h-23.114c-2.157,0-3.841-1.765-3.744-3.921l1.044-23.114
								c0.097-2.157,1.941-3.921,4.098-3.921h23.114c2.157,0,3.841,1.764,3.744,3.921l-1.044,23.114
								C264.793,320.364,262.949,322.129,260.792,322.129z"/>
							<path style="fill:#DCE9FF;" d="M296.08,322.129h-23.114c-2.157,0-3.841-1.765-3.744-3.921l1.044-23.114
								c0.097-2.157,1.941-3.921,4.098-3.921h23.114c2.157,0,3.841,1.764,3.744,3.921l-1.044,23.114
								C300.081,320.364,298.236,322.129,296.08,322.129z"/>
							<path style="fill:#DCE9FF;" d="M331.367,322.129h-23.114c-2.157,0-3.841-1.765-3.744-3.921l1.044-23.114
								c0.097-2.157,1.941-3.921,4.098-3.921h23.114c2.157,0,3.841,1.764,3.744,3.921l-1.044,23.114
								C335.368,320.364,333.524,322.129,331.367,322.129z"/>
							<path style="fill:#DCE9FF;" d="M366.655,322.129h-23.114c-2.157,0-3.841-1.765-3.744-3.921l1.044-23.114
								c0.097-2.157,1.941-3.921,4.098-3.921h23.114c2.157,0,3.841,1.764,3.744,3.921l-1.044,23.114
								C370.655,320.364,368.811,322.129,366.655,322.129z"/>
							<g>
								<path style="fill:#318FFF;" d="M356.857,273.183L356.857,273.183c-1.751,0-3.119-1.431-3.04-3.18l0-0.006
									c0.074-1.635,1.474-2.973,3.111-2.973l0,0c1.751,0,3.118,1.431,3.039,3.18l0,0.007
									C359.893,271.845,358.493,273.183,356.857,273.183z"/>
								<path style="fill:#318FFF;" d="M321.569,273.183L321.569,273.183c-1.751,0-3.119-1.431-3.04-3.18l0-0.006
									c0.074-1.635,1.474-2.973,3.111-2.973l0,0c1.751,0,3.118,1.431,3.039,3.18l0,0.007
									C324.605,271.845,323.206,273.183,321.569,273.183z"/>
								<path style="fill:#318FFF;" d="M286.282,273.183L286.282,273.183c-1.751,0-3.119-1.431-3.04-3.18l0-0.006
									c0.074-1.635,1.474-2.973,3.111-2.973l0,0c1.751,0,3.118,1.431,3.039,3.18l0,0.007
									C289.318,271.845,287.918,273.183,286.282,273.183z"/>
								<path style="fill:#318FFF;" d="M250.994,273.183L250.994,273.183c-1.751,0-3.119-1.431-3.04-3.18l0-0.006
									c0.074-1.635,1.474-2.973,3.111-2.973l0,0c1.751,0,3.118,1.431,3.039,3.18l0,0.007
									C254.03,271.845,252.631,273.183,250.994,273.183z"/>
								<path style="fill:#318FFF;" d="M215.707,273.183L215.707,273.183c-1.751,0-3.119-1.431-3.04-3.18l0-0.006
									c0.074-1.635,1.474-2.973,3.111-2.973l0,0c1.751,0,3.118,1.431,3.039,3.18l0,0.007
									C218.743,271.845,217.344,273.183,215.707,273.183z"/>
								<path style="fill:#318FFF;" d="M180.42,273.183L180.42,273.183c-1.751,0-3.119-1.431-3.04-3.18l0-0.006
									c0.074-1.635,1.474-2.973,3.111-2.973l0,0c1.751,0,3.118,1.431,3.039,3.18l0,0.007
									C183.456,271.845,182.056,273.183,180.42,273.183z"/>
							</g>
						</g>
						<g>
							<path style="fill:#0053CC;" d="M189.24,284.358h-17.748c-1.078,0-1.921-0.882-1.872-1.961l0,0
								c0.049-1.078,0.971-1.96,2.049-1.96h17.748c1.078,0,1.921,0.882,1.872,1.96l0,0
								C191.241,283.476,190.318,284.358,189.24,284.358z"/>
							<path style="fill:#0053CC;" d="M224.528,284.358h-17.748c-1.078,0-1.921-0.882-1.872-1.961l0,0
								c0.049-1.078,0.971-1.96,2.049-1.96h17.748c1.078,0,1.921,0.882,1.872,1.96l0,0
								C226.528,283.476,225.606,284.358,224.528,284.358z"/>
							<path style="fill:#0053CC;" d="M259.815,284.358h-17.748c-1.078,0-1.921-0.882-1.872-1.961l0,0
								c0.049-1.078,0.971-1.96,2.049-1.96h17.748c1.078,0,1.921,0.882,1.872,1.96l0,0
								C261.815,283.476,260.893,284.358,259.815,284.358z"/>
							<path style="fill:#0053CC;" d="M295.102,284.358h-17.748c-1.078,0-1.921-0.882-1.872-1.961l0,0
								c0.049-1.078,0.971-1.96,2.049-1.96h17.748c1.078,0,1.921,0.882,1.872,1.96l0,0
								C297.103,283.476,296.181,284.358,295.102,284.358z"/>
							<path style="fill:#0053CC;" d="M330.39,284.358h-17.748c-1.078,0-1.921-0.882-1.872-1.961l0,0
								c0.049-1.078,0.971-1.96,2.049-1.96h17.748c1.078,0,1.921,0.882,1.872,1.96l0,0
								C332.39,283.476,331.468,284.358,330.39,284.358z"/>
							<path style="fill:#0053CC;" d="M365.677,284.358h-17.748c-1.078,0-1.921-0.882-1.872-1.961l0,0
								c0.049-1.078,0.971-1.96,2.049-1.96h17.748c1.078,0,1.921,0.882,1.872,1.96l0,0
								C367.678,283.476,366.755,284.358,365.677,284.358z"/>
						</g>
						<g style="opacity:0.8;">
							<path style="fill:#DCE9FF;" d="M188.598,357.997h-23.114c-2.157,0-3.841-1.764-3.744-3.921l1.044-23.114
								c0.097-2.157,1.941-3.921,4.098-3.921h23.114c2.157,0,3.841,1.764,3.744,3.921l-1.044,23.114
								C192.599,356.232,190.755,357.997,188.598,357.997z"/>
							<path style="fill:#DCE9FF;" d="M223.886,357.997h-23.114c-2.157,0-3.841-1.764-3.744-3.921l1.044-23.114
								c0.097-2.157,1.941-3.921,4.098-3.921h23.114c2.157,0,3.841,1.764,3.744,3.921l-1.044,23.114
								C227.886,356.232,226.042,357.997,223.886,357.997z"/>
							<path style="fill:#DCE9FF;" d="M259.173,357.997h-23.114c-2.157,0-3.841-1.764-3.744-3.921l1.044-23.114
								c0.097-2.157,1.941-3.921,4.098-3.921h23.114c2.157,0,3.842,1.764,3.744,3.921l-1.044,23.114
								C263.174,356.232,261.33,357.997,259.173,357.997z"/>
							<path style="fill:#DCE9FF;" d="M294.46,357.997h-23.114c-2.157,0-3.841-1.764-3.744-3.921l1.044-23.114
								c0.097-2.157,1.942-3.921,4.098-3.921h23.114c2.157,0,3.841,1.764,3.744,3.921l-1.044,23.114
								C298.461,356.232,296.617,357.997,294.46,357.997z"/>
							<path style="fill:#DCE9FF;" d="M329.748,357.997h-23.114c-2.157,0-3.842-1.764-3.744-3.921l1.044-23.114
								c0.097-2.157,1.942-3.921,4.098-3.921h23.114c2.157,0,3.842,1.764,3.744,3.921l-1.044,23.114
								C333.749,356.232,331.904,357.997,329.748,357.997z"/>
							<path style="fill:#DCE9FF;" d="M365.035,357.997h-23.114c-2.157,0-3.841-1.764-3.744-3.921l1.044-23.114
								c0.097-2.157,1.942-3.921,4.098-3.921h23.114c2.157,0,3.841,1.764,3.744,3.921l-1.044,23.114
								C369.036,356.232,367.192,357.997,365.035,357.997z"/>
						</g>
						<g style="opacity:0.8;">
							<path style="fill:#DCE9FF;" d="M186.979,393.865h-23.114c-2.157,0-3.842-1.764-3.744-3.921l1.044-23.114
								c0.097-2.157,1.942-3.921,4.098-3.921h23.114c2.157,0,3.842,1.764,3.744,3.921l-1.044,23.114
								C190.979,392.1,189.135,393.865,186.979,393.865z"/>
							<path style="fill:#DCE9FF;" d="M222.266,393.865h-23.114c-2.157,0-3.842-1.764-3.744-3.921l1.044-23.114
								c0.097-2.157,1.942-3.921,4.098-3.921h23.114c2.157,0,3.842,1.764,3.744,3.921l-1.044,23.114
								C226.267,392.1,224.423,393.865,222.266,393.865z"/>
							<path style="fill:#DCE9FF;" d="M257.554,393.865H234.44c-2.157,0-3.841-1.764-3.744-3.921l1.044-23.114
								c0.097-2.157,1.942-3.921,4.098-3.921h23.114c2.157,0,3.841,1.764,3.744,3.921l-1.044,23.114
								C261.554,392.1,259.71,393.865,257.554,393.865z"/>
							<path style="fill:#DCE9FF;" d="M292.841,393.865h-23.114c-2.157,0-3.841-1.764-3.744-3.921l1.044-23.114
								c0.097-2.157,1.942-3.921,4.098-3.921h23.114c2.157,0,3.841,1.764,3.744,3.921l-1.044,23.114
								C296.842,392.1,294.998,393.865,292.841,393.865z"/>
							<path style="fill:#DCE9FF;" d="M328.128,393.865h-23.114c-2.157,0-3.841-1.764-3.744-3.921l1.044-23.114
								c0.097-2.157,1.942-3.921,4.098-3.921h23.114c2.157,0,3.841,1.764,3.744,3.921l-1.044,23.114
								C332.129,392.1,330.285,393.865,328.128,393.865z"/>
							<path style="fill:#DCE9FF;" d="M363.416,393.865h-23.114c-2.157,0-3.841-1.764-3.744-3.921l1.044-23.114
								c0.097-2.157,1.942-3.921,4.098-3.921h23.114c2.157,0,3.841,1.764,3.744,3.921l-1.044,23.114
								C367.416,392.1,365.572,393.865,363.416,393.865z"/>
						</g>
					</g>
					<g>
						<path style="fill:#0053CC;" d="M180.455,272.435c-8.526,0-15.205-9.906-15.205-22.553s6.679-22.553,15.205-22.553
							c8.526,0,15.205,9.907,15.205,22.553c0,1.288-1.045,2.332-2.333,2.332c-1.288,0-2.332-1.044-2.332-2.332
							c0-9.696-4.827-17.888-10.54-17.888c-5.713,0-10.54,8.192-10.54,17.888s4.827,17.889,10.54,17.889
							c1.288,0,2.333,1.044,2.333,2.332C182.787,271.392,181.743,272.435,180.455,272.435z"/>
						<path style="fill:#0053CC;" d="M215.742,272.435c-8.526,0-15.205-9.906-15.205-22.553s6.679-22.553,15.205-22.553
							s15.205,9.907,15.205,22.553c0,1.288-1.045,2.332-2.333,2.332c-1.288,0-2.332-1.044-2.332-2.332
							c0-9.696-4.827-17.888-10.54-17.888c-5.713,0-10.54,8.192-10.54,17.888s4.827,17.889,10.54,17.889
							c1.288,0,2.333,1.044,2.333,2.332C218.075,271.392,217.03,272.435,215.742,272.435z"/>
						<path style="fill:#0053CC;" d="M251.029,272.435c-8.526,0-15.205-9.906-15.205-22.553s6.679-22.553,15.205-22.553
							c8.526,0,15.205,9.907,15.205,22.553c0,1.288-1.044,2.332-2.332,2.332c-1.288,0-2.332-1.044-2.332-2.332
							c0-9.696-4.827-17.888-10.541-17.888c-5.713,0-10.54,8.192-10.54,17.888s4.827,17.889,10.54,17.889
							c1.288,0,2.332,1.044,2.332,2.332C253.361,271.392,252.317,272.435,251.029,272.435z"/>
						<path style="fill:#0053CC;" d="M286.316,272.435c-8.526,0-15.204-9.906-15.204-22.553s6.678-22.553,15.204-22.553
							c8.526,0,15.205,9.907,15.205,22.553c0,1.288-1.044,2.332-2.332,2.332c-1.288,0-2.332-1.044-2.332-2.332
							c0-9.696-4.827-17.888-10.541-17.888c-5.713,0-10.54,8.192-10.54,17.888s4.827,17.889,10.54,17.889
							c1.288,0,2.332,1.044,2.332,2.332C288.648,271.392,287.604,272.435,286.316,272.435z"/>
						<path style="fill:#0053CC;" d="M321.604,272.435c-8.526,0-15.205-9.906-15.205-22.553s6.679-22.553,15.205-22.553
							s15.204,9.907,15.204,22.553c0,1.288-1.044,2.332-2.332,2.332c-1.288,0-2.332-1.044-2.332-2.332
							c0-9.696-4.827-17.888-10.54-17.888c-5.714,0-10.541,8.192-10.541,17.888s4.827,17.889,10.541,17.889
							c1.288,0,2.332,1.044,2.332,2.332C323.936,271.392,322.893,272.435,321.604,272.435z"/>
						<path style="fill:#0053CC;" d="M356.892,272.435c-8.526,0-15.204-9.906-15.204-22.553s6.678-22.553,15.204-22.553
							c8.526,0,15.204,9.907,15.204,22.553c0,1.288-1.044,2.332-2.332,2.332c-1.288,0-2.332-1.044-2.332-2.332
							c0-9.696-4.827-17.888-10.54-17.888c-5.713,0-10.54,8.192-10.54,17.888s4.827,17.889,10.54,17.889
							c1.288,0,2.332,1.044,2.332,2.332C359.224,271.392,358.18,272.435,356.892,272.435z"/>
					</g>
				</g>
				<path style="fill:#318FFF;" d="M288.683,323.422c-8.16-1.622-17.327,0.266-20.593,8.87c-2.626,6.919,0.737,14.423,8.03,16.251
					c6.4,1.604,17.439-0.36,19.72-7.743c2.608-8.44-7.969-11.176-13.948-11.68c-1.795-0.151-1.785,2.648,0,2.799
					c2.714,0.229,5.809,0.379,8.205,1.868c5.036,3.131,2.945,8.152-1.32,10.552c-4.176,2.351-10.782,3.011-14.956,0.345
					c-4.596-2.936-4.746-9.379-2.017-13.575c3.611-5.551,10.195-6.17,16.135-4.989C289.698,326.47,290.451,323.773,288.683,323.422
					L288.683,323.422z"/>
				<g>
					<path style="fill:#0053CC;" d="M198.647,291.211c7.832,10.355,16.488,19.969,26.006,28.801
						c1.319,1.224,3.303-0.751,1.979-1.979c-9.338-8.665-17.883-18.074-25.568-28.235
						C199.991,288.38,197.559,289.773,198.647,291.211L198.647,291.211z"/>
					<path style="fill:#0053CC;" d="M201.543,318.836c5.893-10.49,16.229-19.437,25.978-26.288c1.463-1.028,0.066-3.456-1.413-2.417
						c-10.156,7.137-20.839,16.356-26.982,27.292C198.243,318.995,200.66,320.408,201.543,318.836L201.543,318.836z"/>
				</g>
				<g>
					<path style="fill:#318FFF;" d="M309.87,300.165c6.082,0,12.163,0,18.245,0c1.801,0,1.804-2.799,0-2.799
						c-6.082,0-12.163,0-18.245,0C308.069,297.366,308.066,300.165,309.87,300.165L309.87,300.165z"/>
					<path style="fill:#318FFF;" d="M309.663,305.348c3.525,0,7.049,0,10.574,0c1.801,0,1.804-2.799,0-2.799
						c-3.525,0-7.049,0-10.574,0C307.862,302.549,307.859,305.348,309.663,305.348L309.663,305.348z"/>
				</g>
				<g>
					<path style="fill:#318FFF;" d="M200.556,371.797c5.218,0,10.436,0,15.653,0c1.801,0,1.804-2.799,0-2.799
						c-5.218,0-10.436,0-15.653,0C198.755,368.998,198.752,371.797,200.556,371.797L200.556,371.797z"/>
					<path style="fill:#318FFF;" d="M199.986,377.81c6.773,0,13.546,0,20.318,0c1.801,0,1.804-2.799,0-2.799
						c-6.773,0-13.546,0-20.318,0C198.185,375.011,198.182,377.81,199.986,377.81L199.986,377.81z"/>
					<path style="fill:#0053CC;" d="M199.986,384.03c3.386,0,6.773,0,10.159,0c1.801,0,1.804-2.799,0-2.799
						c-3.386,0-6.773,0-10.159,0C198.185,381.231,198.182,384.03,199.986,384.03L199.986,384.03z"/>
				</g>
			</g>
			<g>
				<g>
					<path style="fill:#FF8B7B;" d="M90.187,214.792l4.731-0.215l-2.137,8.979c0,0-2.641-1.747-4.585-4.045
						c-0.812-0.96-0.711-2.392,0.241-3.212L90.187,214.792z"/>
					<polygon style="fill:#FF8B7B;" points="100.41,219.425 98.286,226.753 92.781,223.555 94.918,214.577 					"/>
				</g>
				<g>
					
						<rect x="100.88" y="175.905" transform="matrix(0.9957 -0.0922 0.0922 0.9957 -26.8682 11.0117)" style="fill:#0053CC;" width="9.722" height="240.769"/>
					
						<rect x="120.241" y="174.113" transform="matrix(0.9957 -0.0922 0.0922 0.9957 -26.6207 12.7893)" style="fill:#0053CC;" width="9.722" height="240.769"/>
					
						<rect x="110.561" y="175.009" transform="matrix(0.9957 -0.0922 0.0922 0.9957 -26.7445 11.9005)" style="fill:#056CE8;" width="9.722" height="240.769"/>
					<g>
						<polygon style="fill:#DCE9FF;" points="107.122,158.313 98.409,159.12 89.801,176.866 118.842,174.177 						"/>
						<line style="fill:#0053CC;" x1="98.409" y1="159.12" x2="98.409" y2="159.12"/>
					</g>
					<polygon style="fill:#0053CC;" points="102.098,151.514 98.409,159.12 107.122,158.313 					"/>
				</g>
				<g>
					<path style="fill:#FF8B7B;" d="M175.279,165.064c0.992,1.033,1.828,1.947,2.687,2.952c0.851,0.985,1.685,1.98,2.504,2.988
						c1.65,2.006,3.193,4.103,4.688,6.251c2.972,4.304,5.678,8.886,7.779,13.999c0.257,0.644,0.485,1.316,0.726,1.972l0.358,1.005
						c0.197,0.617,0.346,1.244,0.416,1.836c0.297,2.416-0.217,4.288-0.769,5.872c-1.168,3.146-2.801,5.432-4.483,7.595
						c-3.428,4.255-7.212,7.692-11.432,10.851l-3.774-4.023c2.928-3.771,5.858-7.765,8.124-11.691
						c1.112-1.945,2.071-3.984,2.432-5.594c0.178-0.782,0.139-1.43,0.052-1.489c-0.012-0.027-0.036-0.001-0.032,0.025l-0.333-0.73
						c-0.23-0.496-0.437-0.992-0.681-1.488c-1.998-3.975-4.567-7.904-7.399-11.691c-1.398-1.906-2.883-3.769-4.382-5.623
						c-0.749-0.927-1.514-1.843-2.289-2.744l-2.285-2.625L175.279,165.064z"/>
					<polygon style="fill:#FF8B7B;" points="167.925,219.532 172.191,227.958 176.357,224.373 172.937,218.376 					"/>
					<path style="fill:#FF8B7B;" d="M135.843,169.99c-2.593,4.939-5.286,9.823-8.081,14.652c-1.375,2.427-2.811,4.82-4.215,7.232
						l-2.15,3.593l-0.541,0.901c-0.269,0.432-0.569,0.943-0.832,1.283c-0.272,0.379-0.546,0.748-0.809,1.062
						c-0.268,0.336-0.535,0.654-0.798,0.947c-2.13,2.376-4.264,4.301-6.438,6.218c-2.193,1.873-4.382,3.691-6.635,5.42
						c-4.478,3.494-9.069,6.743-13.829,9.841l-3.43-4.32l11.858-11.665c1.94-1.958,3.894-3.887,5.742-5.867
						c1.85-1.95,3.695-3.959,5.136-5.88c0.188-0.239,0.353-0.469,0.504-0.692c0.171-0.232,0.294-0.437,0.416-0.635
						c0.153-0.222,0.173-0.335,0.272-0.496l0.462-0.937l1.857-3.762c1.267-2.492,2.503-5.002,3.799-7.479
						c2.547-4.978,5.198-9.902,7.947-14.77L135.843,169.99z"/>
					<path style="fill:#0F264C;" d="M163.906,136.223c-0.123,0.58,0.082,1.127,0.458,1.222c0.376,0.095,0.78-0.299,0.902-0.879
						c0.123-0.58-0.082-1.127-0.457-1.222C164.433,135.25,164.029,135.643,163.906,136.223z"/>
					<path style="fill:#FF5652;" d="M163.935,137.337c0,0,0.597,3.677,1.693,5.655c-1.219,0.701-2.855-0.173-2.855-0.173
						L163.935,137.337z"/>
					<path style="fill:#0F264C;" d="M165.441,132.701c-0.068,0-0.137-0.02-0.197-0.061c-0.045-0.03-1.097-0.735-2.488-0.164
						c-0.176,0.072-0.381-0.011-0.454-0.189c-0.073-0.178,0.012-0.381,0.189-0.454c1.753-0.722,3.095,0.197,3.151,0.236
						c0.157,0.11,0.195,0.326,0.086,0.483C165.66,132.648,165.551,132.701,165.441,132.701z"/>
					<path style="fill:#FF8B7B;" d="M143.682,138.432c1.261,5.374,2.693,15.222-0.929,18.808c0,0,1.68,5.452,11.666,5.452
						c10.981,0,5.037-5.451,5.037-5.451c-6.048-1.431-6.065-5.878-5.183-10.053L143.682,138.432z"/>
					<path style="fill:#9FC6FF;" d="M141.386,159.111c-0.854-1.726-1.796-3.701-0.028-4.319c1.946-0.681,12.714-1.375,16.486-0.097
						c3.772,1.278,2.851,4.778,2.851,4.778L141.386,159.111z"/>
					<path style="fill:#FFFFFF;" d="M127.002,410.02c-0.758,0-1.543-0.116-1.922-0.207c-0.066-0.016-0.117-0.069-0.13-0.136
						c-0.013-0.067,0.015-0.136,0.07-0.175c0.083-0.059,2.035-1.439,3.124-1.202c0.256,0.055,0.45,0.191,0.576,0.405
						c0.237,0.403,0.148,0.675,0.032,0.832C128.479,409.905,127.754,410.02,127.002,410.02z M125.566,409.556
						c1.1,0.188,2.604,0.183,2.906-0.226c0.029-0.04,0.118-0.159-0.052-0.449c-0.076-0.128-0.19-0.207-0.349-0.241
						C127.42,408.497,126.248,409.126,125.566,409.556z"/>
					<path style="fill:#FFFFFF;" d="M125.121,409.817c-0.032,0-0.063-0.009-0.091-0.025c-0.054-0.033-0.085-0.093-0.082-0.155
						c0.003-0.09,0.098-2.207,0.924-2.909c0.217-0.186,0.467-0.261,0.739-0.229c0.426,0.053,0.54,0.317,0.569,0.471
						c0.16,0.825-1.243,2.422-1.974,2.826C125.179,409.81,125.149,409.817,125.121,409.817z M126.488,406.84
						c-0.143,0-0.272,0.05-0.392,0.152c-0.529,0.45-0.714,1.692-0.775,2.307c0.722-0.565,1.61-1.774,1.516-2.263
						c-0.009-0.049-0.031-0.162-0.27-0.191C126.54,406.841,126.514,406.84,126.488,406.84z"/>
					<path style="fill:#FFFFFF;" d="M171.116,410.021c-0.879,0-1.788-0.113-2.259-0.206c-0.071-0.015-0.126-0.07-0.138-0.142
						c-0.012-0.071,0.021-0.143,0.083-0.18c0.369-0.216,3.629-2.083,4.416-0.791c0.221,0.362,0.143,0.617,0.037,0.768
						C172.962,409.891,172.057,410.021,171.116,410.021z M169.413,409.555c1.379,0.191,3.24,0.17,3.559-0.284
						c0.027-0.039,0.1-0.143-0.049-0.387C172.477,408.15,170.496,408.989,169.413,409.555z"/>
					<path style="fill:#FFFFFF;" d="M168.891,409.817c-0.035,0-0.069-0.01-0.098-0.03c-0.05-0.034-0.079-0.093-0.076-0.153
						c0.005-0.084,0.126-2.06,1.03-2.831c0.278-0.238,0.6-0.343,0.961-0.304c0.488,0.049,0.63,0.299,0.664,0.5
						c0.141,0.852-1.53,2.402-2.409,2.803C168.94,409.813,168.915,409.817,168.891,409.817z M170.568,406.84
						c-0.221,0-0.417,0.074-0.596,0.228c-0.594,0.507-0.808,1.698-0.878,2.27c0.884-0.537,2.018-1.766,1.933-2.281
						c-0.007-0.044-0.029-0.178-0.355-0.211C170.637,406.842,170.602,406.84,170.568,406.84z"/>
					<polygon style="fill:#FF8B7B;" points="160.813,409.644 168.159,409.644 168.234,392.632 160.887,392.632 					"/>
					<polygon style="fill:#FF8B7B;" points="116.704,409.644 124.051,409.644 127.086,392.632 119.74,392.632 					"/>
					<path style="fill:#14365B;" d="M124.54,408.793h-8.253c-0.3,0-0.552,0.209-0.606,0.502l-1.199,6.53
						c-0.124,0.677,0.433,1.318,1.126,1.306c2.879-0.049,4.273-0.219,7.902-0.219c2.233,0,6.842,0.232,9.926,0.232
						c3.016,0,3.369-3.049,2.096-3.325c-5.708-1.238-7.906-2.946-9.781-4.575C125.412,408.951,124.979,408.793,124.54,408.793z"/>
					<path style="fill:#14365B;" d="M168.078,408.793h-8.023c-0.3,0-0.552,0.209-0.606,0.502l-1.199,6.53
						c-0.124,0.677,0.415,1.318,1.107,1.307c2.892-0.049,7.068-0.219,10.705-0.219c4.253,0,7.935,0.232,12.923,0.232
						c3.016,0,3.735-3.049,2.462-3.325c-5.796-1.257-10.493-1.392-15.578-4.454C169.317,409.033,168.712,408.793,168.078,408.793z"
						/>
					<path style="fill:#0F264C;" d="M128.736,158.901c-6.824,1.579-13.997,20.351-13.997,20.351l14.195,9.478
						c0,0,4.956-7.329,8.534-15.529C141.218,164.609,135.713,157.287,128.736,158.901z"/>
					<path style="fill:#0A1B35;" d="M134.132,170.871l-5.868,17.409l0.667,0.45c0,0,2.677-3.97,5.53-9.33L134.132,170.871z"/>
					<path style="fill:#0F264C;" d="M174.567,191.717c-0.054,8.2-0.55,18.4-1.771,31.06h-39.3c-0.503-6.03,2.151-35.46-4.756-63.88
						c0,0,6.678-1.35,13.086-1.66c5.011-0.24,12.275-0.4,16.7,0c5.84,0.53,11.379,2.04,11.379,2.04s3.361,3.64,4.38,20.71
						C174.484,183.357,174.594,187.237,174.567,191.717z"/>
					<path style="fill:#0A1B35;" d="M174.567,191.717c-2.378-4.34-6.694-13.05-6.086-18.01l5.803,6.28
						C174.484,183.357,174.594,187.237,174.567,191.717z"/>
					<path style="fill:#0F264C;" d="M162.197,165.924c-0.62,6.967,15.25,23.838,15.25,23.838l12.721-10.361
						c0,0-5.23-9.064-11.89-15.504C170.842,156.705,162.895,158.076,162.197,165.924z"/>
					<g>
						<polygon style="fill:#EA7063;" points="168.232,392.636 168.195,401.405 160.846,401.405 160.883,392.636 						"/>
						<polygon style="fill:#EA7063;" points="119.737,392.636 127.087,392.636 125.518,401.405 118.169,401.405 						"/>
					</g>
					<path style="fill:#FF8B7B;" d="M145.004,130.154c-1.076,7.234-2.069,11.4,0.719,15.956c4.195,6.854,13.595,5.791,16.786-0.895
						c2.872-6.019,4.149-16.837-2.157-21.417C154.14,119.286,146.081,122.92,145.004,130.154z"/>
					<path style="fill:#0F264C;" d="M166.75,126.722c-3.425,1.928-7.031,2.152-7.031,2.152c-1.829,8.366-6.7,17.962-14.576,15.228
						c-3.026-1.05-5.976-8.269-6.31-14.727c-0.528,0.639-0.875,1.455-1.139,1.792c-0.667-4.139,0.46-7.166,0.931-8.5
						c2.181-6.18,3.633-2.074,5.952-5.825c1.534-2.481,4.256-3.758,9.006-3.925c-1.333,0.694-1.583,1.805,0.389,1.639
						c1.972-0.167,10.382-0.62,15.278,2.694c-3.313,0.746-1.29,6.015,3.125,3.203C170.847,123.064,168.847,125.542,166.75,126.722z"
						/>
					<path style="fill:#FF8B7B;" d="M154.087,134.63c0.004,1.926,0.778,3.811,1.765,5.088c1.485,1.921,3.201,0.972,3.605-1.161
						c0.363-1.92,0.029-5.234-1.854-6.393C155.748,131.022,154.083,132.428,154.087,134.63z"/>
					<path style="fill:#0F264C;" d="M145.129,117.62c-1.032-0.14-3.379-0.454-4.89-3.045
						C140.239,114.576,140.106,120.48,145.129,117.62z"/>
					<path style="fill:#9FC6FF;" d="M158.855,222.777c0,0-6.169,56.142-9.934,77.175c-4.123,23.033-20.043,99.755-20.043,99.755
						h-13.455c0,0,9.561-74.863,11.54-97.667c2.148-24.75,6.538-79.263,6.538-79.263H158.855z"/>
					<path style="fill:#318FFF;" d="M130.834,394.75c0.057,0-1.19,5.167-1.19,5.167h-15.138l0.1-4.611L130.834,394.75z"/>
					<path style="fill:#77B3FC;" d="M154.358,242.78c-9.567,1.89-7.159,37.84-5.285,56.33c2.275-13.07,5.374-38.22,7.465-56.07
						C155.886,242.72,155.162,242.62,154.358,242.78z"/>
					<path style="fill:#9FC6FF;" d="M172.793,222.777c0,0,3.132,54.927,3.198,77.33c0.068,23.302-5.125,99.601-5.125,99.601h-12.445
						c0,0-3.35-74.937-4.787-97.822c-1.567-24.949-6.67-79.108-6.67-79.108H172.793z"/>
					<path style="fill:#FF8B7B;" d="M175.801,215.722l-3.491,0.282c-1.213,0.098-2.028,1.288-1.68,2.454l1.444,4.847
						c0.516,1.732,2.628,2.415,4.036,1.281c1.385-1.117,3.17-3.813,3.735-6.211L175.801,215.722z"/>
					<path style="fill:#77B3FC;" d="M167.925,390.768c-0.002,0-0.005,0-0.008,0c-0.069-0.005-0.121-0.065-0.116-0.133
						c1.378-21.115,4.577-72.204,4.523-90.528c-0.055-18.745-2.282-60.688-2.963-73.097c-0.004-0.069,0.049-0.128,0.118-0.132
						c0.061,0.002,0.128,0.049,0.132,0.118c0.681,12.41,2.908,54.359,2.963,73.111c0.054,18.331-3.146,69.427-4.524,90.544
						C168.045,390.717,167.99,390.768,167.925,390.768z"/>
					<path style="fill:#318FFF;" d="M173.07,394.75c0.057,0-0.503,5.167-0.503,5.167h-15.139l-0.587-4.611L173.07,394.75z"/>
				</g>
			</g>
		</g>
	</g>
</g>
<g id="Designed_by_Freepik">
	<g>
		<g>
			<g id="XMLID_197_">
				<g id="XMLID_216_">
					<path id="XMLID_224_" style="fill:#A5B7C6;" d="M261.442,464.892c-0.49,0.502-0.91,1.054-1.255,1.646l-0.527-0.273
						c-0.076-0.337-0.396-0.569-0.746-0.528c-0.375,0.044-0.643,0.384-0.599,0.759c0.044,0.375,0.384,0.643,0.758,0.599
						c0.074-0.009,0.144-0.029,0.208-0.059l0.511,0.265c-0.284,0.627-0.49,1.289-0.611,1.975l0.845,0.149
						c0.26-1.479,0.962-2.839,2.029-3.932L261.442,464.892z"/>
					<path id="XMLID_223_" style="fill:#A5B7C6;" d="M267.656,462.285c-0.194,0-0.386,0.007-0.577,0.019l-0.083-0.709
						c0.212-0.169,0.335-0.44,0.301-0.73c-0.052-0.445-0.456-0.763-0.901-0.711c-0.445,0.052-0.763,0.455-0.711,0.901
						c0.034,0.288,0.214,0.522,0.458,0.638l0.083,0.707c-0.808,0.132-1.589,0.376-2.332,0.732l0.37,0.774
						c1.058-0.506,2.199-0.762,3.392-0.762c0.562,0,1.124,0.06,1.67,0.178l0.182-0.839
						C268.903,462.352,268.279,462.285,267.656,462.285z"/>
					<path id="XMLID_222_" style="fill:#A5B7C6;" d="M275.133,465.17c0.375-0.046,0.641-0.387,0.595-0.761
						c-0.046-0.375-0.387-0.641-0.761-0.595c-0.35,0.043-0.606,0.344-0.6,0.689l-0.471,0.411c-0.473-0.487-1.007-0.92-1.594-1.29
						l-0.458,0.726c1.284,0.809,2.288,1.955,2.903,3.313l0.782-0.354c-0.284-0.627-0.643-1.214-1.067-1.75l0.455-0.397
						C274.986,465.175,275.059,465.179,275.133,465.17z"/>
					<path id="XMLID_221_" style="fill:#A5B7C6;" d="M267.036,473.845c-0.437,0.026-0.878,0.039-1.31,0.039
						c-0.997,0-1.962-0.069-2.807-0.203c-0.442-0.07-0.958-0.176-1.438-0.331c1.185,2.107,3.476,3.539,6.102,3.539
						c3.233,0,5.959-2.17,6.737-5.1c-0.772,0.509-1.705,0.935-2.784,1.271C270.201,473.478,268.643,473.749,267.036,473.845z"/>
					<path id="XMLID_217_" style="fill:#A5B7C6;" d="M267.656,464.002c-3.796,0-6.884,3.019-6.884,6.73
						c0,0.482,0.052,0.962,0.155,1.428c0.763,0.547,3.064,1.008,6.055,0.828c3.261-0.196,5.998-1.084,7.556-2.444
						c-0.006-0.221-0.023-0.442-0.051-0.659C274.056,466.531,271.12,464.002,267.656,464.002z M265.211,471.38
						c-1.155,0-2.095-0.94-2.095-2.095c0-1.155,0.94-2.095,2.095-2.095c1.155,0,2.095,0.94,2.095,2.095
						C267.306,470.44,266.366,471.38,265.211,471.38z M270.576,470.351c-0.849,0-1.54-0.691-1.54-1.54
						c0-0.849,0.691-1.541,1.54-1.541c0.849,0,1.541,0.691,1.541,1.541C272.116,469.66,271.425,470.351,270.576,470.351z"/>
				</g>
				<path id="XMLID_214_" style="fill:#A5B7C6;" d="M285.779,466.116c-0.334-0.131-0.912-0.35-1.565-0.269
					c-0.624,0.078-0.956,0.386-0.956,1.14v0.981h2.523v1.945h-2.523v6.177h-2.188v-6.177h-1.517v-1.945h1.517v-1.006
					c0-1.902,1.014-3.151,2.908-3.151c0.728,0,1.31,0.138,1.8,0.349L285.779,466.116z"/>
				<path id="XMLID_212_" style="fill:#A5B7C6;" d="M291.104,469.89c-0.2-0.034-0.405-0.052-0.596-0.052
					c-1.014,0-1.71,0.62-1.71,1.827v4.425h-2.188v-8.122h2.12v0.888c0.511-0.763,1.291-1.106,2.288-1.106
					c0.469,0,0.96,0.144,1.239,0.381L291.104,469.89z"/>
				<path id="XMLID_209_" style="fill:#A5B7C6;" d="M299.786,472.017c0,0.251-0.017,0.553-0.042,0.738h-5.758
					c0.235,1.173,1.056,1.685,2.087,1.685c0.704,0,1.467-0.285,2.053-0.779l1.282,1.408c-0.922,0.846-2.095,1.232-3.461,1.232
					c-2.489,0-4.216-1.693-4.216-4.249c0-2.556,1.676-4.3,4.107-4.3C298.177,467.75,299.778,469.485,299.786,472.017z
					 M293.995,471.262h3.595c-0.201-1.039-0.83-1.626-1.768-1.626C294.791,469.636,294.187,470.257,293.995,471.262z"/>
				<path id="XMLID_206_" style="fill:#A5B7C6;" d="M308.453,472.017c0,0.251-0.017,0.553-0.042,0.738h-5.758
					c0.235,1.173,1.056,1.685,2.087,1.685c0.704,0,1.467-0.285,2.053-0.779l1.282,1.408c-0.922,0.846-2.095,1.232-3.461,1.232
					c-2.489,0-4.216-1.693-4.216-4.249c0-2.556,1.676-4.3,4.107-4.3C306.843,467.75,308.444,469.485,308.453,472.017z
					 M302.661,471.262h3.596c-0.201-1.039-0.83-1.626-1.768-1.626C303.457,469.636,302.854,470.257,302.661,471.262z"/>
				<path id="XMLID_203_" style="fill:#A5B7C6;" d="M317.903,472.025c0,2.439-1.693,4.275-3.931,4.275
					c-1.09,0-1.861-0.428-2.389-1.056v4.199h-2.179v-11.474h2.137v0.897c0.528-0.662,1.307-1.115,2.422-1.115
					C316.21,467.75,317.903,469.586,317.903,472.025z M311.475,472.025c0,1.282,0.846,2.238,2.087,2.238
					c1.291,0,2.095-0.997,2.095-2.238c0-1.24-0.805-2.238-2.095-2.238C312.321,469.787,311.475,470.742,311.475,472.025z"/>
				<path id="XMLID_200_" style="fill:#A5B7C6;" d="M321.418,465.311c0,0.788-0.612,1.391-1.4,1.391
					c-0.788,0-1.391-0.603-1.391-1.391c0-0.788,0.604-1.408,1.391-1.408C320.806,463.903,321.418,464.524,321.418,465.311z
					 M321.124,476.09h-2.188v-8.122h2.188V476.09z"/>
				<path id="XMLID_198_" style="fill:#A5B7C6;" d="M324.775,470.86l3.059-2.892h2.682l-3.939,3.822l3.964,4.3h-2.69l-3.076-3.285
					v3.285h-2.188v-12.069h2.188V470.86z"/>
			</g>
			<g>
				<path style="fill:#A5B7C6;" d="M175.729,476.016v-1.194c-0.597,0.813-1.576,1.393-2.704,1.393c-2.09,0-3.566-1.592-3.566-4.196
					c0-2.555,1.46-4.213,3.566-4.213c1.078,0,2.057,0.531,2.704,1.41v-4.263h1.244v11.064H175.729z M175.729,473.843v-3.633
					c-0.448-0.697-1.41-1.294-2.405-1.294c-1.609,0-2.571,1.327-2.571,3.102c0,1.775,0.962,3.085,2.571,3.085
					C174.319,475.104,175.281,474.54,175.729,473.843z"/>
				<path style="fill:#A5B7C6;" d="M178.582,472.002c0-2.322,1.659-4.197,3.948-4.197c2.422,0,3.848,1.891,3.848,4.296v0.316h-6.486
					c0.1,1.509,1.161,2.77,2.886,2.77c0.912,0,1.841-0.365,2.471-1.012l0.597,0.813c-0.796,0.796-1.874,1.227-3.185,1.227
					C180.29,476.215,178.582,474.507,178.582,472.002z M182.513,468.834c-1.709,0-2.555,1.443-2.621,2.67h5.258
					C185.134,470.31,184.337,468.834,182.513,468.834z"/>
				<path style="fill:#A5B7C6;" d="M187.273,474.955l0.647-0.895c0.531,0.614,1.543,1.145,2.637,1.145
					c1.228,0,1.891-0.581,1.891-1.377c0-1.94-4.96-0.746-4.96-3.716c0-1.244,1.078-2.306,2.985-2.306
					c1.36,0,2.323,0.514,2.969,1.161l-0.581,0.863c-0.481-0.581-1.36-1.012-2.389-1.012c-1.095,0-1.775,0.547-1.775,1.261
					c0,1.758,4.96,0.597,4.96,3.716c0,1.344-1.078,2.422-3.151,2.422C189.197,476.215,188.086,475.817,187.273,474.955z"/>
				<path style="fill:#A5B7C6;" d="M195.053,466.031c0-0.464,0.382-0.846,0.829-0.846c0.465,0,0.846,0.381,0.846,0.846
					c0,0.465-0.381,0.829-0.846,0.829C195.434,466.86,195.053,466.495,195.053,466.031z M195.268,476.016v-8.012h1.244v8.012
					H195.268z"/>
				<path style="fill:#A5B7C6;" d="M198.569,478.073l0.63-0.929c0.663,0.796,1.46,1.095,2.604,1.095
					c1.327,0,2.571-0.647,2.571-2.405v-1.145c-0.581,0.813-1.559,1.427-2.687,1.427c-2.09,0-3.566-1.559-3.566-4.147
					c0-2.571,1.46-4.163,3.566-4.163c1.078,0,2.04,0.531,2.687,1.41v-1.211h1.244v7.78c0,2.654-1.858,3.483-3.815,3.483
					C200.443,479.267,199.514,479.002,198.569,478.073z M204.374,473.711v-3.5c-0.432-0.697-1.393-1.294-2.389-1.294
					c-1.609,0-2.571,1.277-2.571,3.052c0,1.758,0.962,3.052,2.571,3.052C202.981,475.021,203.943,474.408,204.374,473.711z"/>
				<path style="fill:#A5B7C6;" d="M213.099,476.016v-5.242c0-1.41-0.713-1.858-1.791-1.858c-0.979,0-1.908,0.597-2.372,1.244v5.855
					h-1.244v-8.012h1.244v1.161c0.564-0.663,1.658-1.36,2.853-1.36c1.675,0,2.555,0.846,2.555,2.588v5.623H213.099z"/>
				<path style="fill:#A5B7C6;" d="M215.952,472.002c0-2.322,1.659-4.197,3.948-4.197c2.422,0,3.848,1.891,3.848,4.296v0.316h-6.486
					c0.099,1.509,1.161,2.77,2.886,2.77c0.912,0,1.841-0.365,2.472-1.012l0.597,0.813c-0.796,0.796-1.874,1.227-3.185,1.227
					C217.66,476.215,215.952,474.507,215.952,472.002z M219.883,468.834c-1.708,0-2.555,1.443-2.621,2.67h5.258
					C222.503,470.31,221.707,468.834,219.883,468.834z"/>
				<path style="fill:#A5B7C6;" d="M231.146,476.016v-1.194c-0.597,0.813-1.576,1.393-2.704,1.393c-2.09,0-3.566-1.592-3.566-4.196
					c0-2.555,1.46-4.213,3.566-4.213c1.078,0,2.057,0.531,2.704,1.41v-4.263h1.244v11.064H231.146z M231.146,473.843v-3.633
					c-0.448-0.697-1.41-1.294-2.405-1.294c-1.609,0-2.571,1.327-2.571,3.102c0,1.775,0.962,3.085,2.571,3.085
					C229.736,475.104,230.697,474.54,231.146,473.843z"/>
				<path style="fill:#A5B7C6;" d="M238.327,476.016v-11.064h1.244v4.263c0.647-0.879,1.609-1.41,2.704-1.41
					c2.09,0,3.566,1.659,3.566,4.213c0,2.604-1.476,4.196-3.566,4.196c-1.128,0-2.107-0.581-2.704-1.393v1.194H238.327z
					 M241.96,475.104c1.626,0,2.588-1.31,2.588-3.085c0-1.775-0.962-3.102-2.588-3.102c-0.979,0-1.957,0.597-2.388,1.294v3.633
					C240.003,474.54,240.981,475.104,241.96,475.104z"/>
				<path style="fill:#A5B7C6;" d="M247.201,478.023c0.182,0.083,0.481,0.133,0.68,0.133c0.547,0,0.912-0.182,1.194-0.846
					l0.531-1.211l-3.351-8.095h1.344l2.671,6.569l2.654-6.569h1.36l-4.014,9.637c-0.481,1.161-1.294,1.609-2.356,1.625
					c-0.265,0-0.68-0.05-0.912-0.116L247.201,478.023z"/>
			</g>
		</g>
	</g>
</g>
</svg>
