<?xml version="1.0" encoding="utf-8"?>
<!-- Generator: Adobe Illustrator 27.8.0, SVG Export Plug-In . SVG Version: 6.00 Build 0)  -->
<svg version="1.1" id="Calque_1" xmlns="http://www.w3.org/2000/svg" xmlns:xlink="http://www.w3.org/1999/xlink" x="0px" y="0px"
	 viewBox="0 0 750 500" style="enable-background:new 0 0 750 500;" xml:space="preserve">
<style type="text/css">
	.st0{fill:#E0E0E0;}
	.st1{fill:#EBEBEB;}
	.st2{fill:#F5F5F5;}
	.st3{fill:#33FFE0;}
	.st4{fill:#263238;}
	.st5{fill:#455A64;}
	.st6{fill:#FAFAFA;}
	.st7{fill:#3195FF;}
	.st8{opacity:0.3;}
	.st9{opacity:0.5;}
	.st10{fill:#004186;}
	.st11{fill:#FFBE9D;}
	.st12{opacity:0.2;}
	.st13{fill:#002853;}
	.st14{opacity:0.6;}
	.st15{fill:#FFFFFF;}
	.st16{fill:#EB996E;}
</style>
<g id="freepik--background-complete--inject-2">
	<path class="st0" d="M291.3,444.9c-5.3-12.1-14.9-21.9-26.8-27.6c-11.9-5.6-38.4-3-38.4-3l-69.6-0.1c1.4,6.1,6,21.8,9.4,27.1
		s8.4,9.7,14.4,11.5c7.4,2.1,15.2-0.1,22.9-0.6c13.5-0.9,26.7,3.5,39.7,7.2s26.8,6.9,39.9,3.8c3.7-0.9,7.6-2.6,9.5-6
		C294.2,453.5,293,448.8,291.3,444.9z"/>
	<path class="st1" d="M77.6,198.1c0,0-7.9-0.6-7.2,17.2s2.5,27.2,2.5,27.2s-0.2,3.9-3.3,3.2s-8.8-4.6-11.6-1.7s-1.9,7.5,2,12.9
		s12,17.4,12.7,18.5s1,3.1-1.2,2.9s-16.8-5.1-18.7,1.9s11.4,20.2,12.8,21.7s1.5,2.4,0.9,3.3s-5.3-1.2-9.5-2.5s-9.3-2-10.1,2.2
		s5.1,16.4,27.1,29.2l10.6,5.3l10-6.4c20.6-15,25.2-27.7,24-31.8s-6.2-2.9-10.2-1.2s-8.6,4.2-9.2,3.4s-0.7-1.8,0.6-3.4
		s13.2-16,10.6-22.9s-16.7-0.5-18.8,0s-2-1.6-1.4-2.8s7.5-14,10.8-19.7s3.9-10.4,0.7-13s-8.4,1.8-11.4,2.9s-3.6-2.8-3.6-2.8
		s0.8-9.6-0.2-27.3s-9.1-16.3-9.1-16.3"/>
	<path class="st0" d="M78.2,214c0,0,0,0.1,0,0.4s0,0.6,0.1,1.1c0.1,1,0.2,2.4,0.3,4.2c0.2,3.6,0.6,8.9,0.9,15.4
		c0.7,13,1.6,31,2.4,51s1.7,37.9,2.3,51c0.3,6.5,0.6,11.8,0.8,15.4c0.1,1.8,0.2,3.2,0.2,4.2c0,0.5,0,0.8,0,1.1c0,0.1,0,0.3,0,0.4
		c0,0,0-0.1,0-0.4s0-0.6-0.1-1.1c-0.1-1-0.2-2.4-0.3-4.2c-0.2-3.6-0.6-8.9-0.9-15.4c-0.7-13-1.6-31.1-2.4-51s-1.7-37.9-2.3-51
		c-0.3-6.5-0.6-11.8-0.8-15.4c-0.1-1.8-0.2-3.2-0.2-4.2c0-0.5,0-0.8,0-1.1C78.2,214.2,78.2,214.1,78.2,214z"/>
	<path class="st0" d="M65.8,249.6c0.2,0.2,0.5,0.3,0.7,0.5c0.4,0.4,1,0.9,1.7,1.6c1.4,1.4,3.3,3.3,5.3,5.6l5.2,5.7l1.6,1.7
		c0.2,0.2,0.4,0.4,0.6,0.6c-0.2-0.2-0.5-0.3-0.7-0.5c-0.4-0.4-1-0.9-1.7-1.6c-1.4-1.4-3.2-3.4-5.3-5.6L68,252
		c-0.6-0.7-1.2-1.2-1.6-1.7C66.2,250.1,66,249.9,65.8,249.6z"/>
	<path class="st0" d="M81.8,265c-0.1-0.1,3.8-4.1,8.6-9s8.8-8.8,8.9-8.8s-3.8,4.1-8.6,9S81.9,265.1,81.8,265z"/>
	<path class="st0" d="M81.8,295.6c0.2-0.2,0.5-0.3,0.7-0.5l2.1-1.2c1.8-1,4.2-2.3,6.8-3.9s4.9-3.1,6.6-4.2l2-1.3
		c0.2-0.2,0.5-0.3,0.8-0.5c-0.2,0.2-0.4,0.4-0.7,0.6c-0.4,0.3-1.1,0.8-1.9,1.4c-1.6,1.2-3.9,2.7-6.5,4.3s-5,2.9-6.8,3.8
		c-0.9,0.5-1.6,0.8-2.1,1C82.3,295.4,82,295.6,81.8,295.6z"/>
	<path class="st0" d="M64.2,284.9c0.3,0.1,0.5,0.2,0.7,0.3l1.9,1.1c1.6,0.9,3.8,2.2,6.2,3.6s4.6,2.8,6.2,3.8
		c0.8,0.5,1.4,0.9,1.9,1.2c0.2,0.1,0.5,0.3,0.7,0.5c-0.3-0.1-0.5-0.2-0.7-0.3l-1.9-1c-1.6-0.9-3.8-2.2-6.2-3.6s-4.6-2.8-6.2-3.7
		c-0.8-0.5-1.4-0.9-1.8-1.2C64.7,285.3,64.4,285.1,64.2,284.9z"/>
	<path class="st0" d="M60.8,312c0.3,0.1,0.6,0.3,0.9,0.5l2.5,1.4c2.1,1.2,4.9,2.8,8,4.6s6,3.5,8,4.7l2.4,1.5
		c0.3,0.2,0.6,0.4,0.8,0.6c-0.3-0.1-0.6-0.3-0.9-0.5l-2.5-1.4c-2.1-1.2-4.9-2.8-8-4.6s-6-3.5-8-4.7l-2.4-1.5
		C61.3,312.4,61,312.2,60.8,312z"/>
	<path class="st0" d="M83,324.7c0.3-0.2,0.6-0.4,0.9-0.6l2.6-1.6c2.2-1.3,5.2-3.2,8.4-5.3s6.1-4.1,8.2-5.5l2.5-1.7
		c0.3-0.2,0.6-0.4,0.9-0.6c-0.3,0.3-0.5,0.5-0.8,0.7c-0.6,0.4-1.4,1.1-2.4,1.8c-2,1.5-4.9,3.5-8.2,5.7s-6.3,3.9-8.5,5.2
		c-1.1,0.6-2,1.1-2.6,1.5C83.7,324.4,83.3,324.5,83,324.7z"/>
	<polygon class="st0" points="98.8,342.9 69.6,342.9 79.2,415.1 89.3,415.1 	"/>
	<path class="st2" d="M71.1,351.8c0,0,0,0.1,0.2,0.3c0.2,0.2,0.4,0.4,0.7,0.5c1,0.4,2.2,0.2,3.1-0.4c1.2-0.6,2.2-1.9,3.8-2.5
		c1.8-0.6,3.6-0.5,5.4,0.1c1.8,0.6,3.4,1.4,5,2.4c1.3,0.8,2.7,1.5,4.1,2.2c1,0.4,2,0.7,3,0.9c0.3,0,0.6,0.1,0.8,0.1
		c0.2,0,0.3,0,0.3,0c-1.4-0.2-2.7-0.6-4-1.2c-1.4-0.7-2.7-1.4-4-2.3c-1.6-1-3.3-1.9-5.1-2.5c-1.8-0.7-3.8-0.7-5.7-0.1
		c-0.8,0.3-1.5,0.8-2.1,1.3c-0.5,0.5-1.1,0.9-1.7,1.3c-0.8,0.6-1.9,0.8-2.8,0.5C71.7,352.3,71.4,352,71.1,351.8z"/>
	<path class="st2" d="M72.2,365.1c0,0,0.2-0.3,0.7-0.8c0.7-0.7,1.5-1.2,2.3-1.5c1.3-0.5,2.7-0.7,4.1-0.6c1.7,0.1,3.4,0.4,5.1,0.7
		c1.7,0.3,3.5,0.4,5.2,0.2c1.4-0.2,2.8-0.6,4.1-1.2c0.9-0.4,1.7-0.9,2.5-1.5c0.3-0.2,0.6-0.4,0.8-0.7c-1.1,0.7-2.2,1.3-3.4,1.9
		c-1.3,0.5-2.6,0.8-4,1c-1.7,0.2-3.4,0.1-5.1-0.2c-1.7-0.3-3.4-0.6-5.2-0.7c-1.4-0.1-2.9,0.2-4.2,0.7c-0.9,0.4-1.7,0.9-2.3,1.7
		c-0.2,0.2-0.3,0.4-0.4,0.6C72.2,365,72.2,365.1,72.2,365.1z"/>
	<path class="st2" d="M95.5,372.2c-0.2-0.2-0.5-0.3-0.8-0.4c-0.8-0.3-1.6-0.5-2.4-0.5c-1.2-0.1-2.5,0-3.7,0.2
		c-1.4,0.2-2.8,0.6-4.4,0.9c-1.4,0.3-2.9,0.5-4.4,0.5c-1.2,0-2.4-0.3-3.4-0.7c-1-0.5-1.9-1.2-2.6-2c0.1,0.3,0.3,0.6,0.5,0.8
		c0.6,0.6,1.2,1.1,2,1.5c1.1,0.5,2.3,0.8,3.6,0.9c1.5,0,3-0.1,4.5-0.5c1.6-0.3,3-0.7,4.3-1c1.2-0.2,2.4-0.3,3.6-0.3
		C93.4,371.6,94.5,371.8,95.5,372.2z"/>
	<path class="st2" d="M74.8,382.2c0.9-0.4,1.9-0.5,2.8-0.3c1,0.3,2,0.6,3,1.1c1.2,0.6,2.5,0.9,3.8,1.1c2.4,0.2,4.9-0.3,7-1.6
		c0.6-0.4,1.2-0.8,1.7-1.3c0.4-0.4,0.5-0.6,0.5-0.6c-0.8,0.6-1.6,1.2-2.4,1.7c-2.1,1.1-4.4,1.6-6.8,1.4c-2.8-0.2-4.9-1.8-6.8-2
		c-0.7-0.1-1.5-0.1-2.2,0.2C75,382,74.8,382.2,74.8,382.2z"/>
	<path class="st2" d="M76.4,396.1c0.8,0,1.7-0.1,2.4-0.5c1.5-0.5,3.3-1.6,5.4-2.5c1-0.4,2-0.6,3.1-0.6c0.9,0,1.7,0.2,2.5,0.6
		c0.7,0.4,1.3,0.9,1.8,1.5c0-0.2-0.1-0.4-0.3-0.6c-0.4-0.5-0.8-0.9-1.4-1.2c-0.8-0.4-1.7-0.7-2.7-0.7c-1.1,0-2.2,0.2-3.3,0.6
		c-2.2,0.9-4,2-5.4,2.6S76.4,396,76.4,396.1z"/>
	<path class="st2" d="M77.8,402.5c0.6,0.3,1.2,0.5,1.8,0.6c1.5,0.4,3.1,0.6,4.6,0.8c1.6,0.2,3.1,0.2,4.7,0.1c0.7,0,1.3-0.1,1.9-0.2
		c0-0.1-3,0-6.6-0.4S77.9,402.4,77.8,402.5z"/>
	
		<rect x="539.5" y="230.2" transform="matrix(0.9749 -0.2227 0.2227 0.9749 -43.4256 136.8906)" class="st2" width="91.2" height="61.5"/>
	<path class="st0" d="M623.2,221.5c-0.2,0.4-0.4,0.7-0.7,1l-2,2.7l-7.4,10c-6.4,8.4-15.1,20-24.8,32.8l-0.2,0.3l-0.3-0.1l-0.7-0.4
		l-37.5-18.2l-11.3-5.6l-3-1.6c-0.4-0.2-0.7-0.4-1-0.6c0.4,0.1,0.8,0.3,1.1,0.4l3.1,1.4L550,249l37.6,18l0.7,0.4l-0.5,0.1
		c9.7-12.7,18.5-24.2,25-32.6c3.2-4.1,5.8-7.4,7.6-9.8l2.1-2.6C622.7,222,623,221.7,623.2,221.5z"/>
	<path class="st0" d="M548,301.7c-0.2-0.1,4.6-9.9,10.7-21.8s11.3-21.5,11.5-21.4s-4.6,9.9-10.7,21.8S548.2,301.8,548,301.7z"/>
	<path class="st0" d="M599.6,251.1c0.1-0.2,8.6,6.5,18.9,14.8s18.5,15.3,18.4,15.5s-8.6-6.5-18.9-14.9S599.5,251.2,599.6,251.1z"/>
	
		<rect x="230.7" y="54.7" transform="matrix(0.225 -0.9744 0.9744 0.225 113.331 305.6229)" class="st2" width="36.2" height="53.8"/>
	<path class="st0" d="M279.1,70.4c-0.2,0.1-0.4,0.3-0.6,0.4l-1.8,0.9l-6.5,3.4l-21.6,11l-0.2,0.1l-0.1-0.2l-0.3-0.4l-15.2-19.3
		l-4.6-5.9l-1.2-1.6c-0.2-0.2-0.3-0.4-0.4-0.6c0.2,0.2,0.3,0.3,0.5,0.5l1.3,1.6l4.7,5.8l15.3,19.2l0.3,0.4l-0.3-0.1l21.6-10.9
		l6.6-3.2l1.8-0.9C278.7,70.6,278.9,70.5,279.1,70.4z"/>
	<path class="st0" d="M218.6,93.7c-0.1-0.1,5-4,11.3-8.8s11.5-8.5,11.6-8.4s-5,4-11.3,8.8S218.7,93.8,218.6,93.7z"/>
	<path class="st0" d="M259,80.1c0.1-0.1,2.9,5.7,6.2,12.7s5.9,12.9,5.8,13s-2.9-5.7-6.2-12.7S258.9,80.1,259,80.1z"/>
	
		<rect x="524.4" y="73.8" transform="matrix(0.9188 -0.3947 0.3947 0.9188 9.5957 222.3621)" class="st2" width="41.7" height="28.1"/>
	<path class="st0" d="M559.1,67c-0.1,0.2-0.1,0.3-0.2,0.5l-0.7,1.4c-0.6,1.2-1.5,3-2.5,5.1l-8.4,16.8l-0.1,0.1H547l-0.4-0.1
		l-18.3-5.1l-5.5-1.7l-1.5-0.4l-0.5-0.2c0.2,0,0.4,0.1,0.5,0.1l1.5,0.4l5.6,1.5l18.4,5l0.4,0.1l-0.2,0.1c3.3-6.5,6.3-12.4,8.5-16.7
		c1.1-2.1,2-3.8,2.6-5l0.7-1.4C558.9,67.3,559,67.1,559.1,67z"/>
	<path class="st0" d="M531.9,109.2c-0.1,0,1.3-4.8,3-10.7s3.3-10.5,3.4-10.5s-1.3,4.8-3,10.7S532,109.2,531.9,109.2z"/>
	<path class="st0" d="M550.9,82.2c0-0.1,4.4,2.2,9.7,5.1s9.6,5.3,9.5,5.4s-4.4-2.2-9.7-5.1S550.8,82.3,550.9,82.2z"/>
</g>
<g id="freepik--Plant--inject-2">
	<path class="st3" d="M609.5,327.8c-4.1-2.6-8.7-4.2-13.5-4.7c-2.2-0.2-4.6-0.2-6.4,1.2c-0.4,0.2-0.7,0.7-0.7,1.2
		c0.1,0.3,0.3,0.6,0.6,0.8C595.4,330.4,603.1,331,609.5,327.8"/>
	<path class="st3" d="M609.2,327.4c-3.1-2.3-6.1-4.9-8.8-7.7c-2.7-2.8-4.6-6.3-5.5-10.1c-0.4-1.1-0.2-2.4,0.4-3.4
		C602.4,311.6,607.8,318.6,609.2,327.4"/>
	<path class="st3" d="M609.5,327.7c-0.7-3.8-0.6-7.7,0.2-11.5c0.8-3.8,3-7.2,6.1-9.5c1.2,2.8,0.7,6.1-0.2,9
		c-1.3,4.6-3.4,8.9-6.1,12.8"/>
	<path class="st3" d="M616.3,340c-4.2,0.5-7.8,2.7-10.9,5.5c-3.1,2.8-5.3,6.6-6.2,10.7c4.1-0.2,7.5-3.1,10-6.3
		S613.4,343.1,616.3,340"/>
	<path class="st3" d="M617.8,341.9c-3.3-8.4-2.2-18,3.1-25.3C623.2,325,622.4,334.5,617.8,341.9"/>
	<path class="st3" d="M626.8,352.7c-7.8-0.5-15,3.7-18.5,10.7c-0.3,0.4-0.4,1-0.1,1.5c0.3,0.3,0.8,0.4,1.2,0.4
		c3.7-0.2,6.9-2.4,9.6-4.9S623.9,354.8,626.8,352.7"/>
	<path class="st3" d="M626.5,352.1c-1.9-6.3-2.1-13-0.3-19.3c0.7-2.5,1.8-5.1,4.1-6.3c0.2-0.1,0.4-0.2,0.6-0.1
		c0.2,0.1,0.3,0.3,0.4,0.5c0.8,1.7,1.1,3.6,1,5.5c-0.1,1.9-0.4,3.8-0.9,5.6c-0.7,3.4-1.1,7.1-3,10c-0.4,0.7-0.8,1.4-1.2,2.2
		c-0.4,0.8-0.4,1-0.7,1.6"/>
	<path class="st3" d="M650.4,355.6c-1.8-6.7,0.1-14.9,4.4-20.4c0.3-0.4,0.7-0.8,1.2-0.8c0.8,0.1,1,1.1,1,1.9
		C656.7,343.3,654.4,350,650.4,355.6"/>
	<path class="st3" d="M652.6,357.1c8.5,2,17.4,0.2,24.4-5c-4.1-2-8.8-2.6-13.2-1.6C659.4,351.5,655.3,353.5,652.6,357.1"/>
	<path class="st3" d="M654.4,352.6c4.6-7.5,13.4-12.4,22.1-12.8c-1,3.6-3.9,6.3-7.2,8c-3.4,1.5-7,2.6-10.6,3.2
		C657.3,351.3,655.3,351.6,654.4,352.6"/>
	<path class="st3" d="M650.9,330.9c1.4-4.2,2.3-8.6,2.8-13c0.5-4.4-0.4-8.9-2.6-12.8c-4.3,8.3-4.7,18-0.4,26.2"/>
	<path class="st3" d="M665.3,323.6c5-9.1,15.2-16.4,25.6-17.4C686.9,316.1,676,323.8,665.3,323.6"/>
	<path class="st3" d="M662.2,325.4c7.5,1.1,13.8,5.9,20.8,8.8c1.5,0.7,3.1,1,4.7,0.9c2,0,3.7-1.7,3.6-3.7c0-1.1-0.5-2.1-1.3-2.8
		c-1-0.9-2.1-1.6-3.4-2.1c-7.6-3.2-15.8-3.2-23.8-1.3"/>
	<path class="st3" d="M657.8,330.6c1.7,0.5,2.3,1.4,3.6,2.5c4.6,3.9,10,6.7,15.8,8.1c0.6,0.1,1.4,0.2,1.7-0.3s-0.1-1-0.4-1.5
		c-2.5-3-5.8-5.2-9.5-6.5c-3.6-1.4-6.8-3-11.2-2.6"/>
	<path class="st3" d="M653,299c6.2,5.7,14.5,8.5,22.9,7.8c0.4,0,0.7-0.1,1-0.4c0.6-0.6-0.1-1.6-0.8-2.1
		C669.4,299.1,661.2,296.9,653,299"/>
	<path class="st3" d="M658.7,296.8c8.2-6,18.8-7.8,28.6-4.7c-3.7,3.5-8.5,5.6-13.6,6C668.7,298.6,663.6,298.1,658.7,296.8"/>
	<path class="st3" d="M656.4,282.3c-0.7-6.7-0.2-12-0.7-18.8c0-0.5-0.2-1.2-0.7-1.4c-0.7-0.3-1.3,0.6-1.5,1.3
		c-2,6.3-0.9,13.2,2.9,18.7"/>
	<path class="st3" d="M656,283c4.4-2.8,8.2-6.5,11.1-10.8c2.2-3,4-6.6,3.5-10.3c-3.1,0.1-6,1.6-8,4c-1.9,2.4-3.3,5.2-4.1,8.2
		C657.7,277.1,657.1,280.1,656,283"/>
	<path class="st3" d="M666.9,280c10-3.7,19.3-9.2,27.4-16.2c-3.3-1.3-7-0.5-10.3,0.8c-7.4,2.8-13.6,8.3-17.2,15.3"/>
	<path class="st3" d="M659,286.7c5,0.7,10.2,0.7,15.2,0.1c4.9-0.8,9.6-2.8,14.2-4.7c0.4-0.1,0.8-0.4,1-0.7c0.1-0.4,0-0.9-0.3-1.2
		c-0.4-0.3-0.8-0.5-1.2-0.6c-5-1.4-10.4-0.7-15.3,0.9C667.8,282.1,663.3,284.2,659,286.7"/>
	<path class="st3" d="M630.2,299.2c-3.5-7-3.2-15.1-0.2-22.3c2.1,3.2,2.4,7.3,2,11.1s-1.5,7.7-1.6,11.5"/>
	<path class="st3" d="M616.4,292.2c-8.7-0.1-17.1,3.4-23.1,9.8c4.4,0.5,8.8-0.3,12.6-2.3c3.8-2,7.5-4.5,10.8-7.2"/>
	<path class="st3" d="M607.1,289.1c-4.2-0.3-8.3-0.9-12.3,0.4c-4.1,1.2-7.6,4.1-9.4,8c4,0.3,8-0.4,11.5-2.2
		C600.5,293.6,603.9,291.5,607.1,289.1"/>
	<path class="st3" d="M620.8,289.3c-3.8-2.5-7.7-5-12.1-6s-9.5-0.3-12.6,3c3.6,2.1,7.9,2.4,12,2.4s9.2,0,13.1,1.3"/>
	<path class="st3" d="M620.8,289.5c-6.5-6.4-8.9-17.8-6.3-26.5C619.6,270.8,621.9,280.2,620.8,289.5"/>
	<path class="st3" d="M638.7,271.4c1.2-2.8,2.1-5.8,3.2-8.7c1-2.9,2.5-5.6,4.5-8c2-2.4,4.9-3.9,8-4.2c-2,8.9-7.7,16.5-15.6,21"/>
	<path class="st3" d="M635.4,275.2c-2-2.8-4.4-6.6-7.1-8.6s-6.3-3.3-9.7-2.5C622.2,270.2,628.4,274.3,635.4,275.2"/>
	<path class="st3" d="M636.1,271.7c-1.5-3.3-2.5-6.8-3.2-10.4c-0.7-3.6-0.1-7.3,1.6-10.5c3.6,6.7,4.7,14,1.8,21"/>
	<path class="st3" d="M638.7,250.8c2-6.7,8.1-11.6,14.7-13.8c0.8-0.3,1.7-0.5,2.6-0.4c0.9,0.1,1.6,0.7,1.9,1.6
		c0.2,1.1-0.7,2.1-1.6,2.9C651.2,245.5,645.2,248.8,638.7,250.8"/>
	<path class="st3" d="M638.8,245.3c0.3-4.3,0.5-8.7,1.9-12.7s4.1-7.9,8-9.7c0.7,4.3-1.2,8.7-3.6,12.4s-5.1,7.3-6.5,11.4"/>
	<path class="st3" d="M638.7,248.3c-1.7-4.9-1.8-11-4.8-15.3c-2-3-5.3-5-7-8.1c-1.1,3-0.9,6.3,0.4,9.2c1.3,2.9,3.2,5.5,5.4,7.7
		C634.9,244.1,636.7,245.8,638.7,248.3"/>
	<path class="st4" d="M638.7,391.4c-0.1,0-0.2-32.4-0.2-72.4s0.1-72.4,0.2-72.4s0.2,32.4,0.2,72.4S638.8,391.4,638.7,391.4z"/>
	<path class="st4" d="M667,294.3c-0.4,0.2-0.8,0.3-1.2,0.5l-3.4,1.1c-2.8,1-6.7,2.4-10.9,4.1s-8.1,3.2-10.3,5.2
		c-0.9,0.7-1.6,1.7-2.1,2.8c-0.3,0.8-0.4,1.2-0.4,1.2s0-0.1,0-0.3c0.1-0.3,0.1-0.6,0.2-0.9c0.4-1.1,1.1-2.1,2-2.9
		c1.4-1.1,2.9-2.1,4.5-2.8c1.8-0.8,3.8-1.7,5.9-2.6c4.2-1.7,8.1-3.1,11-4c1.4-0.4,2.6-0.8,3.4-1C666.1,294.4,666.6,294.3,667,294.3z
		"/>
	<path class="st4" d="M676.3,271.5c-0.1,0.1-0.2,0.3-0.3,0.4l-1,1l-3.9,3.5l-12.9,11.5c-5,4.5-9.4,8.8-12.4,12
		c-1.5,1.6-2.7,3-3.5,3.9l-0.9,1.1c-0.1,0.1-0.2,0.2-0.3,0.4c0,0,0.1-0.1,0.3-0.4s0.5-0.6,0.9-1.1c0.8-1,1.9-2.4,3.4-4
		c3.9-4.3,8-8.3,12.4-12.1c5.1-4.5,9.7-8.5,13-11.4l4-3.4c0.4-0.4,0.8-0.7,1.1-0.9C676.1,271.7,676.2,271.6,676.3,271.5z"/>
	<path class="st4" d="M652.7,292.4c-0.1,0,0.9-2.5,2-5.6s1.6-5.7,1.7-5.6c-0.1,2-0.5,3.9-1.2,5.8c-0.5,1.3-1,2.6-1.6,3.9
		C653.3,291.4,653,292,652.7,292.4z"/>
	<path class="st4" d="M638.7,312c-0.3-0.3-0.6-0.6-0.8-0.9l-2-2.5c-1.7-2.2-4-5.1-6.6-8.4s-5-6.2-6.7-8.3l-2-2.5
		c-0.3-0.3-0.5-0.6-0.7-1c0.3,0.2,0.6,0.5,0.8,0.8c0.5,0.6,1.2,1.4,2.2,2.4c1.8,2.1,4.2,5,6.8,8.2s4.9,6.3,6.5,8.5
		c0.8,1.1,1.5,2,1.9,2.6C638.4,311.3,638.6,311.7,638.7,312z"/>
	<path class="st4" d="M632.5,304.1c-1.3-1.4-2.2-3.1-2.6-4.9c-0.5-1.6-0.7-3.3-0.6-4.9h0.2c-0.1,0.4-0.2,0.6-0.2,0.6s0-0.2,0-0.6
		h0.2c0.1,1.6,0.4,3.2,0.8,4.8C630.9,300.8,631.7,302.4,632.5,304.1z"/>
	<path class="st4" d="M624.5,294c-0.6-0.4-1.2-0.8-1.8-1c-1.6-0.5-3.3-0.6-5-0.4c-1.7,0.1-3.4,0.4-5.1,0.8c-0.7,0.2-1.4,0.4-2.1,0.5
		c0.6-0.4,1.3-0.7,2-0.8c1.7-0.5,3.4-0.9,5.1-1c1.8-0.2,3.5,0,5.2,0.6C623.5,292.9,624.1,293.4,624.5,294z"/>
	<path class="st4" d="M622.6,291.5c0,0.1-1.1-0.4-2.8-1c-4.5-1.5-9.3-1.9-14-1.1c-1.8,0.3-2.9,0.6-2.9,0.6c0.2-0.1,0.5-0.3,0.7-0.3
		c0.7-0.2,1.4-0.4,2.1-0.6c4.7-1,9.7-0.7,14.2,1.1c0.7,0.3,1.4,0.6,2,0.9C622.2,291.2,622.4,291.4,622.6,291.5z"/>
	<path class="st4" d="M638.7,281.2c-0.8-2.3-1.5-4.7-2-7c-0.7-2.4-1.2-4.7-1.6-7.2c0.8,2.3,1.5,4.7,2,7.1
		C637.8,276.4,638.3,278.8,638.7,281.2z"/>
	<path class="st4" d="M638.8,281.2c-0.7-1.5-1.4-2.9-2.2-4.2c-1-1.3-2.1-2.4-3.3-3.4c0.5,0.1,0.9,0.3,1.3,0.7
		c0.9,0.7,1.8,1.5,2.4,2.5C637.9,278,638.6,279.6,638.8,281.2z"/>
	<path class="st4" d="M638.7,374.1c0,0-0.2-0.8-0.5-2.1c-0.5-1.9-1.3-3.8-2.2-5.6c-3.1-5.9-7-11.3-11.5-16.2
		c-2.6-2.9-5.1-5.7-7.2-8.3c-1.9-2.3-3.6-4.8-5.1-7.4c-1-1.8-1.9-3.6-2.6-5.5c-0.2-0.7-0.4-1.2-0.5-1.6c-0.1-0.2-0.1-0.4-0.1-0.6
		c0,0,0.3,0.7,0.8,2.1c0.8,1.9,1.7,3.7,2.7,5.4c1.5,2.5,3.3,5,5.2,7.3c2.1,2.6,4.6,5.4,7.2,8.3c5.2,5.8,9.3,11.7,11.4,16.4
		c0.9,1.8,1.5,3.7,2,5.7c0.1,0.5,0.2,1.1,0.3,1.6C638.7,373.7,638.7,373.9,638.7,374.1z"/>
	<path class="st4" d="M664.3,345.2c-0.4,0.3-0.9,0.6-1.3,0.8c-1.2,0.7-2.4,1.5-3.5,2.3c-1.6,1.3-3.2,2.7-4.6,4.2
		c-1.6,1.7-3.3,3.7-5,5.8c-3.4,4.2-6.5,8-8.4,11c-1,1.5-1.7,2.7-2.1,3.6c-0.2,0.5-0.5,0.9-0.7,1.4c0,0,0-0.1,0.1-0.4s0.2-0.6,0.5-1
		c0.6-1.3,1.3-2.5,2-3.7c2.6-3.9,5.3-7.6,8.3-11.1c1.7-2.1,3.4-4.1,5-5.8c1.4-1.5,3-2.9,4.7-4.1c1.1-0.8,2.3-1.6,3.6-2.2
		c0.5-0.2,0.8-0.4,1-0.5S664.3,345.2,664.3,345.2z"/>
	<path class="st4" d="M664.8,354.6c-0.9,0.2-1.9,0.3-2.8,0.4c-2.3,0.2-4.5,0.7-6.7,1.3c-2.2,0.7-4.2,1.8-6,3.2c-1.4,1.1-2,2-2.1,1.9
		c0.1-0.2,0.2-0.5,0.4-0.6c0.4-0.6,0.9-1.1,1.5-1.5c1.8-1.5,3.9-2.6,6.1-3.4c2.2-0.7,4.5-1.1,6.8-1.2
		C662.9,354.6,663.9,354.5,664.8,354.6z"/>
	<path class="st4" d="M647.9,360.4c-0.2-0.1,1.1-2,2.1-4.7s1.2-5,1.3-4.9c0.1,0.5,0.1,1,0,1.5c-0.1,1.2-0.4,2.4-0.8,3.6
		c-0.4,1.2-1,2.3-1.7,3.3C648.3,359.9,648,360.4,647.9,360.4z"/>
	<path class="st4" d="M672.6,320c-0.1,0.1-0.3,0.2-0.5,0.2l-1.3,0.6c-0.6,0.2-1.3,0.6-2.1,1s-1.7,0.8-2.7,1.4l-1.5,0.9
		c-0.5,0.3-1.1,0.7-1.6,1c-1.1,0.7-2.3,1.5-3.5,2.4c-2.6,2-5,4.1-7.3,6.4c-2.2,2.4-4.3,4.9-6.2,7.5c-0.8,1.2-1.6,2.4-2.3,3.6
		c-0.3,0.6-0.7,1.1-1,1.7s-0.6,1.1-0.8,1.6c-0.5,1-0.9,1.9-1.3,2.8s-0.7,1.5-0.9,2.1s-0.4,1-0.6,1.4c-0.1,0.2-0.1,0.3-0.2,0.5
		c0-0.2,0.1-0.3,0.1-0.5c0.1-0.4,0.3-0.8,0.5-1.4s0.5-1.3,0.8-2.2s0.7-1.8,1.3-2.8l0.8-1.6c0.3-0.5,0.6-1.1,1-1.7
		c0.7-1.2,1.5-2.4,2.3-3.6c1.9-2.7,3.9-5.2,6.2-7.6c2.3-2.3,4.8-4.5,7.4-6.5c1.2-0.9,2.4-1.7,3.5-2.4c0.6-0.4,1.1-0.7,1.7-1
		s1.1-0.6,1.6-0.9c1-0.6,1.9-1,2.8-1.4c0.7-0.3,1.4-0.7,2.1-0.9l1.4-0.5C672.3,320.1,672.4,320,672.6,320z"/>
	<path class="st4" d="M652.3,333.6c0.2-0.7,0.6-1.2,1.1-1.7c1.2-1.1,2.8-1.7,4.5-1.7c1.6,0,3.2,0.3,4.7,0.9c0.6,0.2,1.2,0.5,1.8,0.9
		c-0.6-0.1-1.3-0.3-1.9-0.5c-1.5-0.5-3-0.8-4.6-0.8c-1.6,0-3.1,0.6-4.3,1.5C653.2,332.6,652.7,333.1,652.3,333.6z"/>
	<path class="st4" d="M649.3,336.7c1.4-2.6,1.7-5.6,1-8.5c0.3,0.4,0.5,0.8,0.5,1.2c0.3,1,0.3,2.1,0.2,3.2c-0.1,1.1-0.4,2.1-1,3
		C649.7,336.4,649.3,336.8,649.3,336.7z"/>
	<path class="st5" d="M616.3,378.8c0.7,12.4,4.4,25,10.2,37.7h25c5.5-12.6,9-25.2,9.6-37.7H616.3z"/>
	<path class="st6" d="M657,398.8c0,0.1-8.2,0.2-18.4,0.2s-18.4-0.1-18.4-0.2s8.2-0.2,18.4-0.2S657,398.7,657,398.8z"/>
	<path class="st6" d="M656.4,403.3c0,0.1-7.7,0.2-17.2,0.2s-17.2-0.1-17.2-0.2s7.7-0.2,17.2-0.2S656.4,403.2,656.4,403.3z"/>
</g>
<g id="freepik--Device--inject-2">
	<path class="st5" d="M190.5,156.3h355.4c8,0,14.6,6.5,14.6,14.6V396c0,8-6.5,14.6-14.6,14.6H190.5c-8,0-14.6-6.5-14.6-14.6V170.9
		C175.9,162.8,182.4,156.3,190.5,156.3z"/>
	<path class="st5" d="M160.9,394.2h416.6l0,0v4.5c0,9.8-8,17.8-17.8,17.8h-381c-9.8,0-17.8-8-17.8-17.8L160.9,394.2L160.9,394.2
		L160.9,394.2z"/>
	<rect x="186.2" y="166.4" class="st4" width="362.8" height="214.7"/>
	<polygon class="st4" points="330.2,391.8 335.4,400 408.2,400 413,391.8 	"/>
	<path class="st1" d="M197,173.7H539c1.8,0,3.3,1.5,3.3,3.3v200.2c0,1.8-1.5,3.3-3.3,3.3H197c-1.8,0-3.3-1.5-3.3-3.3V176.9
		C193.7,175.1,195.2,173.7,197,173.7z"/>
	<polygon class="st6" points="541.9,380.8 193.3,380.8 193.7,189.1 541.9,189.1 	"/>
	<path class="st4" d="M222.3,181.7c0,1.5-1.2,2.8-2.8,2.8s-2.8-1.2-2.8-2.8s1.2-2.8,2.8-2.8c0,0,0,0,0,0
		C221,178.9,222.3,180.1,222.3,181.7C222.3,181.7,222.3,181.7,222.3,181.7z"/>
	<path class="st4" d="M205.4,181.7c0,1.5-1.2,2.8-2.8,2.8c-1.5,0-2.8-1.2-2.8-2.8c0-1.5,1.2-2.8,2.8-2.8c0,0,0,0,0,0
		C204.1,178.9,205.4,180.1,205.4,181.7C205.4,181.6,205.4,181.7,205.4,181.7z"/>
	<path class="st4" d="M213.5,181.7c0,1.5-1.2,2.8-2.8,2.8c-1.5,0-2.8-1.2-2.8-2.8c0-1.5,1.2-2.8,2.8-2.8c0,0,0,0,0,0
		C212.2,178.9,213.5,180.1,213.5,181.7C213.5,181.6,213.5,181.7,213.5,181.7z"/>
	<path class="st4" d="M557.1,391.8c0,0.1-85.3,0.2-190.6,0.2s-190.6-0.1-190.6-0.2s85.3-0.2,190.6-0.2S557.1,391.6,557.1,391.8z"/>
	<polygon class="st7" points="305.3,264 447.1,262.7 451.3,359.1 304.4,358 	"/>
	<path class="st3" d="M305.3,264l67-54.4c2.8-2.3,6.9-2.3,9.7,0l65.1,53.1"/>
	<g class="st8">
		<path class="st7" d="M305.3,264l67-54.4c2.8-2.3,6.9-2.3,9.7,0l65.1,53.1"/>
	</g>
	<path class="st4" d="M304.4,358c-0.2-0.2,11.1-12.6,25.3-27.7s25.8-27.3,26-27.1s-11.1,12.6-25.3,27.7S304.6,358.2,304.4,358z"/>
	<path class="st4" d="M451.3,359.1c-0.2,0.2-11.3-12-24.8-27.1s-24.3-27.5-24.1-27.7s11.3,12,24.8,27.1S451.5,358.9,451.3,359.1z"/>
	<g class="st9">
		<polyline points="447.1,262.7 376,319.7 305.3,264 		"/>
	</g>
	<polygon class="st6" points="312.5,269.2 312.1,224.9 436.3,223.2 437.8,269.8 376,319 	"/>
	<path class="st4" d="M312.5,269.2c0,0,0.4,0.3,1.2,0.9l3.4,2.6l12.9,10c11.1,8.6,27,21,46.3,36.1h-0.3l61.8-49.2l-0.1,0.2
		c-0.3-8.9-0.6-18.2-0.9-27.7c-0.2-6.4-0.4-12.7-0.6-18.9l0.3,0.2l-124.2,1.6l0.2-0.2c0.1,13.9,0.1,25,0.1,32.6c0,3.8,0,6.7,0,8.7
		c0,1,0,1.7,0,2.2S312.5,269.3,312.5,269.2c0,0,0-0.2,0-0.7s0-1.3,0-2.2c0-2-0.1-4.9-0.1-8.7c-0.1-7.6-0.2-18.7-0.3-32.6v-0.2h0.2
		l124.1-1.8h0.3v0.3c0.2,6.2,0.4,12.5,0.6,18.9c0.3,9.5,0.6,18.8,0.9,27.7v0.1l-0.1,0.1l-61.8,49.1l-0.1,0.1l-0.1-0.1l-46.2-36.3
		l-12.8-10.1l-3.3-2.6L312.5,269.2z"/>
	<path class="st4" d="M416.8,245.6c0,0.1-19,0.4-42.4,0.6s-42.4,0.2-42.4,0.1s19-0.4,42.4-0.6S416.8,245.4,416.8,245.6z"/>
	<path class="st4" d="M416.8,258.1c0,0.1-19,0.4-42.4,0.6s-42.4,0.2-42.4,0.1s19-0.4,42.4-0.6S416.8,257.9,416.8,258.1z"/>
	<path class="st4" d="M416.8,272.5c0,0.1-19,0.4-42.4,0.6s-42.4,0.2-42.4,0.1s19-0.4,42.4-0.6S416.8,272.4,416.8,272.5z"/>
	<path class="st4" d="M416.8,286.9c0,0.1-18.1,0.4-40.5,0.6s-40.5,0.2-40.5,0.1s18.1-0.4,40.5-0.6S416.8,286.8,416.8,286.9z"/>
	<path class="st4" d="M401,299.6c-0.2,0-0.3,0.1-0.5,0.1l-1.4,0.1l-5.2,0.1l-17.3,0.3c-6.8,0.1-12.9,0.2-17.3,0.2H354h-1.4
		c-0.2,0-0.3,0-0.5,0c0.2,0,0.3-0.1,0.5-0.1l1.4-0.1l5.2-0.1l17.3-0.3c6.8-0.1,12.9-0.2,17.3-0.2h5.2h1.4
		C400.7,299.6,400.8,299.6,401,299.6z"/>
	<path class="st4" d="M385,311.8c-3,0.3-6,0.4-9,0.3c-3,0.1-6,0-9-0.2c3-0.3,6-0.4,9-0.3C379,311.5,382,311.6,385,311.8z"/>
</g>
<g id="freepik--Floor--inject-2">
	<path class="st4" d="M709,415.5c0,0.1-149.5,0.3-334,0.3s-334-0.1-334-0.3s149.5-0.3,334-0.3S709,415.4,709,415.5z"/>
</g>
<g id="freepik--envelope-3--inject-2">
	<path class="st4" d="M401.8,222.8c0.1,0,0.2,0.6,0.1,1.3s-0.2,1.2-0.4,1.2s-0.2-0.6-0.1-1.3S401.6,222.8,401.8,222.8z"/>
	<path class="st4" d="M403.1,213.1c0.1,0.8,0.1,1.7-0.1,2.5c0,0.8-0.3,1.6-0.6,2.4C402.2,216.3,402.5,214.6,403.1,213.1z"/>
	<path class="st4" d="M405,203.4c0.1,0.8,0,1.7-0.3,2.5c-0.1,0.8-0.4,1.6-0.8,2.3c-0.1-0.8,0-1.7,0.3-2.4
		C404.4,205,404.6,204.2,405,203.4z"/>
	<path class="st4" d="M407.7,194c-0.1,1.7-0.6,3.3-1.4,4.7c0-0.8,0.2-1.7,0.5-2.4C406.9,195.5,407.2,194.7,407.7,194z"/>
	<path class="st4" d="M411.1,184.8c-0.1,0.8-0.3,1.6-0.7,2.4c-0.2,0.8-0.6,1.5-1.1,2.2c0.1-0.8,0.3-1.6,0.7-2.4
		C410.2,186.2,410.6,185.4,411.1,184.8z"/>
	<path class="st4" d="M415.4,175.9c-0.4,1.6-1.2,3.1-2.2,4.4c0.1-0.8,0.4-1.6,0.9-2.3C414.7,176.8,415.3,175.9,415.4,175.9z"/>
	<path class="st4" d="M420.5,167.6c-0.2,0.8-0.6,1.5-1.1,2.2c-0.7,1.1-1.4,2-1.5,1.9c0.2-0.8,0.6-1.6,1.1-2.2
		C419.7,168.3,420.4,167.5,420.5,167.6z"/>
	<path class="st4" d="M426.6,159.8c-0.3,0.8-0.8,1.5-1.4,2.1c-0.9,1-1.7,1.8-1.8,1.7s0.5-1,1.4-2.1S426.5,159.7,426.6,159.8z"/>
	<path class="st4" d="M433.5,152.8c0.1,0.1-0.6,0.9-1.6,1.9s-1.9,1.6-2,1.5s0.6-0.9,1.6-1.9S433.4,152.7,433.5,152.8z"/>
	<path class="st4" d="M441.3,146.8c0.1,0.1-0.7,0.9-1.8,1.7c-0.6,0.6-1.3,1-2.1,1.2c-0.1-0.1,0.7-0.9,1.8-1.7
		C439.8,147.5,440.5,147,441.3,146.8z"/>
	<path class="st4" d="M449.8,141.8c-1.3,1.1-2.7,1.9-4.3,2.3c-0.1-0.1,0.8-0.8,2-1.4C448.1,142.3,448.9,142,449.8,141.8z"/>
	<path class="st4" d="M458.9,138.1c-0.7,0.5-1.4,0.9-2.2,1.1c-0.7,0.4-1.6,0.6-2.4,0.6c0.7-0.5,1.4-0.9,2.2-1.1
		C457.2,138.3,458,138.1,458.9,138.1z"/>
	<path class="st4" d="M468.4,135.9c-0.7,0.4-1.5,0.6-2.4,0.7c-0.8,0.3-1.6,0.3-2.5,0.2C465.1,136.1,466.8,135.8,468.4,135.9z"/>
	<path class="st4" d="M478.2,135.3c-0.8,0.3-1.6,0.4-2.5,0.3c-0.8,0.1-1.7,0-2.5-0.2c0.8-0.3,1.6-0.4,2.5-0.3
		C476.6,135,477.4,135.1,478.2,135.3z"/>
	<path class="st4" d="M488,136.5c-0.8,0.1-1.7,0.1-2.5-0.1c-0.8,0-1.6-0.3-2.4-0.6C484.8,135.6,486.5,135.9,488,136.5L488,136.5z"/>
	<path class="st4" d="M497.4,139.3c-1.6-0.2-3.2-0.8-4.6-1.6c0.8,0,1.7,0.2,2.4,0.6C496,138.4,496.7,138.8,497.4,139.3z"/>
	<path class="st4" d="M506.1,143.8c-0.8-0.2-1.6-0.5-2.3-1c-0.8-0.3-1.4-0.8-2-1.4c0.8,0.2,1.6,0.5,2.3,1
		C505.3,143,506.2,143.6,506.1,143.8z"/>
	<path class="st4" d="M513.8,149.8c-0.8-0.3-1.4-0.8-2-1.4c-1-0.9-1.8-1.7-1.7-1.8s1,0.5,2,1.4C513.2,148.9,513.9,149.7,513.8,149.8
		z"/>
	<path class="st4" d="M518.7,155.4c-0.1,0.1-0.5-0.3-1-0.8s-0.7-1.1-0.6-1.1s0.5,0.3,1,0.8S518.8,155.4,518.7,155.4z"/>
	<path class="st4" d="M564.9,215.7c-0.8-0.1-1.6-0.4-2.4-0.8c-1.3-0.6-2.2-1.2-2.2-1.3c0.8,0.1,1.6,0.4,2.4,0.8
		C563.6,214.7,564.3,215.1,564.9,215.7z"/>
	<path class="st4" d="M574.4,219c-1.7-0.2-3.3-0.6-4.8-1.5C571.3,217.7,572.9,218.2,574.4,219z"/>
	<path class="st4" d="M584.2,220.6c-0.8,0.2-1.7,0.2-2.5,0c-0.8,0-1.7-0.2-2.5-0.5c0.8-0.2,1.7-0.2,2.5,0
		C582.6,220,583.5,220.2,584.2,220.6z"/>
	<path class="st4" d="M594.2,220.2c-0.8,0.3-1.6,0.5-2.5,0.4c-0.8,0.2-1.7,0.1-2.5-0.1c0.8-0.3,1.6-0.5,2.5-0.4
		C592.6,220,593.4,220,594.2,220.2z"/>
	<path class="st4" d="M604,218.4c-0.7,0.4-1.5,0.7-2.4,0.8c-0.8,0.3-1.7,0.3-2.5,0.2c0.7-0.4,1.6-0.7,2.4-0.8
		C602.4,218.5,603.2,218.3,604,218.4z"/>
	<path class="st4" d="M613.3,214.7c0.1,0.1-0.9,0.7-2.2,1.3c-0.7,0.4-1.5,0.7-2.4,0.8C610.1,215.8,611.7,215.1,613.3,214.7z"/>
	<path class="st4" d="M621.6,209.1c0.1,0.1-0.7,0.9-1.8,1.8c-0.6,0.6-1.4,1-2.2,1.2c-0.1-0.1,0.8-0.8,1.9-1.6
		C620.1,209.9,620.8,209.5,621.6,209.1z"/>
	<path class="st4" d="M628.4,201.8c-0.3,0.8-0.7,1.5-1.3,2.1c-0.9,1.1-1.8,1.8-1.8,1.7s0.6-1,1.5-2S628.3,201.8,628.4,201.8z"/>
	<path class="st4" d="M633.1,193c0,0.9-0.3,1.7-0.7,2.4c-0.3,0.8-0.7,1.5-1.3,2.1c0.1-0.8,0.4-1.6,0.9-2.4
		C632.2,194.4,632.6,193.7,633.1,193z"/>
	<path class="st4" d="M635,183.3c0.2,0.8,0.3,1.7,0.1,2.5c0,0.9-0.2,1.7-0.6,2.4c-0.1-0.8-0.1-1.7,0.1-2.5
		C634.6,184.9,634.7,184.1,635,183.3z"/>
	<path class="st4" d="M633.5,173.4c0.5,0.7,0.8,1.5,0.9,2.4c0.3,0.8,0.3,1.7,0.2,2.5c-0.4-0.8-0.6-1.6-0.7-2.4
		C633.6,175.1,633.5,174.2,633.5,173.4z"/>
	<path class="st4" d="M629.2,164.4c0.1-0.1,0.9,0.8,1.6,2c0.5,0.7,0.8,1.5,0.9,2.3c-0.1,0.1-0.7-0.9-1.4-2.1
		C629.8,166,629.4,165.2,629.2,164.4z"/>
	<path class="st4" d="M622.2,157.3c0.8,0.3,1.5,0.7,2.1,1.4c1.1,0.9,1.8,1.8,1.7,1.9s-1-0.6-2-1.5S622.1,157.4,622.2,157.3z"/>
	<path class="st4" d="M613.2,153.2c0.9-0.1,1.7,0.1,2.5,0.4c0.8,0.2,1.6,0.6,2.2,1.1c-0.8-0.1-1.6-0.3-2.4-0.7
		C614.7,154,613.9,153.7,613.2,153.2z"/>
	<path class="st4" d="M603.2,153.4c0.7-0.5,1.6-0.7,2.4-0.7c0.8-0.2,1.7-0.2,2.5,0.1C606.5,153.1,604.9,153.4,603.2,153.4
		L603.2,153.4z"/>
	<path class="st4" d="M594.6,158.2c-0.1-0.1,0.6-1,1.7-1.9c0.6-0.6,1.4-1,2.3-1.1c0.1,0.1-0.9,0.8-2,1.6S594.7,158.3,594.6,158.2z"
		/>
	<path class="st4" d="M590.7,167.2c-0.2-0.8-0.1-1.7,0.2-2.5c0.1-0.9,0.5-1.7,1-2.3c-0.1,0.8-0.3,1.6-0.5,2.4
		C591.2,165.6,591,166.4,590.7,167.2z"/>
	<path class="st4" d="M592.6,176.9c-0.6-0.6-1-1.4-1.2-2.2c-0.4-0.8-0.5-1.6-0.4-2.5c0.4,0.7,0.7,1.5,0.9,2.3
		C592.2,175.3,592.5,176.1,592.6,176.9z"/>
	<path class="st4" d="M599.2,184.3c-0.8-0.3-1.6-0.7-2.2-1.3c-1.1-0.9-1.7-1.9-1.6-1.9s0.9,0.7,1.9,1.6S599.2,184.2,599.2,184.3z"/>
	<path class="st4" d="M608.2,188.4c-0.9,0-1.7-0.1-2.5-0.5c-0.8-0.2-1.6-0.6-2.2-1.1c0.8,0.1,1.6,0.3,2.4,0.7
		C606.7,187.6,607.5,188,608.2,188.4z"/>
	<path class="st4" d="M618.2,189.4c-1.6,0.4-3.4,0.4-5-0.1c0.8-0.2,1.7-0.2,2.5-0.1C616.5,189.1,617.3,189.1,618.2,189.4z"/>
	<path class="st4" d="M628,187.5c-1.5,0.8-3.1,1.3-4.8,1.2c0.7-0.4,1.5-0.7,2.4-0.8C626.3,187.7,627.2,187.5,628,187.5z"/>
	<path class="st4" d="M637,183.4c-0.6,0.6-1.3,1.1-2.1,1.4c-0.7,0.5-1.5,0.8-2.3,0.9C633.9,184.6,635.4,183.8,637,183.4L637,183.4z"
		/>
	<path class="st4" d="M645,177.4c0.1,0.1-0.7,0.9-1.8,1.8c-0.6,0.6-1.3,1.1-2.1,1.4c-0.1-0.1,0.7-0.9,1.8-1.8
		C643.5,178.2,644.2,177.7,645,177.4z"/>
	<path class="st4" d="M651.8,170.1c0.1,0.1-0.5,1-1.4,2.1s-1.7,1.8-1.8,1.7s0.5-1,1.4-2.1S651.7,170,651.8,170.1z"/>
	<path class="st4" d="M657.3,161.8c-0.2,0.8-0.6,1.6-1.1,2.3c-0.7,1.2-1.4,2.1-1.5,2c0.2-0.8,0.6-1.6,1.1-2.3
		C656.5,162.6,657.2,161.7,657.3,161.8z"/>
	<path class="st4" d="M661.4,152.6c-0.1,0.8-0.3,1.7-0.7,2.4c-0.2,0.8-0.6,1.6-1.2,2.2c0.1-0.8,0.3-1.7,0.7-2.4
		C660.5,154.1,660.9,153.3,661.4,152.6z"/>
	<path class="st4" d="M664.2,143c0.1,0.8-0.1,1.7-0.4,2.5c-0.1,0.8-0.4,1.6-0.9,2.4C663,146.2,663.4,144.5,664.2,143z"/>
	<path class="st4" d="M665.9,133.2c0.1,0.8,0.1,1.7-0.1,2.5c0,0.8-0.3,1.7-0.6,2.4c-0.1-0.8-0.1-1.7,0.1-2.5
		C665.4,134.8,665.6,134,665.9,133.2z"/>
	<path class="st4" d="M666.9,123.2c0.2,1.7,0.1,3.4-0.4,5c-0.2-0.8-0.2-1.7-0.1-2.5C666.4,124.9,666.5,124,666.9,123.2z"/>
	<path class="st4" d="M667.2,113.2c0.2,0.8,0.3,1.7,0.2,2.5c0.1,0.8,0,1.7-0.3,2.5c-0.2-0.8-0.3-1.7-0.2-2.5
		C666.8,114.9,666.9,114.1,667.2,113.2z"/>
	<path class="st4" d="M667.1,103.2c0.3,0.8,0.4,1.7,0.3,2.5c0.1,0.8,0,1.7-0.2,2.5c-0.3-0.8-0.4-1.7-0.3-2.5
		C666.8,104.9,666.9,104.1,667.1,103.2z"/>
	<path class="st4" d="M667,97.1c0.1,0,0.3,0.2,0.3,0.6s-0.1,0.6-0.2,0.6s-0.3-0.2-0.3-0.6S666.8,97.1,667,97.1z"/>
	<rect x="623.2" y="71" transform="matrix(0.9942 -0.108 0.108 0.9942 -6.3079 71.546)" class="st3" width="68.4" height="46.1"/>
	<path class="st4" d="M625.8,120.7L625.8,120.7l-5-45.8l0,0l68-7.4l0,0l5,45.8l0,0L625.8,120.7z M620.9,74.8l5,45.8l67.9-7.4
		l-5-45.8L620.9,74.8z"/>
	<path class="st4" d="M689.2,68c-0.2,0.2-0.4,0.5-0.6,0.7l-1.7,1.9l-6.4,6.8l-21.3,22.2l-0.2,0.2l-0.2-0.1l-0.5-0.3L632,82.5l-8-5.2
		l-2.1-1.4c-0.3-0.2-0.5-0.3-0.7-0.5c0.3,0.1,0.5,0.3,0.8,0.4l2.2,1.3l8,5l26.4,16.7l0.5,0.3h-0.4L680.2,77l6.5-6.6l1.8-1.8
		C688.7,68.4,688.9,68.2,689.2,68z"/>
	<path class="st4" d="M626.2,121.2c-0.1-0.1,4.3-6.9,9.9-15.3s10.3-15,10.4-14.9s-4.3,6.9-9.9,15.3S626.3,121.3,626.2,121.2z"/>
	<path class="st4" d="M669,88c0.1-0.1,5.9,5.6,12.8,12.7s12.5,13,12.3,13.1s-5.8-5.6-12.8-12.7S668.9,88.1,669,88z"/>
</g>
<g id="freepik--envelope-2--inject-2">
	<path class="st4" d="M378.5,206.4c0.1,0,0.4,0.5,0.5,1.2s0.1,1.2,0,1.3s-0.4-0.5-0.5-1.2S378.3,206.4,378.5,206.4z"/>
	<path class="st4" d="M376.9,196.6c0.4,0.7,0.6,1.6,0.6,2.4c0.2,0.8,0.3,1.7,0.1,2.5c-0.4-0.7-0.6-1.6-0.6-2.4
		C376.8,198.3,376.7,197.4,376.9,196.6z"/>
	<path class="st4" d="M375.4,186.8c0.4,0.8,0.6,1.6,0.6,2.4c0.2,0.8,0.2,1.7,0.1,2.5c-0.4-0.8-0.6-1.6-0.6-2.4
		C375.3,188.5,375.3,187.6,375.4,186.8z"/>
	<path class="st4" d="M374.3,177c0.3,0.8,0.5,1.6,0.5,2.4c0.2,0.8,0.2,1.7,0,2.5c-0.3-0.8-0.5-1.6-0.5-2.4
		C374.2,178.7,374.2,177.8,374.3,177z"/>
	<path class="st4" d="M373.6,167.1c0.4,1.6,0.5,3.3,0.3,4.9C373.5,170.5,373.4,168.8,373.6,167.1z"/>
	<path class="st4" d="M373.5,157.2c0.3,1.6,0.3,3.4,0,5c-0.3-0.8-0.3-1.6-0.2-2.5C373.2,158.9,373.3,158,373.5,157.2z"/>
	<path class="st4" d="M374.1,147.4c0.2,0.8,0.2,1.7,0,2.5c0,0.8-0.1,1.7-0.5,2.4c-0.2-0.8-0.2-1.7-0.1-2.5
		C373.7,149,373.8,148.1,374.1,147.4z"/>
	<path class="st4" d="M375.6,137.6c0.1,0.8,0.1,1.7-0.2,2.5c-0.1,0.8-0.3,1.7-0.7,2.4C374.7,140.8,375,139.1,375.6,137.6
		L375.6,137.6z"/>
	<path class="st4" d="M378.2,128.1c0,0.8-0.1,1.7-0.5,2.4c-0.2,0.8-0.5,1.6-1,2.3c0-0.8,0.1-1.7,0.5-2.4
		C377.4,129.5,377.7,128.7,378.2,128.1z"/>
	<path class="st4" d="M381.9,118.9c-0.1,0.8-0.3,1.6-0.8,2.4c-0.3,0.8-0.7,1.5-1.2,2.2C380.2,121.8,380.9,120.2,381.9,118.9
		L381.9,118.9z"/>
	<path class="st4" d="M386.7,110.3c-0.2,0.8-0.6,1.6-1,2.2c-0.7,1.2-1.4,2-1.5,2c0.2-0.8,0.6-1.6,1.1-2.2
		C385.9,111.1,386.5,110.2,386.7,110.3z"/>
	<path class="st4" d="M392.6,102.3c0.1,0.1-0.5,1-1.3,2.1s-1.6,1.8-1.8,1.8c0.3-0.8,0.8-1.5,1.4-2.1
		C391.7,103.1,392.5,102.3,392.6,102.3z"/>
	<path class="st4" d="M399.6,95.4c0.1,0.1-0.6,0.9-1.6,1.9s-1.9,1.6-2,1.5s0.6-0.9,1.6-1.9S399.5,95.3,399.6,95.4z"/>
	<path class="st4" d="M407.7,89.7c0.1,0.1-0.8,0.8-2,1.6c-0.7,0.5-1.4,0.9-2.2,1.1c-0.1-0.1,0.8-0.8,1.9-1.6
		C406.1,90.3,406.9,89.9,407.7,89.7z"/>
	<path class="st4" d="M416.7,85.7c-0.6,0.5-1.4,0.9-2.2,1.1c-0.7,0.4-1.6,0.6-2.4,0.7c0.7-0.5,1.4-0.9,2.2-1.1
		C415.1,85.9,415.9,85.7,416.7,85.7z"/>
	<path class="st4" d="M423.9,83.9c0,0.1-0.5,0.4-1.2,0.5s-1.2,0.1-1.3,0s0.5-0.4,1.2-0.5S423.9,83.8,423.9,83.9z"/>
	
		<rect x="371.3" y="45.9" transform="matrix(0.3606 -0.9327 0.9327 0.3606 175.895 422.8345)" class="st10" width="50.1" height="74.3"/>
	<path class="st4" d="M422,119.9L422,119.9l-69.4-26.8l0,0l18.1-46.8l0,0l69.4,26.8l0,0L422,119.9z M352.7,93.1l69.3,26.8l18.1-46.7
		l-69.3-26.8L352.7,93.1z"/>
	<path class="st4" d="M440.1,73.8c-0.3,0.2-0.6,0.3-0.9,0.4l-2.6,0.9l-9.5,3.4l-31.7,10.9l-0.3,0.1l-0.1-0.2l-0.3-0.6l-17-29.4
		l-5.1-8.9l-1.4-2.5c-0.2-0.3-0.3-0.6-0.4-0.9c0.2,0.3,0.4,0.5,0.5,0.8l1.5,2.4L378,59c4.4,7.5,10.5,17.9,17.2,29.3l0.3,0.6
		l-0.4-0.2L426.9,78l9.6-3.2l2.6-0.8C439.5,73.9,439.8,73.8,440.1,73.8z"/>
	<path class="st4" d="M352.7,93.7c-0.1-0.2,7.6-4.6,17.2-9.8s17.4-9.4,17.5-9.2s-7.6,4.6-17.2,9.8S352.8,93.9,352.7,93.7z"/>
	<path class="st4" d="M410.6,83c0.2-0.1,2.9,8.3,6,18.7s5.5,18.8,5.4,18.8s-2.9-8.3-6-18.7S410.5,83.1,410.6,83z"/>
</g>
<g id="freepik--envelope-1--inject-2">
	<path class="st4" d="M349.4,217.3c0.1,0,0.2,0.6,0.2,1.3s-0.2,1.2-0.4,1.2s-0.2-0.6-0.2-1.3S349.2,217.3,349.4,217.3z"/>
	<path class="st4" d="M349.6,207.1c0.3,0.8,0.3,1.7,0.3,2.6c0.1,0.9,0,1.7-0.3,2.5c-0.3-0.8-0.3-1.7-0.2-2.5
		C349.3,208.8,349.3,207.9,349.6,207.1z"/>
	<path class="st4" d="M348.9,197c0.5,1.6,0.7,3.4,0.5,5.1c-0.3-0.8-0.5-1.6-0.5-2.5C348.7,198.7,348.7,197.8,348.9,197z"/>
	<path class="st4" d="M347.2,186.9c0.4,0.8,0.7,1.6,0.7,2.4c0.2,0.8,0.3,1.7,0.2,2.6c-0.4-0.8-0.7-1.6-0.7-2.4
		C347.2,188.7,347.1,187.8,347.2,186.9z"/>
	<path class="st4" d="M344.5,177.1c0.8,1.5,1.4,3.1,1.5,4.9c-0.5-0.7-0.8-1.5-1-2.4C344.6,178.9,344.5,178,344.5,177.1z"/>
	<path class="st4" d="M340.6,167.8c0.6,0.6,1,1.4,1.3,2.2c0.4,0.7,0.7,1.6,0.8,2.4c-0.6-0.6-1-1.4-1.3-2.2
		C340.9,169.4,340.7,168.6,340.6,167.8z"/>
	<path class="st4" d="M335.5,158.9c0.1-0.1,0.8,0.8,1.6,2c0.5,0.7,0.9,1.5,1.1,2.3c-0.1,0.1-0.8-0.9-1.5-2.1
		C336.1,160.5,335.7,159.8,335.5,158.9z"/>
	<path class="st4" d="M329.3,150.9c0.1-0.1,0.9,0.7,1.8,1.8c0.6,0.6,1.1,1.3,1.4,2.1c-0.1,0.1-0.9-0.7-1.8-1.8
		C330.1,152.4,329.6,151.7,329.3,150.9z"/>
	<path class="st4" d="M322,143.8c0.1-0.1,1,0.6,2.1,1.5s1.8,1.8,1.7,1.9c-0.8-0.4-1.5-0.9-2.1-1.5
		C322.6,144.8,321.9,143.9,322,143.8z"/>
	<path class="st4" d="M313.7,137.9c0.8,0.2,1.6,0.6,2.3,1.2c1.2,0.8,2.1,1.5,2,1.6c-0.8-0.2-1.6-0.7-2.3-1.2
		C314.5,138.7,313.6,138,313.7,137.9z"/>
	<path class="st4" d="M304.7,133.3c0.9,0.1,1.7,0.4,2.4,0.8c0.8,0.3,1.6,0.7,2.2,1.3c-0.9-0.1-1.7-0.4-2.4-0.8
		C306.1,134.3,305.3,133.8,304.7,133.3z"/>
	<path class="st4" d="M295,130.2c0.9,0,1.7,0.1,2.5,0.4c0.9,0.1,1.7,0.5,2.4,0.9c-0.9,0-1.7-0.1-2.5-0.4
		C296.5,131,295.7,130.6,295,130.2z"/>
	<path class="st4" d="M284.9,128.9c1.7-0.3,3.4-0.1,5.1,0.4C288.3,129.4,286.5,129.3,284.9,128.9z"/>
	<path class="st4" d="M274.8,129.6c1.6-0.5,3.4-0.7,5.1-0.6c-0.8,0.4-1.6,0.5-2.5,0.6C276.5,129.7,275.6,129.8,274.8,129.6z"/>
	<path class="st4" d="M264.9,132.2c0.7-0.5,1.5-0.8,2.4-1c0.8-0.3,1.6-0.5,2.5-0.5c-0.7,0.5-1.5,0.8-2.4,1
		C266.6,132,265.8,132.2,264.9,132.2z"/>
	<path class="st4" d="M255.8,136.6c-0.1-0.1,0.9-0.8,2.1-1.4c0.7-0.5,1.5-0.8,2.4-1C258.9,135.3,257.4,136.1,255.8,136.6
		L255.8,136.6z"/>
	<path class="st4" d="M247.6,142.7c-0.1-0.1,0.7-0.9,1.8-1.8c0.6-0.6,1.3-1.1,2.1-1.4c0.1,0.1-0.7,0.9-1.8,1.8
		C249.2,141.9,248.4,142.4,247.6,142.7z"/>
	<path class="st4" d="M241,150.4c0.3-0.8,0.7-1.6,1.3-2.2c0.9-1.1,1.7-1.9,1.8-1.8s-0.6,1-1.4,2.1S241.1,150.5,241,150.4z"/>
	<path class="st4" d="M237.3,157c-0.1-0.1,0-0.6,0.3-1.2s0.6-1.1,0.8-1s0,0.6-0.3,1.2S237.4,157.1,237.3,157z"/>
	<path class="st4" d="M173.8,216c0-0.1,0.5-0.3,1.2-0.4s1.2,0,1.3,0.1s-0.5,0.3-1.2,0.4S173.8,216.2,173.8,216z"/>
	<path class="st4" d="M163.9,214.9c0.8,0,1.7,0.1,2.5,0.4c0.8,0.1,1.7,0.3,2.4,0.7C167.1,216.1,165.3,215.7,163.9,214.9L163.9,214.9
		z"/>
	<path class="st4" d="M154.9,210.5c0.8,0.3,1.6,0.6,2.2,1.1c1.2,0.7,2.1,1.3,2.1,1.4c-0.8-0.2-1.6-0.5-2.3-1
		C155.7,211.3,154.8,210.6,154.9,210.5z"/>
	<path class="st4" d="M147.4,203.8c0.1-0.1,0.9,0.7,1.9,1.6s1.7,1.8,1.6,1.9s-1-0.6-2-1.6S147.3,203.9,147.4,203.8z"/>
	<path class="st4" d="M141.6,195.7c0.1-0.1,0.8,0.8,1.6,2c0.5,0.7,0.9,1.4,1.2,2.2c-0.1,0.1-0.8-0.8-1.6-1.9
		C142.2,197.3,141.8,196.5,141.6,195.7z"/>
	<path class="st4" d="M137.2,186.7c0.6,0.6,1,1.4,1.2,2.2c0.4,0.7,0.7,1.6,0.8,2.4c-0.6-0.6-1-1.4-1.2-2.2
		C137.6,188.3,137.3,187.5,137.2,186.7z"/>
	<path class="st4" d="M134.4,177.1c0.5,0.7,0.8,1.5,0.9,2.4c0.3,0.8,0.4,1.6,0.4,2.5c-0.5-0.7-0.8-1.5-0.9-2.4
		C134.5,178.8,134.3,177.9,134.4,177.1z"/>
	<path class="st4" d="M132.6,167.2c0.4,0.8,0.6,1.6,0.6,2.4c0.2,0.8,0.3,1.7,0.1,2.5c-0.4-0.8-0.6-1.6-0.6-2.4
		C132.5,168.9,132.5,168,132.6,167.2z"/>
	<path class="st4" d="M131.7,157.2c0.5,1.6,0.6,3.3,0.4,5c-0.3-0.8-0.5-1.6-0.5-2.5C131.5,158.9,131.5,158,131.7,157.2z"/>
	<path class="st4" d="M131.3,149.7c0.1,0,0.3,0.6,0.3,1.2s-0.1,1.2-0.2,1.3s-0.3-0.6-0.3-1.2S131.1,149.7,131.3,149.7z"/>
	
		<rect x="87" y="91" transform="matrix(0.9989 -4.710645e-02 4.710645e-02 0.9989 -5.4658 6.1932)" class="st3" width="83.2" height="56.1"/>
	<path class="st4" d="M88.4,149.1L88.4,149.1L85.7,93l0,0l83.2-3.9l0,0l2.6,56.1l0,0L88.4,149.1z M85.8,93l2.6,56l83.1-3.9l-2.6-56
		L85.8,93z"/>
	<path class="st4" d="M169.2,89.7c-0.2,0.3-0.5,0.5-0.7,0.8l-2.2,2.1l-8.2,7.8l-27.5,25.5l-0.2,0.2l-0.2-0.2l-0.6-0.4l-30.7-22.4
		c-3.9-2.9-7-5.2-9.3-6.8l-2.5-1.9c-0.3-0.2-0.6-0.4-0.8-0.7c0.3,0.2,0.6,0.4,0.9,0.6l2.6,1.8l9.4,6.7l30.9,22.2l0.6,0.4H130
		l27.7-25.3l8.4-7.6l2.3-2C168.6,90.2,168.9,89.9,169.2,89.7z"/>
	<path class="st4" d="M88.7,149.7c-0.2-0.1,5.7-8.1,13.2-17.8s13.6-17.5,13.8-17.4s-5.7,8.1-13.2,17.8S88.9,149.8,88.7,149.7z"/>
	<path class="st4" d="M143.2,112.5c0.2-0.1,6.7,7.2,14.6,16.4s14.2,16.7,14,16.9s-6.7-7.2-14.6-16.4S143.1,112.7,143.2,112.5z"/>
</g>
<g id="freepik--Character--inject-2">
	<path class="st11" d="M234.6,288.2c0.2-1.2-0.6-2.3-1.7-2.5l-2.2,0.1l-8-2.8c-1.3-0.3-2.6,0.4-2.9,1.7c0,0.2-0.1,0.3-0.1,0.5
		c0,2.3-1,8.5-2.8,6.6l-0.1-0.1c-2.6-2.9-5.7-4.4-6.8-4.2c-0.7,0.1-1.2,0.8-1.1,1.6c0.1,0.3,0.2,0.6,0.5,0.8
		c0.1,0.1,0.3,0.3,0.5,0.3c0.1,0,0.2,0.1,0.3,0.1c1.1,0.8,2.1,1.7,3.1,2.7c0.8,0.9,1.5,1.9,2,3c0.5,1.2,0.9,2.3,1.3,3.2l0.1,7.3
		l-3.2,34.3c0,0-21.1-22.2-20.6-22.4l1.2,34.5l12.8,10.6c6.8,5.7,17,4.7,22.6-2.1c2.5-3,3.8-6.7,3.7-10.6l-0.7-44.3l0.5-5.8
		L234.6,288.2z"/>
	<path class="st11" d="M116.1,336.9L93,389.7l-18.2,38.1l-13.6,4.6c0,0-10.7,3.1-10.7,5.3s2.8,1.7,2.8,1.7c0.5,3.3,5.1,1.4,8.3,0
		c3.2-1.4,10.4-1.8,10.4-1.8c-1.3,0.9-1.7,2.7-0.8,4c0.2,0.2,0.3,0.4,0.6,0.6c1.1,0.8,3.1-0.2,4.5-1.6s4.8-2.1,8.7-3.5
		s4.5-6.5,4.5-6.5l46.2-77.9L116.1,336.9z"/>
	<path class="st3" d="M192.8,356.1l5.8,7.7l12.6-27.9c0,0-12.2-14.9-16.7-21.2s-7.8-7.3-7.8-7.3s-8.1-2.4-12.2-2.4l-20.1,1.2
		l-20.4,8.9c-5,2.2-9.3,5.8-12.3,10.3l-19.2,30.8l27.2,11.6l9.1,52.2c1.7,7.8,3.3,15.2,10.5,18.8l50.4-48.4l-5.9-9.3L192.8,356.1z"
		/>
	<path class="st4" d="M144.6,346.5c0.1,0.1-3,4.9-6.9,10.8s-7.2,10.6-7.4,10.5s3-4.9,6.9-10.8S144.5,346.4,144.6,346.5z"/>
	<path class="st4" d="M186.8,396c-0.4,0.3-0.9,0.6-1.3,0.8c-0.9,0.5-2.1,1.2-3.7,2c-3.2,1.6-7.6,3.9-12.6,6.2s-9.5,4.3-12.8,5.7
		c-1.6,0.7-3,1.3-3.9,1.6c-0.5,0.2-1,0.4-1.5,0.5c0.4-0.3,0.9-0.5,1.4-0.7l3.9-1.8c3.3-1.5,7.8-3.5,12.7-5.9s9.4-4.5,12.6-6l3.8-1.8
		C185.8,396.4,186.3,396.2,186.8,396z"/>
	<path class="st4" d="M143,335.2c-0.6-0.7-1.2-1.4-1.8-2.2c-1.3-1.8-2.8-3.5-4.5-5.1c-1.7-1.5-3.6-2.7-5.8-3.4
		c-1.6-0.5-2.8-0.5-2.8-0.6c0.3-0.1,0.5-0.1,0.8-0.1c0.7,0,1.4,0.1,2.1,0.3c2.2,0.6,4.3,1.8,6,3.4c1.7,1.6,3.2,3.3,4.4,5.3
		C142.1,333.6,142.6,334.4,143,335.2z"/>
	<path class="st4" d="M184.4,360.6c0,0.2,0,0.4,0,0.6c0,0.4,0,0.9,0,1.6c-0.1,1.9-0.4,3.9-0.8,5.8c-2.7,12.8-11.4,23.6-23.3,29
		c-1.8,0.8-3.6,1.5-5.5,2c-0.7,0.2-1.2,0.3-1.5,0.4c-0.2,0.1-0.4,0.1-0.5,0.1c0,0,0.7-0.2,2-0.7c1.8-0.6,3.6-1.3,5.4-2.2
		c11.7-5.6,20.2-16.2,23.1-28.8c0.5-1.9,0.8-3.8,1-5.7C184.3,361.4,184.4,360.6,184.4,360.6z"/>
	<g class="st8">
		<path d="M133.3,388c-0.1-0.5,6.5-34.4,6.5-34.4l-9.9,14.8"/>
	</g>
	<path class="st4" d="M191.5,323.6c0,0.2,0.1,0.4,0.1,0.6c0,0.4,0.1,1,0.1,1.7c0.1,1.5,0.2,3.6,0.3,6.1c0.2,5.3,0.6,12.4,1,20.3
		s0.7,15.1,0.8,20.3c0.1,2.6,0.1,4.7,0.1,6.2v1.7c0,0.2,0,0.4,0,0.6c0-0.2-0.1-0.4-0.1-0.6c0-0.4-0.1-1-0.1-1.7
		c-0.1-1.5-0.2-3.6-0.3-6.1c-0.2-5.3-0.6-12.4-1-20.3s-0.7-15.1-0.8-20.3c-0.1-2.6-0.1-4.7-0.1-6.2v-1.7
		C191.4,324,191.4,323.8,191.5,323.6z"/>
	<g class="st12">
		<path d="M151.3,412.8c-1.6-1.3-1.2-4.1,0.2-5.6s3.6-2.2,5.6-2.9c9.6-3.1,19.2-7.5,25.5-15.3c0.8-1.1,1.8-2.1,2.8-3
			c1.1-0.9,2.6-1.1,3.9-0.5c1.9,1,2,3.8,1.2,5.8c-1,2.5-2.9,4.5-5.3,5.8"/>
	</g>
	<g class="st12">
		<polygon points="191.7,329.6 197.3,362 192.9,356.3 		"/>
	</g>
	<path class="st13" d="M244.9,414.8l-9.4,32.4l40.3,12c0.9-3.9-17.6-17.8-17.6-17.8l7-20.6L244.9,414.8z"/>
	<g class="st14">
		<path class="st15" d="M246.1,435.9c-0.9,0-1.6,0.7-1.7,1.5c0,0.9,0.6,1.6,1.5,1.7c0.9,0,1.7-0.7,1.8-1.6c-0.1-0.9-0.8-1.6-1.8-1.6
			"/>
	</g>
	<g class="st14">
		<path class="st15" d="M235.4,447.2l1.1-3.2l38.2,12.7c0,0,1.6,1.3,1,2.5L235.4,447.2z"/>
	</g>
	<path class="st4" d="M258.8,441.3c-0.1,0.2-1.1,0-2.2,0.3s-1.9,1-2.1,0.9s0.5-1.2,1.9-1.6S258.9,441.2,258.8,441.3z"/>
	<path class="st4" d="M262.5,444.3c0,0.2-1,0.3-1.9,0.9s-1.4,1.5-1.6,1.4s0-1.2,1.2-2S262.5,444.1,262.5,444.3z"/>
	<path class="st4" d="M263.4,450.1c-0.2,0-0.2-1.1,0.6-2s1.9-1.1,1.9-0.9s-0.7,0.6-1.4,1.4S263.6,450.1,263.4,450.1z"/>
	<path class="st4" d="M259.8,436.5c-0.1,0.1-1-0.4-2.1-0.6s-2.1-0.2-2.2-0.4s1-0.6,2.3-0.3S260,436.4,259.8,436.5z"/>
	<path class="st4" d="M260.3,431.4c-0.7,0-1.4-0.2-2-0.6c-0.7-0.3-1.3-0.8-1.9-1.3c-0.4-0.3-0.7-0.6-1-1c-0.2-0.2-0.3-0.4-0.5-0.6
		c-0.2-0.4-0.1-0.8,0.2-1.1c0.3-0.2,0.7-0.3,1-0.2c0.3,0.1,0.5,0.2,0.7,0.3c0.4,0.2,0.8,0.5,1.1,0.8c0.6,0.5,1.1,1.1,1.5,1.8
		c0.4,0.6,0.7,1.3,0.7,2c-0.1,0-0.4-0.7-1.1-1.7c-0.4-0.6-0.9-1.1-1.5-1.5c-0.3-0.3-0.7-0.5-1-0.7c-0.4-0.2-0.8-0.4-0.9-0.2
		s-0.1,0.1,0,0.2c0.1,0.2,0.2,0.3,0.3,0.5c0.3,0.3,0.6,0.6,0.9,0.9c0.5,0.5,1.1,0.9,1.7,1.3C259.6,431,260.3,431.3,260.3,431.4z"/>
	<path class="st4" d="M259.9,431.6c-0.2-0.7-0.2-1.4,0-2.1c0.2-0.8,0.5-1.5,0.9-2.1c0.3-0.4,0.5-0.7,0.9-1.1c0.4-0.5,1-0.7,1.6-0.6
		c0.4,0.1,0.6,0.4,0.7,0.8c0,0.3,0,0.5,0,0.8c-0.1,0.5-0.2,0.9-0.4,1.4c-0.3,0.7-0.8,1.3-1.5,1.8c-1.1,0.8-2,0.8-2,0.7
		s0.8-0.3,1.7-1.1c0.5-0.5,0.9-1.1,1.2-1.7c0.2-0.4,0.3-0.8,0.3-1.2c0.1-0.5,0-0.8-0.2-0.8s-0.6,0.2-0.9,0.5
		c-0.3,0.3-0.6,0.6-0.8,0.9c-0.4,0.6-0.8,1.2-1,1.9C260.1,430.8,260,431.6,259.9,431.6z"/>
	<path class="st4" d="M286.2,366.5c1,7.5-1.5,15.9-4.2,23L264.3,431l-19.6-3c0,0-4.1,4.5-9.3,6.3c-2.3,0.8-10,2.3-16.3-2.3l0,0
		c0,0-8.9,12.4-23,16.2s-35.3,5.8-45.6-10.6l49-47.2c1,0.2,42.2-27.6,64.5-33.9C264.1,356.5,284.3,352.8,286.2,366.5z"/>
	<path class="st5" d="M243.3,427.8c0,0,0.1-0.1,0.3-0.2l0.8-0.4c0.7-0.4,1.8-0.9,3.1-1.6c1.6-0.9,3.2-1.8,4.7-2.9
		c2-1.4,3.8-3,5.3-4.9c1.8-2.3,3-5,3.4-7.9c0.5-3.3,0.4-6.7-0.4-10c-0.7-3.7-2.6-7-5.4-9.4c-3.2-2.4-7-3.7-11-3.9
		c-2-0.2-4-0.1-6.1,0c-2,0.2-3.9,0.5-5.8,1c-3.6,0.9-7.1,2.2-10.6,3.6c-6.5,2.9-12.2,5.9-17.2,8.1c-3.9,1.8-8,3.1-12.1,4
		c-0.7,0.2-1.4,0.3-2,0.4s-1.1,0.2-1.5,0.2l-0.9,0.1h-0.3l0.3-0.1l0.9-0.1c0.4-0.1,0.9-0.1,1.4-0.2s1.2-0.2,2-0.4
		c4.1-1,8.1-2.4,12-4.2c4.9-2.2,10.6-5.3,17.1-8.2c3.4-1.5,7-2.8,10.6-3.7c1.9-0.5,3.9-0.8,5.9-1c2-0.2,4.1-0.2,6.1,0
		c4.1,0.2,8,1.6,11.3,4c1.5,1.2,2.8,2.7,3.7,4.5c0.9,1.6,1.5,3.4,1.9,5.2c0.8,3.3,0.9,6.8,0.4,10.2c-0.5,3-1.7,5.7-3.6,8.1
		c-1.5,1.9-3.4,3.6-5.4,4.9c-1.5,1-3.1,2-4.7,2.8c-1.3,0.7-2.4,1.2-3.1,1.5l-0.8,0.4C243.5,427.8,243.4,427.8,243.3,427.8z"/>
	<path class="st5" d="M255.6,373.4c-1.2,2.3-2.6,4.6-4.1,6.7c-1.4,2.2-2.9,4.4-4.5,6.4c1.2-2.3,2.6-4.6,4.1-6.7
		C252.4,377.5,253.9,375.4,255.6,373.4z"/>
	<path class="st5" d="M241.4,424.5c-1.2,0.4-2.4,0.7-3.6,0.9c-2.2,0.5-5.2,1.4-8.5,2.5s-6.1,2.4-8.2,3.3s-3.3,1.6-3.4,1.5
		c0.2-0.2,0.5-0.4,0.8-0.5c0.6-0.3,1.4-0.8,2.4-1.3c5.3-2.7,10.9-4.6,16.7-5.9c1.1-0.2,2-0.4,2.6-0.5
		C240.8,424.6,241.1,424.5,241.4,424.5z"/>
	<path class="st5" d="M263.9,428.3c-0.1,0-0.3-0.9-1.1-2.1c-2.2-3.3-6.4-4.7-10.1-3.3c-1.4,0.5-2.1,1.1-2.2,1s0.1-0.2,0.5-0.5
		c0.5-0.4,1-0.7,1.6-0.9c3.9-1.7,8.4-0.2,10.5,3.5c0.3,0.5,0.6,1.1,0.7,1.6C264,428,264,428.3,263.9,428.3z"/>
	<path class="st5" d="M179.4,412.8c0.1,0.3,0.2,0.6,0.3,0.9c0.1,0.9,0.2,1.7,0.2,2.6c0,2.9-0.8,5.8-2.3,8.4
		c-1.5,2.5-3.9,4.5-6.7,5.4c-0.8,0.3-1.7,0.5-2.6,0.5c-0.3,0.1-0.7,0.1-1,0c1.2-0.2,2.3-0.4,3.4-0.8c2.7-1,4.9-2.9,6.4-5.4
		c1.5-2.5,2.3-5.2,2.4-8.1C179.6,414.1,179.3,412.8,179.4,412.8z"/>
	<path class="st5" d="M157.3,435.2c-0.1,0.1-0.6-0.4-1.1-1s-0.8-1.3-0.6-1.4s0.6,0.4,1.1,1.1S157.4,435.1,157.3,435.2z"/>
	<path class="st5" d="M161.4,439.6c-0.1,0.1-0.6-0.3-1.2-0.9s-1-1.1-0.9-1.2s0.7,0.3,1.3,0.9S161.5,439.5,161.4,439.6z"/>
	<path class="st5" d="M166.3,443.1c-0.1,0.1-0.7-0.1-1.4-0.6s-1.2-0.9-1.1-1s0.7,0.2,1.4,0.6S166.4,443,166.3,443.1z"/>
	<path class="st5" d="M171.8,445.4c0,0.1-0.7,0-1.5-0.3s-1.4-0.6-1.3-0.8s0.7,0,1.5,0.3S171.8,445.3,171.8,445.4z"/>
	<path class="st5" d="M177.7,446.4c0,0.1-0.7,0.2-1.5,0.1s-1.5-0.2-1.5-0.4s0.7-0.2,1.5-0.1S177.7,446.2,177.7,446.4z"/>
	<path class="st5" d="M183.7,446c0,0.1-0.6,0.3-1.5,0.4c-0.4,0-0.7,0-1.1,0l0,0c-0.2,0-0.4-0.1-0.4-0.1s0.1-0.1,0.4-0.2l0,0
		c0.4-0.1,0.7-0.1,1.1-0.2C183,445.8,183.6,445.9,183.7,446z"/>
	<path class="st5" d="M189.6,445c0,0.1-0.6,0.4-1.4,0.6s-1.5,0.2-1.5,0.1s0.6-0.4,1.4-0.6S189.5,444.8,189.6,445z"/>
	<path class="st5" d="M195.3,443.2c0,0.1-0.6,0.5-1.3,0.7s-1.5,0.4-1.5,0.2s0.6-0.5,1.3-0.7S195.2,443.1,195.3,443.2z"/>
	<path class="st5" d="M200.8,440.9c0.1,0.1-0.5,0.5-1.2,0.9s-1.4,0.5-1.5,0.4s0.5-0.5,1.3-0.9S200.8,440.8,200.8,440.9z"/>
	<path class="st5" d="M206.1,438c0.1,0.1-0.4,0.6-1.2,1s-1.4,0.6-1.4,0.5s0.4-0.6,1.2-1S206,437.9,206.1,438z"/>
	<path class="st5" d="M211,434.6c0.1,0.1-0.4,0.6-1.1,1.1s-1.3,0.8-1.4,0.7s0.4-0.6,1.1-1.1S210.9,434.5,211,434.6z"/>
	<path class="st5" d="M215.6,430.8c0.1,0.1-0.3,0.6-1,1.2s-1.2,0.9-1.3,0.8s0.3-0.6,1-1.2S215.5,430.7,215.6,430.8z"/>
	<path class="st5" d="M220,426.7c0.1,0.1-0.3,0.7-0.9,1.2s-1.2,0.9-1.3,0.8s0.3-0.6,0.9-1.2S219.9,426.6,220,426.7z"/>
	<path class="st5" d="M224.7,423c0.1,0.1-0.4,0.6-1.1,1.1s-1.3,0.8-1.4,0.7s0.4-0.6,1.1-1.1S224.7,422.9,224.7,423z"/>
	<path class="st5" d="M230,420.1c0.1,0.1-0.5,0.5-1.2,0.9s-1.4,0.6-1.5,0.4s0.5-0.5,1.2-0.9S229.9,420,230,420.1z"/>
	<path class="st5" d="M235.7,418.3c0,0.1-0.6,0.4-1.4,0.6s-1.5,0.2-1.5,0.1s0.6-0.4,1.4-0.6S235.7,418.2,235.7,418.3z"/>
	<path class="st5" d="M241.7,418c0,0.1-0.7,0.2-1.5,0.2s-1.5-0.1-1.5-0.2s0.7-0.3,1.5-0.3S241.7,417.9,241.7,418z"/>
	<path class="st5" d="M247.5,419.5c-0.1,0.1-0.7-0.1-1.5-0.3s-1.4-0.5-1.4-0.7s0.7-0.1,1.5,0.2S247.5,419.4,247.5,419.5z"/>
	<path class="st5" d="M246.2,423.9c-0.1-0.1,0.4-0.6,0.9-1.2s1-1.1,1.1-1s-0.1,0.7-0.7,1.4S246.3,424,246.2,423.9z"/>
	<path class="st5" d="M240.9,426.6c0-0.1,0.5-0.5,1.3-0.8s1.4-0.5,1.5-0.3s-0.5,0.5-1.3,0.8S241,426.8,240.9,426.6z"/>
	<path class="st5" d="M235.2,428.5c0-0.1,0.6-0.5,1.3-0.7s1.5-0.4,1.5-0.2s-0.6,0.5-1.3,0.7S235.2,428.6,235.2,428.5z"/>
	<path class="st5" d="M229.6,430.6c-0.1-0.1,0.5-0.5,1.3-0.8s1.4-0.4,1.5-0.3s-0.5,0.5-1.3,0.8S229.6,430.8,229.6,430.6z"/>
	<path class="st5" d="M224.1,433c-0.1-0.1,0.5-0.5,1.3-0.8s1.4-0.5,1.5-0.4s-0.5,0.5-1.3,0.8S224.1,433.1,224.1,433z"/>
	<path class="st5" d="M212.9,261.5c0,0,6.5-2,15.2-11.6s12.2-22,13.3-22s6-2.7,17,17.3s7.7,25.1,5.8,25.2s-15-2.5-23-1
		s-18,6.5-18,6.5L212.9,261.5z"/>
	<path class="st4" d="M199.6,273.8l2.6,4.1l1.2,1.9c1.6,2.5,4.9,3.4,7.5,2l13.9-6l-9.7-18.3l-13.7,8.6
		C198.7,267.7,197.9,271.1,199.6,273.8C199.6,273.8,199.6,273.8,199.6,273.8z"/>
	<path class="st4" d="M208.3,280.1l5.2,8.6l2.2-0.8l15.7,11l3.5-8.5c0,0-9-3.1-10.9-6.1s0-3.9,0-3.9l-4.5-4.4L208.3,280.1z"/>
	<path class="st4" d="M257.8,245.5c5.9,10.8,8.7,20.7,6.4,22s-9.1-6.4-15-17.3s-8.7-20.7-6.4-22S251.9,234.7,257.8,245.5z"/>
	<polygon class="st5" points="198.8,280.1 202.6,278.6 199.9,274.3 197.1,276.3 	"/>
	<polygon class="st5" points="221.2,277.5 211.3,284.9 209.8,282.5 	"/>
	<polygon class="st5" points="199.9,274.3 202.6,278.6 201.8,278.9 199.6,274.5 	"/>
	<path class="st5" d="M202.6,275.1c1.5-0.5,2.9-1.2,4.2-2c1.4-0.7,2.7-1.5,3.9-2.4c-1.5,0.5-2.9,1.2-4.2,2
		C205.2,273.3,203.9,274.2,202.6,275.1z"/>
	<path class="st5" d="M201.2,272.5c1.3-0.5,2.6-1.1,3.8-1.9c1.3-0.7,2.4-1.4,3.5-2.4C205.9,269.3,203.5,270.8,201.2,272.5
		L201.2,272.5z"/>
	<path class="st5" d="M204.3,277.8c0.4,0,0.8-0.2,1.2-0.4l1.2-0.5c0.5-0.2,0.9-0.5,1.4-0.8c1.3-0.6,2.5-1.4,3.5-2.3
		c-1.3,0.5-2.6,1.1-3.8,1.9c-0.5,0.3-1,0.6-1.4,0.8s-0.9,0.4-1.2,0.6C204.7,277.5,204.3,277.8,204.3,277.8z"/>
	<path class="st5" d="M247.2,243.8c0,0,5.5-4,9.3,3.6s-2.2,9.3-2.2,9.3C251.3,252.7,249,248.4,247.2,243.8z"/>
	<path class="st4" d="M240.4,234.9c0.1,0.5,0.2,1,0.3,1.5c0.3,0.9,0.6,2.3,1.1,4c0.3,0.8,0.6,1.7,1,2.7l0.6,1.5
		c0.1,0.2,0.2,0.5,0.3,0.8s0.2,0.5,0.4,0.8l1.6,3.3c0.1,0.3,0.3,0.6,0.4,0.9s0.3,0.6,0.5,0.8l1,1.7l1,1.7c0.2,0.3,0.3,0.6,0.5,0.8
		s0.4,0.5,0.5,0.8l2.1,3c0.2,0.2,0.3,0.5,0.5,0.7l0.5,0.6l1,1.2l1.8,2.2c1.2,1.3,2.2,2.2,2.9,2.9c0.3,0.4,0.7,0.7,1.1,1
		c-0.3-0.4-0.6-0.8-1-1.1l-2.8-3l-1.7-2.3l-1-1.2l-0.5-0.6c-0.2-0.2-0.3-0.5-0.5-0.7l-2-3l-0.5-0.8c-0.2-0.3-0.3-0.6-0.5-0.8l-1-1.7
		c-0.3-0.6-0.7-1.1-1-1.7c-0.1-0.3-0.3-0.6-0.5-0.8s-0.3-0.6-0.4-0.9l-1.6-3.2c-0.1-0.3-0.3-0.5-0.4-0.8s-0.2-0.5-0.3-0.8
		c-0.2-0.5-0.4-1-0.6-1.5l-1.1-2.6c-0.5-1.6-0.9-3-1.3-3.9C240.8,235.9,240.6,235.4,240.4,234.9z"/>
	<path class="st11" d="M225.5,280.4c0.9,0.3,1.4,1.2,1.2,2c-0.4,1.7-1.1,4.4-1.7,6c-0.2,0.5-0.4,1-0.8,1.5c-0.4,0.6-1.3,0.8-1.9,0.4
		c-0.4-0.2-0.6-0.6-0.6-1.1c-0.1-0.6,0-1.2,0.1-1.7c0.4-1.6,1-4,1.6-5.9C223.7,280.7,224.6,280.2,225.5,280.4
		C225.5,280.4,225.5,280.4,225.5,280.4L225.5,280.4z"/>
	<path class="st11" d="M228.2,283.2c0.9,0.3,1.4,1.2,1.2,2c-0.4,1.7-1.1,4.4-1.7,6c-0.2,0.5-0.4,1-0.8,1.5c-0.4,0.4-0.9,0.7-1.5,0.6
		c-0.6-0.2-1-0.7-1.1-1.3c-0.1-0.6,0-1.2,0.1-1.7c0.4-1.6,1-4,1.6-5.9C226.4,283.4,227.3,282.9,228.2,283.2L228.2,283.2z"/>
	<path class="st11" d="M230.9,284.9c0.8,0.2,1.2,1,1,1.8c-0.4,1.5-1,3.8-1.5,5.2c-0.1,0.5-0.4,0.9-0.6,1.3c-0.4,0.5-1.1,0.7-1.7,0.3
		c-0.3-0.2-0.5-0.6-0.5-0.9c-0.1-0.5,0-1,0.1-1.5c0.3-1.4,0.9-3.4,1.4-5.1C229.2,285.1,230.1,284.6,230.9,284.9L230.9,284.9z"/>
	<path class="st11" d="M233.8,285.2c0.8,0.2,1.2,1,1,1.8c-0.4,1.5-1,3.8-1.5,5.2c-0.1,0.5-0.4,0.9-0.6,1.3c-0.4,0.6-1.1,0.7-1.7,0.3
		c-0.3-0.2-0.5-0.6-0.5-1c-0.1-0.5,0-1,0.1-1.5c0.3-1.4,0.9-3.5,1.4-5.1C232.2,285.4,233,285,233.8,285.2
		C233.8,285.2,233.8,285.2,233.8,285.2L233.8,285.2z"/>
	<path class="st16" d="M224.6,290c0.1-1.1,0.3-2.2,0.7-3.2c0.3-1.1,0.7-2.1,1.2-3c-0.1,1.1-0.3,2.2-0.7,3.2
		C225.6,288,225.2,289.1,224.6,290z"/>
	<path class="st16" d="M230.2,292.3c0.5-2.1,1.1-4.2,1.9-6.3C232,288.2,231.3,290.4,230.2,292.3L230.2,292.3z"/>
	<path class="st16" d="M227.4,291.9c0.5-2.1,1.1-4.2,1.9-6.3C229.2,287.8,228.6,290,227.4,291.9z"/>
	<path class="st4" d="M278.2,207.4c0.1,0.1-4,5.6-9.2,12.4s-9.5,12.2-9.6,12.1s4-5.6,9.1-12.4S278.1,207.3,278.2,207.4z"/>
	<path class="st4" d="M305.1,223.2c0.1,0.1-8.6,4.3-19.3,9.2s-19.4,8.9-19.5,8.8s8.6-4.3,19.2-9.2S305,223.1,305.1,223.2z"/>
	<path class="st4" d="M301.1,256.2c0,0.1-6.2-0.3-13.7-1.1s-13.7-1.4-13.7-1.6s6.2,0.3,13.7,1.1S301.1,256.1,301.1,256.2z"/>
	<path class="st11" d="M143.4,274.8l6.8,38.6c1.2,6.7,7.5,11.3,14.3,10.3l0,0c6.9-0.9,11.7-7.2,10.9-14.1c0-0.1,0-0.3-0.1-0.4
		l-1.1-6.6c0,0,9.5-2.6,8.5-12.1c-0.5-4.6-2.2-14-3.9-22.5c-2-9.5-11.2-15.8-20.8-14.2l0,0c-9.7,1.6-16.3,10.7-14.7,20.4
		C143.3,274.3,143.4,274.5,143.4,274.8z"/>
	<path class="st16" d="M174.2,302.6c-4.4,0.6-9-0.2-13-2.1c0,0,3.8,6.5,13.3,4.5L174.2,302.6z"/>
	<path class="st4" d="M176.7,274.4c0.1,0.7-0.4,1.4-1.2,1.5c-0.7,0.1-1.4-0.3-1.6-1c0,0,0,0,0,0c-0.1-0.7,0.4-1.4,1.2-1.5
		C175.9,273.2,176.6,273.7,176.7,274.4C176.7,274.4,176.7,274.4,176.7,274.4z"/>
	<path class="st4" d="M177,272.1c-0.1,0.2-1.3-0.5-2.8-0.3s-2.5,1-2.7,0.9s0-0.4,0.5-0.8c0.6-0.5,1.3-0.8,2.1-0.9
		c0.8-0.1,1.6,0.1,2.2,0.5C176.9,271.7,177.1,272,177,272.1z"/>
	<path class="st4" d="M162.7,276.1c0.1,0.7-0.4,1.4-1.2,1.5c-0.7,0.1-1.4-0.3-1.6-1c0,0,0,0,0,0c-0.1-0.7,0.4-1.4,1.2-1.5
		C161.9,274.9,162.6,275.4,162.7,276.1C162.7,276.1,162.7,276.1,162.7,276.1z"/>
	<path class="st4" d="M162.7,274c-0.1,0.2-1.3-0.5-2.8-0.3s-2.5,1-2.7,0.9s0.1-0.4,0.5-0.8c0.6-0.5,1.3-0.8,2.1-0.9
		c0.8-0.1,1.6,0.1,2.2,0.4C162.6,273.6,162.8,274,162.7,274z"/>
	<path class="st4" d="M169.3,285.2c0.8-0.3,1.6-0.6,2.4-0.7c0.4-0.1,0.7-0.2,0.8-0.5c0-0.4-0.2-0.8-0.4-1.1l-1.4-2.7
		c-2-3.9-3.6-7.1-3.4-7.2s1.9,3,4,6.9c0.5,1,1,1.9,1.4,2.7c0.3,0.4,0.4,0.9,0.4,1.4c-0.1,0.3-0.3,0.5-0.6,0.6
		c-0.2,0.1-0.4,0.1-0.6,0.2C171,285.1,170.2,285.2,169.3,285.2z"/>
	<path class="st4" d="M165.1,286.7c0.2,0,0.4,1.5,1.9,2.5s3.2,0.6,3.2,0.8s-0.3,0.4-1.1,0.5c-0.9,0.1-1.9-0.1-2.7-0.6
		c-0.8-0.5-1.3-1.2-1.5-2.1C164.8,287.1,165,286.7,165.1,286.7z"/>
	<path class="st4" d="M162.4,269.1c-0.1,0.4-1.6,0.4-3.3,0.8s-3.1,1-3.3,0.7c-0.1-0.2,0.1-0.6,0.6-1c1.4-1.1,3.3-1.5,5.1-1.1
		C162.1,268.7,162.4,268.9,162.4,269.1z"/>
	<path class="st4" d="M176.2,268.8c-0.2,0.4-1.3,0.1-2.5,0.2s-2.2,0.5-2.5,0.2c-0.1-0.1,0-0.5,0.4-0.9c0.6-0.5,1.3-0.7,2-0.8
		c0.7-0.1,1.5,0.1,2.1,0.4C176.1,268.3,176.3,268.6,176.2,268.8z"/>
	<path class="st4" d="M178.8,251.7c-1.3-1-3.2-0.9-4.4,0.3c0.8-1.3,0.4-3.1-0.9-4c-1.3-0.9-2.9-1.1-4.4-0.6c-1.5,0.5-2.8,1.1-4.1,2
		c0.1-0.6-0.2-1.2-0.7-1.6c-0.5-0.3-1.1-0.5-1.7-0.5c-2.5-0.2-5,0.4-7.2,1.6c-2.4,1.3-4.6,2.8-6.7,4.5l0,0c-2.3,1.9-4.4,4.1-6.1,6.5
		l-0.1,0.1c-1.4,1.3-2.6,5.1-2.4,6.9c0.8,6.9,3.1,10.8,4.4,17.3c0,0.4,0.2,0.9,0.5,1.2c0.8,0.8,2.2,0.1,3-0.7
		c1.7-2.2,2.6-4.9,2.5-7.7c0.1-2.8-0.3-5.5-0.2-8.3v-0.2c0-0.7,0.1-1.4,0.2-2.1c0.1-0.5,1.3-4.4,5.1-5c4-0.7,11.9,3.2,15.9,2.6
		s4.1-3.4,4.1-3.4l2.3,4.7c0.5-1.9,0.7-3.9,0.4-5.9c1-0.9,1.7-2.1,2-3.4C180.7,254.4,180.1,252.7,178.8,251.7z"/>
	<path class="st11" d="M147.2,278.9c-0.2,0-6.9-1.2-5.9,5.3s7.4,4.2,7.4,4S147.2,278.9,147.2,278.9z"/>
	<path class="st16" d="M146.3,286c0,0-0.1,0.1-0.3,0.2c-0.3,0.2-0.6,0.2-0.9,0.1c-0.9-0.4-1.6-1.3-1.7-2.3c-0.1-0.6-0.1-1.1,0.1-1.7
		c0.1-0.4,0.3-0.8,0.7-1c0.3-0.1,0.6,0,0.7,0.2c0.1,0.2,0.1,0.3,0.1,0.3s0.1-0.1,0-0.4c-0.1-0.2-0.2-0.3-0.3-0.4
		c-0.2-0.1-0.4-0.1-0.7-0.1c-0.5,0.2-0.9,0.6-1,1.2c-0.2,0.6-0.2,1.2-0.1,1.9c0.1,1.2,0.9,2.2,2.1,2.6c0.4,0,0.7-0.1,1-0.3
		C146.3,286.2,146.3,286,146.3,286z"/>
	<path class="st6" d="M132.4,325.9c0.2-0.1,0.4-0.1,0.6-0.1c0.6,0,1.1,0.3,1.5,0.7c0.6,0.7,0.9,1.6,0.9,2.5
		c-0.1,1.1-0.4,2.3-0.8,3.4c-0.5,1.3-0.4,2.7,0.2,3.9c0.7,1.2,2.2,2.2,2.8,3.9c0.6,1.8,0,3.8-1.4,5c-0.8,0.6-1.7,1-2.7,1
		c-1,0-2-0.2-2.9-0.5c-0.9-0.3-1.8-0.4-2.7-0.2c-0.8,0.3-1.5,0.9-2,1.6c-0.5,0.8-1.1,1.5-1.7,2.1c-0.7,0.6-1.6,1-2.5,0.9
		c-1.7-0.1-3.2-1.1-4-2.6c-0.6-1.3-1-2.7-1-4.1c-0.1-1.3,0-2.4,0-3.4c0-0.9-0.1-1.7-0.2-2.5c-0.1-0.7-0.3-1.4-0.6-2.1
		c0.1,0.2,0.2,0.3,0.3,0.5c0.2,0.5,0.4,1,0.5,1.6c0.2,0.8,0.3,1.7,0.3,2.6c0,1,0,2.2,0.1,3.4c0,1.4,0.4,2.7,1,3.9
		c0.7,1.3,2.1,2.2,3.6,2.4c0.8,0,1.6-0.3,2.2-0.8c0.6-0.6,1.2-1.3,1.6-2.1c0.5-0.8,1.3-1.5,2.3-1.8c1-0.2,2-0.2,3,0.2
		c0.9,0.3,1.8,0.4,2.7,0.5c0.9,0,1.7-0.4,2.4-0.9c1.3-1.1,1.8-2.9,1.3-4.5c-0.5-1.5-1.9-2.5-2.7-3.9c-0.4-0.7-0.6-1.4-0.6-2.2
		c0-0.7,0.2-1.4,0.4-2c0.4-1.1,0.7-2.2,0.8-3.3c0.1-0.8-0.2-1.7-0.7-2.3c-0.3-0.4-0.8-0.7-1.3-0.8
		C132.6,325.8,132.4,325.9,132.4,325.9z"/>
	<path class="st6" d="M135.1,395.8c0,0,0.1,0.2,0.3,0.6c0.4,0.5,0.9,0.9,1.6,1.1c1,0.3,2.1,0.1,2.9-0.6c1-0.9,1.7-2.1,1.9-3.5
		c0.3-1.5,0.3-3.2,0.6-5c0.1-1,0.5-1.9,0.9-2.7c0.5-0.9,1.3-1.7,2.3-2.1c1-0.4,2.1-0.5,3.2-0.3c1.1,0.1,2.2,0.4,3.2,0.5
		c1.1,0.2,2.2,0.1,3.3-0.2c1.1-0.3,2.1-0.9,2.9-1.6c0.8-0.8,1.5-1.7,1.8-2.8c0.3-1,0.3-2.2-0.1-3.2c-0.6-2-2.3-3.5-4.4-3.9
		c-2-0.2-3.8,0.8-5.7,0.8c-0.9,0-1.8-0.2-2.6-0.6c-0.7-0.4-1.4-0.8-2.1-1.3c-1-0.9-2.2-1.6-3.5-2.1c-1-0.4-2.1-0.3-3,0.2
		c-0.6,0.3-1,0.8-1.3,1.4c-0.1,0.2-0.1,0.4-0.2,0.7c0-0.2,0-0.5,0.1-0.7c0.2-0.7,0.7-1.2,1.3-1.5c0.4-0.2,0.9-0.4,1.4-0.5
		c0.6-0.1,1.2,0,1.7,0.2c1.3,0.5,2.6,1.2,3.6,2.1c1.2,1.1,2.8,1.7,4.5,1.8c0.9-0.1,1.8-0.2,2.7-0.5c1-0.3,2-0.4,3-0.3
		c2.3,0.4,4.1,2,4.8,4.2c0.4,1.1,0.4,2.4,0.1,3.5c-0.4,1.2-1,2.2-1.9,3c-0.9,0.8-2,1.4-3.1,1.7c-1.1,0.3-2.3,0.4-3.5,0.2
		c-1.1-0.1-2.2-0.4-3.2-0.5c-1-0.2-2-0.1-3,0.2c-0.9,0.3-1.6,1-2.1,1.8c-0.4,0.8-0.8,1.7-0.9,2.6c-0.3,1.8-0.3,3.5-0.6,5
		c-0.3,1.4-1,2.7-2.1,3.6c-0.9,0.7-2,0.9-3.1,0.6c-0.7-0.2-1.2-0.6-1.6-1.2C135.2,396.3,135.1,396.1,135.1,395.8z"/>
	<path class="st6" d="M169.1,335.2c0.2-0.3,0.4-0.7,0.7-0.9c0.8-0.8,1.9-1.3,3-1.5c1.8-0.3,3.6,0.5,4.8,1.9c0.7,0.9,1.1,2,1.2,3.1
		c0,1.2,0.3,2.4,0.8,3.5c0.3,0.5,0.9,0.9,1.5,1.1c0.7,0.2,1.3,0.3,2,0.3c0.7,0,1.4,0,2.2,0.1c0.8,0,1.6,0.3,2.2,0.8
		c0.3,0.3,0.6,0.6,0.8,1c0.2,0.4,0.2,0.8,0.2,1.2c-0.1,0.8-0.4,1.6-1,2.3c-0.6,0.7-1.2,1.2-2,1.6c-0.8,0.4-1.5,0.7-2.3,1
		c-0.8,0.3-1.5,0.8-2.1,1.3c-0.6,0.6-1.1,1.3-1.2,2.1c-0.4,1.7,0,3.5-0.1,5.4c-0.1,1-0.3,1.9-0.8,2.8c-0.5,0.9-1.3,1.6-2.4,1.8
		c-1.1,0.1-2.1-0.3-2.9-1c-0.8-0.7-1.4-1.4-1.9-2.3c-0.5-0.8-1-1.7-1.5-2.5c-0.5-0.8-1.3-1.3-2.1-1.7c-0.9-0.3-1.8-0.2-2.6,0.2
		c-0.9,0.4-1.7,0.8-2.4,1.3c-0.8,0.5-1.6,0.9-2.5,1.3c-0.9,0.3-1.8,0.5-2.8,0.5c-1.8,0-3.6-0.7-5-1.8c-1.4-1-2.4-2.5-2.7-4.2
		c-0.4-1.6,0-3.4,1.2-4.6c0.6-0.5,1.3-0.9,2.1-1.1c0.7-0.2,1.4-0.3,2.1-0.4c1.3-0.1,2.6-0.5,3.7-1.2c0.9-0.8,1.6-1.8,2-3
		c0.4-1.1,0.7-2.1,1.1-3.1c0.3-0.9,0.8-1.8,1.4-2.5c0.5-0.6,1.1-1.2,1.7-1.7c0.8-0.7,1.9-1.3,3-1.5c0.4-0.1,0.8,0.1,1.1,0.3
		c-0.3-0.2-0.7-0.3-1.1-0.2c-1.1,0.2-2.1,0.8-2.9,1.5c-0.6,0.5-1.2,1.1-1.7,1.7c-0.5,0.8-1,1.6-1.3,2.5c-0.4,1-0.6,2-1,3.1
		c-0.4,1.2-1.1,2.3-2,3.1c-1.1,0.8-2.5,1.3-3.9,1.4c-1.4,0.2-2.9,0.4-4,1.4c-1,1.1-1.4,2.7-1,4.2c0.4,1.6,1.3,3,2.6,3.9
		c1.4,1,3,1.6,4.7,1.6c0.9,0,1.7-0.1,2.6-0.4c0.8-0.3,1.6-0.8,2.4-1.3c0.7-0.5,1.5-0.9,2.2-1.3c0.9-0.4,2-0.5,3-0.2
		c1,0.4,1.8,1,2.4,1.8c0.6,0.8,1.1,1.6,1.6,2.5c0.5,0.8,1.1,1.6,1.8,2.2c0.7,0.6,1.6,0.9,2.5,0.8c0.9-0.2,1.6-0.7,2-1.5
		c0.4-0.8,0.6-1.7,0.7-2.6c0.1-1.8-0.3-3.7,0.1-5.5c0.2-0.9,0.7-1.7,1.4-2.4c0.7-0.6,1.4-1,2.3-1.4c0.8-0.4,1.6-0.7,2.3-1
		c0.7-0.4,1.3-0.8,1.9-1.5c0.5-0.5,0.9-1.2,1-2c0-0.3,0-0.7-0.2-1c-0.1-0.3-0.4-0.6-0.6-0.8c-0.6-0.4-1.3-0.7-2-0.7
		c-0.7-0.1-1.4-0.1-2.1-0.1c-0.7,0-1.4-0.1-2.1-0.4c-0.7-0.2-1.3-0.7-1.6-1.2c-0.5-1.1-0.8-2.4-0.8-3.6c0-1.1-0.4-2.1-1.1-3
		c-1.1-1.4-2.8-2.1-4.5-1.9c-1.1,0.1-2.1,0.6-2.9,1.4C169.6,334.6,169.4,334.9,169.1,335.2z"/>
	<path class="st6" d="M152.3,318.4c-0.6,0.6-1.3,0.9-2.1,1c-0.8,0.2-1.7,0.2-2.5,0c-1.1-0.2-2-0.7-2.7-1.6c-0.6-0.9-0.9-1.9-1-3
		c-0.1-0.8,0-1.7,0.2-2.5c0.1-0.8,0.5-1.5,1.1-2c-0.3,0.7-0.6,1.4-0.7,2.1c-0.1,0.8-0.2,1.6-0.1,2.4c0.1,1,0.4,1.9,0.9,2.7
		c0.6,0.7,1.5,1.2,2.4,1.4c0.8,0.2,1.6,0.2,2.4,0.1C150.9,318.9,151.6,318.7,152.3,318.4z"/>
	<path class="st6" d="M195.3,315.8c0,0,0,0.1-0.1,0.3c-0.1,0.3-0.2,0.5-0.4,0.7c-0.6,0.8-1.5,1.4-2.5,1.7c-0.7,0.2-1.4,0.2-2.1,0
		c-0.8-0.2-1.5-0.6-2.1-1.1c-0.6-0.6-1.3-1-2.1-1.3c-0.8-0.2-1.7,0.1-2.1,0.8c-0.5,0.8-0.9,1.6-1.2,2.4c-0.4,0.8-1,1.5-1.8,2
		c-2.2,1.5-5.1,0.9-6.6-1.3c0-0.1-0.1-0.1-0.1-0.2c-0.2-0.3-0.4-0.6-0.4-1c0,0,0.2,0.4,0.6,0.9c0.6,0.8,1.4,1.4,2.3,1.7
		c2.2,0.7,4.6-0.3,5.6-2.4c0.4-0.9,0.8-1.7,1.3-2.5c0.3-0.4,0.7-0.8,1.2-1c0.5-0.2,1-0.2,1.5-0.1c0.8,0.3,1.6,0.8,2.3,1.4
		c0.6,0.5,1.2,0.9,1.9,1.1c0.6,0.1,1.3,0.1,1.9,0c0.9-0.2,1.8-0.7,2.4-1.4C195.2,316.2,195.3,315.8,195.3,315.8z"/>
	<path class="st6" d="M202.5,355.1c-0.4-0.2-0.8-0.4-1.1-0.7c-1-0.7-1.9-1.5-2.7-2.4c-0.6-0.6-1.1-1.3-1.6-2c-0.5-0.8-0.9-1.8-1-2.8
		c-0.2-1.1,0-2.2,0.5-3.2c0.3-0.5,0.7-1,1.1-1.3c0.5-0.3,1-0.7,1.5-0.9c0.5-0.3,0.9-0.6,1.3-1c0.4-0.4,0.6-0.8,0.8-1.3
		c0.2-1,0.3-2,0.1-3c-0.2-1-0.2-1.9-0.2-2.9c0-0.9,0.3-1.7,0.9-2.4c0.9-0.8,2.1-1.3,3.4-1.4c0.5-0.1,0.9,0.1,1.2,0.5
		c-0.4-0.2-0.8-0.3-1.2-0.3c-1.2,0.1-2.3,0.6-3.1,1.4c-0.5,0.6-0.8,1.4-0.8,2.2c0,0.9,0.1,1.9,0.2,2.8c0.2,1.1,0.2,2.2-0.1,3.2
		c-0.2,0.6-0.5,1.1-0.9,1.5c-0.4,0.4-0.9,0.8-1.4,1c-1,0.4-1.8,1.2-2.4,2.1c-0.5,0.9-0.6,1.9-0.5,2.9c0.3,1.7,1.1,3.3,2.4,4.5
		C201,353.9,202.5,355,202.5,355.1z"/>
	<path class="st6" d="M181.6,374.9c0.2,0,0.3,0,0.5,0c0.4,0,0.9,0,1.3,0.1c1.7,0.2,3.3,0.6,4.7,1.4c2.3,1.1,3.9,3.2,4.5,5.7
		c0.3,1.5,0.1,3-0.6,4.3c-0.8,1.4-2.2,2.4-3.8,2.8c-0.8,0.1-1.6,0.1-2.4-0.1c-0.7-0.2-1.4-0.2-2.1,0c-0.6,0.3-1.2,0.7-1.6,1.2
		c-0.4,0.5-0.8,1.1-1.1,1.7c-0.5,1.2-1.5,2.3-2.6,3c-1.1,0.5-2.3,0.7-3.4,0.4c-1-0.2-1.8-0.8-2.4-1.6c-0.4-0.6-0.8-1.2-0.9-1.9
		c-0.1-0.4-0.1-0.9-0.1-1.4c0-0.2,0-0.3,0.1-0.5c0,0.6,0,1.2,0.2,1.8c0.2,0.7,0.5,1.3,0.9,1.8c0.6,0.7,1.3,1.1,2.2,1.3
		c1.1,0.2,2.2,0.1,3.1-0.4c1.1-0.7,1.9-1.7,2.4-2.8c0.6-1.4,1.7-2.5,3-3.2c0.8-0.3,1.6-0.3,2.4,0c0.7,0.2,1.5,0.3,2.2,0.1
		c1.4-0.3,2.7-1.3,3.4-2.6c0.7-1.2,0.9-2.6,0.6-4c-0.5-2.3-2.1-4.3-4.2-5.5c-1.4-0.8-3-1.3-4.6-1.5C182.2,375,181.6,375,181.6,374.9
		z"/>
	<path class="st6" d="M162.8,408c-0.2-0.7-0.5-1.4-0.9-2.1c-0.5-0.6-1.1-1.2-1.9-1.5c-1.8-0.9-4-0.3-5.2,1.4
		c-0.5,0.7-0.8,1.4-0.9,2.2c-0.1,0.8,0,1.5,0.2,2.2c0,0-0.2-0.2-0.3-0.5c-0.2-0.6-0.3-1.1-0.3-1.7c0.1-0.9,0.3-1.7,0.8-2.5
		c1.2-2,3.7-2.7,5.8-1.5c0.8,0.4,1.5,1,2,1.7c0.3,0.5,0.5,1,0.6,1.6C162.9,407.7,162.9,408,162.8,408z"/>
	<path class="st6" d="M166,422.5c0,0-0.1-0.5-0.4-1.2c-0.5-1.1-1.3-1.9-2.4-2.5c-1.6-0.7-3.4-0.6-4.9,0.4c-0.8,0.6-1.5,1.4-2,2.3
		c-0.3,0.5-0.7,0.9-1.1,1.3c-0.5,0.4-1.1,0.6-1.8,0.6c-1.2-0.2-2.3-0.8-3-1.8c-0.6-0.8-1.3-1.6-2.1-2.2c-0.8-0.5-1.7-0.6-2.6-0.5
		c-0.8,0.1-1.5,0.4-2.2,0.9c-0.9,0.7-1.7,1.6-2.3,2.6c-0.2,0.4-0.4,0.8-0.7,1.1c0.1-0.4,0.3-0.8,0.5-1.2c0.5-1.1,1.3-2.1,2.3-2.9
		c0.7-0.5,1.5-0.9,2.3-1c1-0.2,2,0,2.9,0.5c0.9,0.6,1.6,1.4,2.2,2.3c0.6,0.9,1.6,1.5,2.6,1.6c1.1,0,1.9-0.9,2.5-1.7
		c0.6-0.9,1.3-1.7,2.2-2.4c2.4-1.6,5.6-1,7.2,1.4c0.2,0.3,0.4,0.7,0.5,1c0.1,0.3,0.2,0.7,0.2,1C166.1,422.4,166.1,422.5,166,422.5z"
		/>
	<path class="st6" d="M173.7,386.2c-0.9-0.6-1.9-1-2.9-1.3c-1.1-0.3-2.2-0.3-3.4-0.2c-1.4,0.2-2.7,0.7-3.8,1.5
		c-1.1,0.8-1.9,2-2.4,3.2c-0.4,1.1-0.5,2.2-0.4,3.3c0.2,1,0.5,2,1.1,2.9c0,0-0.2-0.2-0.6-0.7c-0.4-0.7-0.7-1.4-0.9-2.2
		c-0.4-2.7,0.7-5.4,2.8-7c1.2-0.9,2.6-1.4,4-1.5c1.2-0.1,2.4,0,3.5,0.3c0.8,0.2,1.5,0.5,2.1,1C173.5,386,173.7,386.2,173.7,386.2z"
		/>
</g>
</svg>
